%TF.GenerationSoftware,KiCad,Pcbnew,8.0.4*%
%TF.CreationDate,2026-08-24T12:14:50-05:00*%
%TF.ProjectId,EE PROJECT,45452050-524f-44a4-9543-542e6b696361,rev?*%
%TF.SameCoordinates,Original*%
%TF.FileFunction,Drillmap*%
%TF.FilePolarity,Positive*%
%FSLAX45Y45*%
G04 Gerber Fmt 4.5, Leading zero omitted, Abs format (unit mm)*
G04 Created by KiCad (PCBNEW 8.0.4) date 2026-08-24 12:14:50*
%MOMM*%
%LPD*%
G01*
G04 APERTURE LIST*
%ADD10C,0.050000*%
%ADD11C,0.200000*%
%ADD12C,0.100000*%
%ADD13C,0.109220*%
%ADD14C,0.150000*%
G04 APERTURE END LIST*
D10*
X18367375Y-1785937D02*
X28606750Y-1785937D01*
X28606750Y-12858750D01*
X18367375Y-12858750D01*
X18367375Y-1785937D01*
D11*
D12*
X20470500Y-3262000D02*
X20550500Y-3342000D01*
X20550500Y-3262000D02*
X20470500Y-3342000D01*
X20470500Y-4024000D02*
X20550500Y-4104000D01*
X20550500Y-4024000D02*
X20470500Y-4104000D01*
X20470500Y-5174938D02*
X20550500Y-5254938D01*
X20550500Y-5174938D02*
X20470500Y-5254938D01*
X20470500Y-5936937D02*
X20550500Y-6016937D01*
X20550500Y-5936937D02*
X20470500Y-6016937D01*
X20470500Y-7103750D02*
X20550500Y-7183750D01*
X20550500Y-7103750D02*
X20470500Y-7183750D01*
X20470500Y-7865750D02*
X20550500Y-7945750D01*
X20550500Y-7865750D02*
X20470500Y-7945750D01*
X20470500Y-9008750D02*
X20550500Y-9088750D01*
X20550500Y-9008750D02*
X20470500Y-9088750D01*
X20470500Y-9770750D02*
X20550500Y-9850750D01*
X20550500Y-9770750D02*
X20470500Y-9850750D01*
X22256438Y-10985188D02*
X22336438Y-11065188D01*
X22336438Y-10985188D02*
X22256438Y-11065188D01*
X22256438Y-11747187D02*
X22336438Y-11827187D01*
X22336438Y-11747187D02*
X22256438Y-11827187D01*
X22375500Y-3262000D02*
X22455500Y-3342000D01*
X22455500Y-3262000D02*
X22375500Y-3342000D01*
X22375500Y-4024000D02*
X22455500Y-4104000D01*
X22455500Y-4024000D02*
X22375500Y-4104000D01*
X22375500Y-5198750D02*
X22455500Y-5278750D01*
X22455500Y-5198750D02*
X22375500Y-5278750D01*
X22375500Y-5960750D02*
X22455500Y-6040750D01*
X22455500Y-5960750D02*
X22375500Y-6040750D01*
X22375500Y-7103750D02*
X22455500Y-7183750D01*
X22455500Y-7103750D02*
X22375500Y-7183750D01*
X22375500Y-7865750D02*
X22455500Y-7945750D01*
X22455500Y-7865750D02*
X22375500Y-7945750D01*
X22375500Y-9008750D02*
X22455500Y-9088750D01*
X22455500Y-9008750D02*
X22375500Y-9088750D01*
X22375500Y-9770750D02*
X22455500Y-9850750D01*
X22455500Y-9770750D02*
X22375500Y-9850750D01*
X24161437Y-5174938D02*
X24241437Y-5254938D01*
X24241437Y-5174938D02*
X24161437Y-5254938D01*
X24161437Y-5936937D02*
X24241437Y-6016937D01*
X24241437Y-5936937D02*
X24161437Y-6016937D01*
X24161437Y-8984938D02*
X24241437Y-9064938D01*
X24241437Y-8984938D02*
X24161437Y-9064938D01*
X24161437Y-9746938D02*
X24241437Y-9826938D01*
X24241437Y-9746938D02*
X24161437Y-9826938D01*
X24161437Y-10913750D02*
X24241437Y-10993750D01*
X24241437Y-10913750D02*
X24161437Y-10993750D01*
X24161437Y-11675750D02*
X24241437Y-11755750D01*
X24241437Y-11675750D02*
X24161437Y-11755750D01*
X24280500Y-3262000D02*
X24360500Y-3342000D01*
X24360500Y-3262000D02*
X24280500Y-3342000D01*
X24280500Y-4024000D02*
X24360500Y-4104000D01*
X24360500Y-4024000D02*
X24280500Y-4104000D01*
X24280500Y-6603687D02*
X24360500Y-6683687D01*
X24360500Y-6603687D02*
X24280500Y-6683687D01*
X24280500Y-7365687D02*
X24360500Y-7445687D01*
X24360500Y-7365687D02*
X24280500Y-7445687D01*
X26185500Y-3262000D02*
X26265500Y-3342000D01*
X26265500Y-3262000D02*
X26185500Y-3342000D01*
X26185500Y-4024000D02*
X26265500Y-4104000D01*
X26265500Y-4024000D02*
X26185500Y-4104000D01*
X26185500Y-6365562D02*
X26265500Y-6445562D01*
X26265500Y-6365562D02*
X26185500Y-6445562D01*
X26185500Y-7127562D02*
X26265500Y-7207562D01*
X26265500Y-7127562D02*
X26185500Y-7207562D01*
X26185500Y-10199375D02*
X26265500Y-10279375D01*
X26265500Y-10199375D02*
X26185500Y-10279375D01*
X26185500Y-10961375D02*
X26265500Y-11041375D01*
X26265500Y-10961375D02*
X26185500Y-11041375D01*
X23537062Y-2381250D02*
G75*
G02*
X23437062Y-2381250I-50000J0D01*
G01*
X23437062Y-2381250D02*
G75*
G02*
X23537062Y-2381250I50000J0D01*
G01*
X24727687Y-2381250D02*
G75*
G02*
X24627687Y-2381250I-50000J0D01*
G01*
X24627687Y-2381250D02*
G75*
G02*
X24727687Y-2381250I50000J0D01*
G01*
X25918312Y-2381250D02*
G75*
G02*
X25818312Y-2381250I-50000J0D01*
G01*
X25818312Y-2381250D02*
G75*
G02*
X25918312Y-2381250I50000J0D01*
G01*
D13*
X26820812Y-2302828D02*
X26820812Y-2412048D01*
X26766202Y-2357438D02*
X26875422Y-2357438D01*
X26820812Y-2556828D02*
X26820812Y-2666048D01*
X26766202Y-2611438D02*
X26875422Y-2611438D01*
X26820812Y-2810827D02*
X26820812Y-2920047D01*
X26766202Y-2865437D02*
X26875422Y-2865437D01*
X26820812Y-3064827D02*
X26820812Y-3174047D01*
X26766202Y-3119437D02*
X26875422Y-3119437D01*
X26820812Y-3318827D02*
X26820812Y-3428047D01*
X26766202Y-3373437D02*
X26875422Y-3373437D01*
X26820812Y-3572827D02*
X26820812Y-3682047D01*
X26766202Y-3627437D02*
X26875422Y-3627437D01*
X26820812Y-3826827D02*
X26820812Y-3936047D01*
X26766202Y-3881437D02*
X26875422Y-3881437D01*
X26820812Y-4080827D02*
X26820812Y-4190047D01*
X26766202Y-4135437D02*
X26875422Y-4135437D01*
X26820812Y-4334828D02*
X26820812Y-4444048D01*
X26766202Y-4389438D02*
X26875422Y-4389438D01*
X26820812Y-4588828D02*
X26820812Y-4698048D01*
X26766202Y-4643438D02*
X26875422Y-4643438D01*
X26820812Y-4842828D02*
X26820812Y-4952048D01*
X26766202Y-4897438D02*
X26875422Y-4897438D01*
X26820812Y-5096828D02*
X26820812Y-5206048D01*
X26766202Y-5151438D02*
X26875422Y-5151438D01*
X28344812Y-2302828D02*
X28344812Y-2412048D01*
X28290202Y-2357438D02*
X28399422Y-2357438D01*
X28344812Y-2556828D02*
X28344812Y-2666048D01*
X28290202Y-2611438D02*
X28399422Y-2611438D01*
X28344812Y-2810827D02*
X28344812Y-2920047D01*
X28290202Y-2865437D02*
X28399422Y-2865437D01*
X28344812Y-3064827D02*
X28344812Y-3174047D01*
X28290202Y-3119437D02*
X28399422Y-3119437D01*
X28344812Y-3318827D02*
X28344812Y-3428047D01*
X28290202Y-3373437D02*
X28399422Y-3373437D01*
X28344812Y-3572827D02*
X28344812Y-3682047D01*
X28290202Y-3627437D02*
X28399422Y-3627437D01*
X28344812Y-3826827D02*
X28344812Y-3936047D01*
X28290202Y-3881437D02*
X28399422Y-3881437D01*
X28344812Y-4080827D02*
X28344812Y-4190047D01*
X28290202Y-4135437D02*
X28399422Y-4135437D01*
X28344812Y-4334828D02*
X28344812Y-4444048D01*
X28290202Y-4389438D02*
X28399422Y-4389438D01*
X28344812Y-4588828D02*
X28344812Y-4698048D01*
X28290202Y-4643438D02*
X28399422Y-4643438D01*
X28344812Y-4842828D02*
X28344812Y-4952048D01*
X28290202Y-4897438D02*
X28399422Y-4897438D01*
X28344812Y-5096828D02*
X28344812Y-5206048D01*
X28290202Y-5151438D02*
X28399422Y-5151438D01*
D14*
X19230034Y-3609033D02*
X19230034Y-3502966D01*
X19123967Y-3502966D01*
X19123967Y-3609033D01*
X19230034Y-3609033D01*
X19230034Y-5514034D02*
X19230034Y-5407967D01*
X19123967Y-5407967D01*
X19123967Y-5514034D01*
X19230034Y-5514034D01*
X19230034Y-7419033D02*
X19230034Y-7312966D01*
X19123967Y-7312966D01*
X19123967Y-7419033D01*
X19230034Y-7419033D01*
X19230034Y-9324034D02*
X19230034Y-9217967D01*
X19123967Y-9217967D01*
X19123967Y-9324034D01*
X19230034Y-9324034D01*
X19865034Y-3355033D02*
X19865034Y-3248966D01*
X19758967Y-3248966D01*
X19758967Y-3355033D01*
X19865034Y-3355033D01*
X19865034Y-5260034D02*
X19865034Y-5153967D01*
X19758967Y-5153967D01*
X19758967Y-5260034D01*
X19865034Y-5260034D01*
X19865034Y-7165033D02*
X19865034Y-7058966D01*
X19758967Y-7058966D01*
X19758967Y-7165033D01*
X19865034Y-7165033D01*
X19865034Y-9070034D02*
X19865034Y-8963967D01*
X19758967Y-8963967D01*
X19758967Y-9070034D01*
X19865034Y-9070034D01*
X20182534Y-11229033D02*
X20182534Y-11122967D01*
X20076467Y-11122967D01*
X20076467Y-11229033D01*
X20182534Y-11229033D01*
X20817534Y-10975034D02*
X20817534Y-10868967D01*
X20711467Y-10868967D01*
X20711467Y-10975034D01*
X20817534Y-10975034D01*
X21135034Y-3609033D02*
X21135034Y-3502966D01*
X21028967Y-3502966D01*
X21028967Y-3609033D01*
X21135034Y-3609033D01*
X21135034Y-5514034D02*
X21135034Y-5407967D01*
X21028967Y-5407967D01*
X21028967Y-5514034D01*
X21135034Y-5514034D01*
X21135034Y-7419033D02*
X21135034Y-7312966D01*
X21028967Y-7312966D01*
X21028967Y-7419033D01*
X21135034Y-7419033D01*
X21135034Y-9324034D02*
X21135034Y-9217967D01*
X21028967Y-9217967D01*
X21028967Y-9324034D01*
X21135034Y-9324034D01*
X21770034Y-3355033D02*
X21770034Y-3248966D01*
X21663967Y-3248966D01*
X21663967Y-3355033D01*
X21770034Y-3355033D01*
X21770034Y-5260034D02*
X21770034Y-5153967D01*
X21663967Y-5153967D01*
X21663967Y-5260034D01*
X21770034Y-5260034D01*
X21770034Y-7165033D02*
X21770034Y-7058966D01*
X21663967Y-7058966D01*
X21663967Y-7165033D01*
X21770034Y-7165033D01*
X21770034Y-9070034D02*
X21770034Y-8963967D01*
X21663967Y-8963967D01*
X21663967Y-9070034D01*
X21770034Y-9070034D01*
X23040033Y-3609033D02*
X23040033Y-3502966D01*
X22933966Y-3502966D01*
X22933966Y-3609033D01*
X23040033Y-3609033D01*
X23040033Y-5514034D02*
X23040033Y-5407967D01*
X22933966Y-5407967D01*
X22933966Y-5514034D01*
X23040033Y-5514034D01*
X23040033Y-7419033D02*
X23040033Y-7312966D01*
X22933966Y-7312966D01*
X22933966Y-7419033D01*
X23040033Y-7419033D01*
X23040033Y-9324034D02*
X23040033Y-9217967D01*
X22933966Y-9217967D01*
X22933966Y-9324034D01*
X23040033Y-9324034D01*
X23040033Y-11229033D02*
X23040033Y-11122967D01*
X22933966Y-11122967D01*
X22933966Y-11229033D01*
X23040033Y-11229033D01*
X23675033Y-3355033D02*
X23675033Y-3248966D01*
X23568966Y-3248966D01*
X23568966Y-3355033D01*
X23675033Y-3355033D01*
X23675033Y-5260034D02*
X23675033Y-5153967D01*
X23568966Y-5153967D01*
X23568966Y-5260034D01*
X23675033Y-5260034D01*
X23675033Y-7165033D02*
X23675033Y-7058966D01*
X23568966Y-7058966D01*
X23568966Y-7165033D01*
X23675033Y-7165033D01*
X23675033Y-9070034D02*
X23675033Y-8963967D01*
X23568966Y-8963967D01*
X23568966Y-9070034D01*
X23675033Y-9070034D01*
X23675033Y-10975034D02*
X23675033Y-10868967D01*
X23568966Y-10868967D01*
X23568966Y-10975034D01*
X23675033Y-10975034D01*
X24818033Y-6466533D02*
X24818033Y-6360466D01*
X24711966Y-6360466D01*
X24711966Y-6466533D01*
X24818033Y-6466533D01*
X24818033Y-10276534D02*
X24818033Y-10170467D01*
X24711966Y-10170467D01*
X24711966Y-10276534D01*
X24818033Y-10276534D01*
X24945033Y-3609033D02*
X24945033Y-3502966D01*
X24838966Y-3502966D01*
X24838966Y-3609033D01*
X24945033Y-3609033D01*
X25072033Y-7101533D02*
X25072033Y-6995466D01*
X24965966Y-6995466D01*
X24965966Y-7101533D01*
X25072033Y-7101533D01*
X25072033Y-10911534D02*
X25072033Y-10805467D01*
X24965966Y-10805467D01*
X24965966Y-10911534D01*
X25072033Y-10911534D01*
X25580033Y-3355033D02*
X25580033Y-3248966D01*
X25473966Y-3248966D01*
X25473966Y-3355033D01*
X25580033Y-3355033D01*
D11*
X18625652Y-13172734D02*
X18625652Y-12972734D01*
X18625652Y-12972734D02*
X18673271Y-12972734D01*
X18673271Y-12972734D02*
X18701842Y-12982258D01*
X18701842Y-12982258D02*
X18720890Y-13001305D01*
X18720890Y-13001305D02*
X18730414Y-13020353D01*
X18730414Y-13020353D02*
X18739938Y-13058448D01*
X18739938Y-13058448D02*
X18739938Y-13087019D01*
X18739938Y-13087019D02*
X18730414Y-13125115D01*
X18730414Y-13125115D02*
X18720890Y-13144162D01*
X18720890Y-13144162D02*
X18701842Y-13163210D01*
X18701842Y-13163210D02*
X18673271Y-13172734D01*
X18673271Y-13172734D02*
X18625652Y-13172734D01*
X18825652Y-13172734D02*
X18825652Y-13039400D01*
X18825652Y-13077496D02*
X18835176Y-13058448D01*
X18835176Y-13058448D02*
X18844699Y-13048924D01*
X18844699Y-13048924D02*
X18863747Y-13039400D01*
X18863747Y-13039400D02*
X18882795Y-13039400D01*
X18949461Y-13172734D02*
X18949461Y-13039400D01*
X18949461Y-12972734D02*
X18939938Y-12982258D01*
X18939938Y-12982258D02*
X18949461Y-12991781D01*
X18949461Y-12991781D02*
X18958985Y-12982258D01*
X18958985Y-12982258D02*
X18949461Y-12972734D01*
X18949461Y-12972734D02*
X18949461Y-12991781D01*
X19073271Y-13172734D02*
X19054223Y-13163210D01*
X19054223Y-13163210D02*
X19044699Y-13144162D01*
X19044699Y-13144162D02*
X19044699Y-12972734D01*
X19178033Y-13172734D02*
X19158985Y-13163210D01*
X19158985Y-13163210D02*
X19149461Y-13144162D01*
X19149461Y-13144162D02*
X19149461Y-12972734D01*
X19406604Y-13172734D02*
X19406604Y-12972734D01*
X19406604Y-12972734D02*
X19473271Y-13115591D01*
X19473271Y-13115591D02*
X19539938Y-12972734D01*
X19539938Y-12972734D02*
X19539938Y-13172734D01*
X19720890Y-13172734D02*
X19720890Y-13067972D01*
X19720890Y-13067972D02*
X19711366Y-13048924D01*
X19711366Y-13048924D02*
X19692319Y-13039400D01*
X19692319Y-13039400D02*
X19654223Y-13039400D01*
X19654223Y-13039400D02*
X19635176Y-13048924D01*
X19720890Y-13163210D02*
X19701842Y-13172734D01*
X19701842Y-13172734D02*
X19654223Y-13172734D01*
X19654223Y-13172734D02*
X19635176Y-13163210D01*
X19635176Y-13163210D02*
X19625652Y-13144162D01*
X19625652Y-13144162D02*
X19625652Y-13125115D01*
X19625652Y-13125115D02*
X19635176Y-13106067D01*
X19635176Y-13106067D02*
X19654223Y-13096543D01*
X19654223Y-13096543D02*
X19701842Y-13096543D01*
X19701842Y-13096543D02*
X19720890Y-13087019D01*
X19816128Y-13039400D02*
X19816128Y-13239400D01*
X19816128Y-13048924D02*
X19835176Y-13039400D01*
X19835176Y-13039400D02*
X19873271Y-13039400D01*
X19873271Y-13039400D02*
X19892319Y-13048924D01*
X19892319Y-13048924D02*
X19901842Y-13058448D01*
X19901842Y-13058448D02*
X19911366Y-13077496D01*
X19911366Y-13077496D02*
X19911366Y-13134638D01*
X19911366Y-13134638D02*
X19901842Y-13153686D01*
X19901842Y-13153686D02*
X19892319Y-13163210D01*
X19892319Y-13163210D02*
X19873271Y-13172734D01*
X19873271Y-13172734D02*
X19835176Y-13172734D01*
X19835176Y-13172734D02*
X19816128Y-13163210D01*
X19997080Y-13153686D02*
X20006604Y-13163210D01*
X20006604Y-13163210D02*
X19997080Y-13172734D01*
X19997080Y-13172734D02*
X19987557Y-13163210D01*
X19987557Y-13163210D02*
X19997080Y-13153686D01*
X19997080Y-13153686D02*
X19997080Y-13172734D01*
X19997080Y-13048924D02*
X20006604Y-13058448D01*
X20006604Y-13058448D02*
X19997080Y-13067972D01*
X19997080Y-13067972D02*
X19987557Y-13058448D01*
X19987557Y-13058448D02*
X19997080Y-13048924D01*
X19997080Y-13048924D02*
X19997080Y-13067972D01*
D12*
X18284875Y-13461250D02*
X18364875Y-13541250D01*
X18364875Y-13461250D02*
X18284875Y-13541250D01*
D11*
X18663747Y-13392734D02*
X18682795Y-13392734D01*
X18682795Y-13392734D02*
X18701842Y-13402258D01*
X18701842Y-13402258D02*
X18711366Y-13411781D01*
X18711366Y-13411781D02*
X18720890Y-13430829D01*
X18720890Y-13430829D02*
X18730414Y-13468924D01*
X18730414Y-13468924D02*
X18730414Y-13516543D01*
X18730414Y-13516543D02*
X18720890Y-13554638D01*
X18720890Y-13554638D02*
X18711366Y-13573686D01*
X18711366Y-13573686D02*
X18701842Y-13583210D01*
X18701842Y-13583210D02*
X18682795Y-13592734D01*
X18682795Y-13592734D02*
X18663747Y-13592734D01*
X18663747Y-13592734D02*
X18644699Y-13583210D01*
X18644699Y-13583210D02*
X18635176Y-13573686D01*
X18635176Y-13573686D02*
X18625652Y-13554638D01*
X18625652Y-13554638D02*
X18616128Y-13516543D01*
X18616128Y-13516543D02*
X18616128Y-13468924D01*
X18616128Y-13468924D02*
X18625652Y-13430829D01*
X18625652Y-13430829D02*
X18635176Y-13411781D01*
X18635176Y-13411781D02*
X18644699Y-13402258D01*
X18644699Y-13402258D02*
X18663747Y-13392734D01*
X18816128Y-13573686D02*
X18825652Y-13583210D01*
X18825652Y-13583210D02*
X18816128Y-13592734D01*
X18816128Y-13592734D02*
X18806604Y-13583210D01*
X18806604Y-13583210D02*
X18816128Y-13573686D01*
X18816128Y-13573686D02*
X18816128Y-13592734D01*
X18939938Y-13478448D02*
X18920890Y-13468924D01*
X18920890Y-13468924D02*
X18911366Y-13459400D01*
X18911366Y-13459400D02*
X18901842Y-13440353D01*
X18901842Y-13440353D02*
X18901842Y-13430829D01*
X18901842Y-13430829D02*
X18911366Y-13411781D01*
X18911366Y-13411781D02*
X18920890Y-13402258D01*
X18920890Y-13402258D02*
X18939938Y-13392734D01*
X18939938Y-13392734D02*
X18978033Y-13392734D01*
X18978033Y-13392734D02*
X18997080Y-13402258D01*
X18997080Y-13402258D02*
X19006604Y-13411781D01*
X19006604Y-13411781D02*
X19016128Y-13430829D01*
X19016128Y-13430829D02*
X19016128Y-13440353D01*
X19016128Y-13440353D02*
X19006604Y-13459400D01*
X19006604Y-13459400D02*
X18997080Y-13468924D01*
X18997080Y-13468924D02*
X18978033Y-13478448D01*
X18978033Y-13478448D02*
X18939938Y-13478448D01*
X18939938Y-13478448D02*
X18920890Y-13487972D01*
X18920890Y-13487972D02*
X18911366Y-13497496D01*
X18911366Y-13497496D02*
X18901842Y-13516543D01*
X18901842Y-13516543D02*
X18901842Y-13554638D01*
X18901842Y-13554638D02*
X18911366Y-13573686D01*
X18911366Y-13573686D02*
X18920890Y-13583210D01*
X18920890Y-13583210D02*
X18939938Y-13592734D01*
X18939938Y-13592734D02*
X18978033Y-13592734D01*
X18978033Y-13592734D02*
X18997080Y-13583210D01*
X18997080Y-13583210D02*
X19006604Y-13573686D01*
X19006604Y-13573686D02*
X19016128Y-13554638D01*
X19016128Y-13554638D02*
X19016128Y-13516543D01*
X19016128Y-13516543D02*
X19006604Y-13497496D01*
X19006604Y-13497496D02*
X18997080Y-13487972D01*
X18997080Y-13487972D02*
X18978033Y-13478448D01*
X19139938Y-13392734D02*
X19158985Y-13392734D01*
X19158985Y-13392734D02*
X19178033Y-13402258D01*
X19178033Y-13402258D02*
X19187557Y-13411781D01*
X19187557Y-13411781D02*
X19197080Y-13430829D01*
X19197080Y-13430829D02*
X19206604Y-13468924D01*
X19206604Y-13468924D02*
X19206604Y-13516543D01*
X19206604Y-13516543D02*
X19197080Y-13554638D01*
X19197080Y-13554638D02*
X19187557Y-13573686D01*
X19187557Y-13573686D02*
X19178033Y-13583210D01*
X19178033Y-13583210D02*
X19158985Y-13592734D01*
X19158985Y-13592734D02*
X19139938Y-13592734D01*
X19139938Y-13592734D02*
X19120890Y-13583210D01*
X19120890Y-13583210D02*
X19111366Y-13573686D01*
X19111366Y-13573686D02*
X19101842Y-13554638D01*
X19101842Y-13554638D02*
X19092319Y-13516543D01*
X19092319Y-13516543D02*
X19092319Y-13468924D01*
X19092319Y-13468924D02*
X19101842Y-13430829D01*
X19101842Y-13430829D02*
X19111366Y-13411781D01*
X19111366Y-13411781D02*
X19120890Y-13402258D01*
X19120890Y-13402258D02*
X19139938Y-13392734D01*
X19330414Y-13392734D02*
X19349461Y-13392734D01*
X19349461Y-13392734D02*
X19368509Y-13402258D01*
X19368509Y-13402258D02*
X19378033Y-13411781D01*
X19378033Y-13411781D02*
X19387557Y-13430829D01*
X19387557Y-13430829D02*
X19397080Y-13468924D01*
X19397080Y-13468924D02*
X19397080Y-13516543D01*
X19397080Y-13516543D02*
X19387557Y-13554638D01*
X19387557Y-13554638D02*
X19378033Y-13573686D01*
X19378033Y-13573686D02*
X19368509Y-13583210D01*
X19368509Y-13583210D02*
X19349461Y-13592734D01*
X19349461Y-13592734D02*
X19330414Y-13592734D01*
X19330414Y-13592734D02*
X19311366Y-13583210D01*
X19311366Y-13583210D02*
X19301842Y-13573686D01*
X19301842Y-13573686D02*
X19292319Y-13554638D01*
X19292319Y-13554638D02*
X19282795Y-13516543D01*
X19282795Y-13516543D02*
X19282795Y-13468924D01*
X19282795Y-13468924D02*
X19292319Y-13430829D01*
X19292319Y-13430829D02*
X19301842Y-13411781D01*
X19301842Y-13411781D02*
X19311366Y-13402258D01*
X19311366Y-13402258D02*
X19330414Y-13392734D01*
X19482795Y-13592734D02*
X19482795Y-13459400D01*
X19482795Y-13478448D02*
X19492319Y-13468924D01*
X19492319Y-13468924D02*
X19511366Y-13459400D01*
X19511366Y-13459400D02*
X19539938Y-13459400D01*
X19539938Y-13459400D02*
X19558985Y-13468924D01*
X19558985Y-13468924D02*
X19568509Y-13487972D01*
X19568509Y-13487972D02*
X19568509Y-13592734D01*
X19568509Y-13487972D02*
X19578033Y-13468924D01*
X19578033Y-13468924D02*
X19597080Y-13459400D01*
X19597080Y-13459400D02*
X19625652Y-13459400D01*
X19625652Y-13459400D02*
X19644700Y-13468924D01*
X19644700Y-13468924D02*
X19654223Y-13487972D01*
X19654223Y-13487972D02*
X19654223Y-13592734D01*
X19749461Y-13592734D02*
X19749461Y-13459400D01*
X19749461Y-13478448D02*
X19758985Y-13468924D01*
X19758985Y-13468924D02*
X19778033Y-13459400D01*
X19778033Y-13459400D02*
X19806604Y-13459400D01*
X19806604Y-13459400D02*
X19825652Y-13468924D01*
X19825652Y-13468924D02*
X19835176Y-13487972D01*
X19835176Y-13487972D02*
X19835176Y-13592734D01*
X19835176Y-13487972D02*
X19844700Y-13468924D01*
X19844700Y-13468924D02*
X19863747Y-13459400D01*
X19863747Y-13459400D02*
X19892319Y-13459400D01*
X19892319Y-13459400D02*
X19911366Y-13468924D01*
X19911366Y-13468924D02*
X19920890Y-13487972D01*
X19920890Y-13487972D02*
X19920890Y-13592734D01*
X20311366Y-13383210D02*
X20139938Y-13640353D01*
X20568509Y-13392734D02*
X20587557Y-13392734D01*
X20587557Y-13392734D02*
X20606604Y-13402258D01*
X20606604Y-13402258D02*
X20616128Y-13411781D01*
X20616128Y-13411781D02*
X20625652Y-13430829D01*
X20625652Y-13430829D02*
X20635176Y-13468924D01*
X20635176Y-13468924D02*
X20635176Y-13516543D01*
X20635176Y-13516543D02*
X20625652Y-13554638D01*
X20625652Y-13554638D02*
X20616128Y-13573686D01*
X20616128Y-13573686D02*
X20606604Y-13583210D01*
X20606604Y-13583210D02*
X20587557Y-13592734D01*
X20587557Y-13592734D02*
X20568509Y-13592734D01*
X20568509Y-13592734D02*
X20549462Y-13583210D01*
X20549462Y-13583210D02*
X20539938Y-13573686D01*
X20539938Y-13573686D02*
X20530414Y-13554638D01*
X20530414Y-13554638D02*
X20520890Y-13516543D01*
X20520890Y-13516543D02*
X20520890Y-13468924D01*
X20520890Y-13468924D02*
X20530414Y-13430829D01*
X20530414Y-13430829D02*
X20539938Y-13411781D01*
X20539938Y-13411781D02*
X20549462Y-13402258D01*
X20549462Y-13402258D02*
X20568509Y-13392734D01*
X20720890Y-13573686D02*
X20730414Y-13583210D01*
X20730414Y-13583210D02*
X20720890Y-13592734D01*
X20720890Y-13592734D02*
X20711366Y-13583210D01*
X20711366Y-13583210D02*
X20720890Y-13573686D01*
X20720890Y-13573686D02*
X20720890Y-13592734D01*
X20854223Y-13392734D02*
X20873271Y-13392734D01*
X20873271Y-13392734D02*
X20892319Y-13402258D01*
X20892319Y-13402258D02*
X20901843Y-13411781D01*
X20901843Y-13411781D02*
X20911366Y-13430829D01*
X20911366Y-13430829D02*
X20920890Y-13468924D01*
X20920890Y-13468924D02*
X20920890Y-13516543D01*
X20920890Y-13516543D02*
X20911366Y-13554638D01*
X20911366Y-13554638D02*
X20901843Y-13573686D01*
X20901843Y-13573686D02*
X20892319Y-13583210D01*
X20892319Y-13583210D02*
X20873271Y-13592734D01*
X20873271Y-13592734D02*
X20854223Y-13592734D01*
X20854223Y-13592734D02*
X20835176Y-13583210D01*
X20835176Y-13583210D02*
X20825652Y-13573686D01*
X20825652Y-13573686D02*
X20816128Y-13554638D01*
X20816128Y-13554638D02*
X20806604Y-13516543D01*
X20806604Y-13516543D02*
X20806604Y-13468924D01*
X20806604Y-13468924D02*
X20816128Y-13430829D01*
X20816128Y-13430829D02*
X20825652Y-13411781D01*
X20825652Y-13411781D02*
X20835176Y-13402258D01*
X20835176Y-13402258D02*
X20854223Y-13392734D01*
X20987557Y-13392734D02*
X21111366Y-13392734D01*
X21111366Y-13392734D02*
X21044700Y-13468924D01*
X21044700Y-13468924D02*
X21073271Y-13468924D01*
X21073271Y-13468924D02*
X21092319Y-13478448D01*
X21092319Y-13478448D02*
X21101843Y-13487972D01*
X21101843Y-13487972D02*
X21111366Y-13507019D01*
X21111366Y-13507019D02*
X21111366Y-13554638D01*
X21111366Y-13554638D02*
X21101843Y-13573686D01*
X21101843Y-13573686D02*
X21092319Y-13583210D01*
X21092319Y-13583210D02*
X21073271Y-13592734D01*
X21073271Y-13592734D02*
X21016128Y-13592734D01*
X21016128Y-13592734D02*
X20997081Y-13583210D01*
X20997081Y-13583210D02*
X20987557Y-13573686D01*
X21301843Y-13592734D02*
X21187557Y-13592734D01*
X21244700Y-13592734D02*
X21244700Y-13392734D01*
X21244700Y-13392734D02*
X21225652Y-13421305D01*
X21225652Y-13421305D02*
X21206604Y-13440353D01*
X21206604Y-13440353D02*
X21187557Y-13449877D01*
X21482795Y-13392734D02*
X21387557Y-13392734D01*
X21387557Y-13392734D02*
X21378033Y-13487972D01*
X21378033Y-13487972D02*
X21387557Y-13478448D01*
X21387557Y-13478448D02*
X21406604Y-13468924D01*
X21406604Y-13468924D02*
X21454224Y-13468924D01*
X21454224Y-13468924D02*
X21473271Y-13478448D01*
X21473271Y-13478448D02*
X21482795Y-13487972D01*
X21482795Y-13487972D02*
X21492319Y-13507019D01*
X21492319Y-13507019D02*
X21492319Y-13554638D01*
X21492319Y-13554638D02*
X21482795Y-13573686D01*
X21482795Y-13573686D02*
X21473271Y-13583210D01*
X21473271Y-13583210D02*
X21454224Y-13592734D01*
X21454224Y-13592734D02*
X21406604Y-13592734D01*
X21406604Y-13592734D02*
X21387557Y-13583210D01*
X21387557Y-13583210D02*
X21378033Y-13573686D01*
X21568509Y-13392734D02*
X21568509Y-13430829D01*
X21644700Y-13392734D02*
X21644700Y-13430829D01*
X21939938Y-13668924D02*
X21930414Y-13659400D01*
X21930414Y-13659400D02*
X21911366Y-13630829D01*
X21911366Y-13630829D02*
X21901843Y-13611781D01*
X21901843Y-13611781D02*
X21892319Y-13583210D01*
X21892319Y-13583210D02*
X21882795Y-13535591D01*
X21882795Y-13535591D02*
X21882795Y-13497496D01*
X21882795Y-13497496D02*
X21892319Y-13449877D01*
X21892319Y-13449877D02*
X21901843Y-13421305D01*
X21901843Y-13421305D02*
X21911366Y-13402258D01*
X21911366Y-13402258D02*
X21930414Y-13373686D01*
X21930414Y-13373686D02*
X21939938Y-13364162D01*
X21997081Y-13392734D02*
X22120890Y-13392734D01*
X22120890Y-13392734D02*
X22054224Y-13468924D01*
X22054224Y-13468924D02*
X22082795Y-13468924D01*
X22082795Y-13468924D02*
X22101843Y-13478448D01*
X22101843Y-13478448D02*
X22111366Y-13487972D01*
X22111366Y-13487972D02*
X22120890Y-13507019D01*
X22120890Y-13507019D02*
X22120890Y-13554638D01*
X22120890Y-13554638D02*
X22111366Y-13573686D01*
X22111366Y-13573686D02*
X22101843Y-13583210D01*
X22101843Y-13583210D02*
X22082795Y-13592734D01*
X22082795Y-13592734D02*
X22025652Y-13592734D01*
X22025652Y-13592734D02*
X22006605Y-13583210D01*
X22006605Y-13583210D02*
X21997081Y-13573686D01*
X22292319Y-13459400D02*
X22292319Y-13592734D01*
X22244700Y-13383210D02*
X22197081Y-13526067D01*
X22197081Y-13526067D02*
X22320890Y-13526067D01*
X22549462Y-13592734D02*
X22549462Y-13392734D01*
X22635176Y-13592734D02*
X22635176Y-13487972D01*
X22635176Y-13487972D02*
X22625652Y-13468924D01*
X22625652Y-13468924D02*
X22606605Y-13459400D01*
X22606605Y-13459400D02*
X22578033Y-13459400D01*
X22578033Y-13459400D02*
X22558985Y-13468924D01*
X22558985Y-13468924D02*
X22549462Y-13478448D01*
X22758985Y-13592734D02*
X22739938Y-13583210D01*
X22739938Y-13583210D02*
X22730414Y-13573686D01*
X22730414Y-13573686D02*
X22720890Y-13554638D01*
X22720890Y-13554638D02*
X22720890Y-13497496D01*
X22720890Y-13497496D02*
X22730414Y-13478448D01*
X22730414Y-13478448D02*
X22739938Y-13468924D01*
X22739938Y-13468924D02*
X22758985Y-13459400D01*
X22758985Y-13459400D02*
X22787557Y-13459400D01*
X22787557Y-13459400D02*
X22806605Y-13468924D01*
X22806605Y-13468924D02*
X22816128Y-13478448D01*
X22816128Y-13478448D02*
X22825652Y-13497496D01*
X22825652Y-13497496D02*
X22825652Y-13554638D01*
X22825652Y-13554638D02*
X22816128Y-13573686D01*
X22816128Y-13573686D02*
X22806605Y-13583210D01*
X22806605Y-13583210D02*
X22787557Y-13592734D01*
X22787557Y-13592734D02*
X22758985Y-13592734D01*
X22939938Y-13592734D02*
X22920890Y-13583210D01*
X22920890Y-13583210D02*
X22911366Y-13564162D01*
X22911366Y-13564162D02*
X22911366Y-13392734D01*
X23092319Y-13583210D02*
X23073271Y-13592734D01*
X23073271Y-13592734D02*
X23035176Y-13592734D01*
X23035176Y-13592734D02*
X23016128Y-13583210D01*
X23016128Y-13583210D02*
X23006605Y-13564162D01*
X23006605Y-13564162D02*
X23006605Y-13487972D01*
X23006605Y-13487972D02*
X23016128Y-13468924D01*
X23016128Y-13468924D02*
X23035176Y-13459400D01*
X23035176Y-13459400D02*
X23073271Y-13459400D01*
X23073271Y-13459400D02*
X23092319Y-13468924D01*
X23092319Y-13468924D02*
X23101843Y-13487972D01*
X23101843Y-13487972D02*
X23101843Y-13507019D01*
X23101843Y-13507019D02*
X23006605Y-13526067D01*
X23178033Y-13583210D02*
X23197081Y-13592734D01*
X23197081Y-13592734D02*
X23235176Y-13592734D01*
X23235176Y-13592734D02*
X23254224Y-13583210D01*
X23254224Y-13583210D02*
X23263747Y-13564162D01*
X23263747Y-13564162D02*
X23263747Y-13554638D01*
X23263747Y-13554638D02*
X23254224Y-13535591D01*
X23254224Y-13535591D02*
X23235176Y-13526067D01*
X23235176Y-13526067D02*
X23206605Y-13526067D01*
X23206605Y-13526067D02*
X23187557Y-13516543D01*
X23187557Y-13516543D02*
X23178033Y-13497496D01*
X23178033Y-13497496D02*
X23178033Y-13487972D01*
X23178033Y-13487972D02*
X23187557Y-13468924D01*
X23187557Y-13468924D02*
X23206605Y-13459400D01*
X23206605Y-13459400D02*
X23235176Y-13459400D01*
X23235176Y-13459400D02*
X23254224Y-13468924D01*
X23330414Y-13668924D02*
X23339938Y-13659400D01*
X23339938Y-13659400D02*
X23358986Y-13630829D01*
X23358986Y-13630829D02*
X23368509Y-13611781D01*
X23368509Y-13611781D02*
X23378033Y-13583210D01*
X23378033Y-13583210D02*
X23387557Y-13535591D01*
X23387557Y-13535591D02*
X23387557Y-13497496D01*
X23387557Y-13497496D02*
X23378033Y-13449877D01*
X23378033Y-13449877D02*
X23368509Y-13421305D01*
X23368509Y-13421305D02*
X23358986Y-13402258D01*
X23358986Y-13402258D02*
X23339938Y-13373686D01*
X23339938Y-13373686D02*
X23330414Y-13364162D01*
D12*
X18364875Y-13765250D02*
G75*
G02*
X18264875Y-13765250I-50000J0D01*
G01*
X18264875Y-13765250D02*
G75*
G02*
X18364875Y-13765250I50000J0D01*
G01*
D11*
X18730414Y-13856734D02*
X18616128Y-13856734D01*
X18673271Y-13856734D02*
X18673271Y-13656734D01*
X18673271Y-13656734D02*
X18654223Y-13685305D01*
X18654223Y-13685305D02*
X18635176Y-13704353D01*
X18635176Y-13704353D02*
X18616128Y-13713877D01*
X18816128Y-13837686D02*
X18825652Y-13847210D01*
X18825652Y-13847210D02*
X18816128Y-13856734D01*
X18816128Y-13856734D02*
X18806604Y-13847210D01*
X18806604Y-13847210D02*
X18816128Y-13837686D01*
X18816128Y-13837686D02*
X18816128Y-13856734D01*
X18949461Y-13656734D02*
X18968509Y-13656734D01*
X18968509Y-13656734D02*
X18987557Y-13666258D01*
X18987557Y-13666258D02*
X18997080Y-13675781D01*
X18997080Y-13675781D02*
X19006604Y-13694829D01*
X19006604Y-13694829D02*
X19016128Y-13732924D01*
X19016128Y-13732924D02*
X19016128Y-13780543D01*
X19016128Y-13780543D02*
X19006604Y-13818638D01*
X19006604Y-13818638D02*
X18997080Y-13837686D01*
X18997080Y-13837686D02*
X18987557Y-13847210D01*
X18987557Y-13847210D02*
X18968509Y-13856734D01*
X18968509Y-13856734D02*
X18949461Y-13856734D01*
X18949461Y-13856734D02*
X18930414Y-13847210D01*
X18930414Y-13847210D02*
X18920890Y-13837686D01*
X18920890Y-13837686D02*
X18911366Y-13818638D01*
X18911366Y-13818638D02*
X18901842Y-13780543D01*
X18901842Y-13780543D02*
X18901842Y-13732924D01*
X18901842Y-13732924D02*
X18911366Y-13694829D01*
X18911366Y-13694829D02*
X18920890Y-13675781D01*
X18920890Y-13675781D02*
X18930414Y-13666258D01*
X18930414Y-13666258D02*
X18949461Y-13656734D01*
X19139938Y-13656734D02*
X19158985Y-13656734D01*
X19158985Y-13656734D02*
X19178033Y-13666258D01*
X19178033Y-13666258D02*
X19187557Y-13675781D01*
X19187557Y-13675781D02*
X19197080Y-13694829D01*
X19197080Y-13694829D02*
X19206604Y-13732924D01*
X19206604Y-13732924D02*
X19206604Y-13780543D01*
X19206604Y-13780543D02*
X19197080Y-13818638D01*
X19197080Y-13818638D02*
X19187557Y-13837686D01*
X19187557Y-13837686D02*
X19178033Y-13847210D01*
X19178033Y-13847210D02*
X19158985Y-13856734D01*
X19158985Y-13856734D02*
X19139938Y-13856734D01*
X19139938Y-13856734D02*
X19120890Y-13847210D01*
X19120890Y-13847210D02*
X19111366Y-13837686D01*
X19111366Y-13837686D02*
X19101842Y-13818638D01*
X19101842Y-13818638D02*
X19092319Y-13780543D01*
X19092319Y-13780543D02*
X19092319Y-13732924D01*
X19092319Y-13732924D02*
X19101842Y-13694829D01*
X19101842Y-13694829D02*
X19111366Y-13675781D01*
X19111366Y-13675781D02*
X19120890Y-13666258D01*
X19120890Y-13666258D02*
X19139938Y-13656734D01*
X19330414Y-13656734D02*
X19349461Y-13656734D01*
X19349461Y-13656734D02*
X19368509Y-13666258D01*
X19368509Y-13666258D02*
X19378033Y-13675781D01*
X19378033Y-13675781D02*
X19387557Y-13694829D01*
X19387557Y-13694829D02*
X19397080Y-13732924D01*
X19397080Y-13732924D02*
X19397080Y-13780543D01*
X19397080Y-13780543D02*
X19387557Y-13818638D01*
X19387557Y-13818638D02*
X19378033Y-13837686D01*
X19378033Y-13837686D02*
X19368509Y-13847210D01*
X19368509Y-13847210D02*
X19349461Y-13856734D01*
X19349461Y-13856734D02*
X19330414Y-13856734D01*
X19330414Y-13856734D02*
X19311366Y-13847210D01*
X19311366Y-13847210D02*
X19301842Y-13837686D01*
X19301842Y-13837686D02*
X19292319Y-13818638D01*
X19292319Y-13818638D02*
X19282795Y-13780543D01*
X19282795Y-13780543D02*
X19282795Y-13732924D01*
X19282795Y-13732924D02*
X19292319Y-13694829D01*
X19292319Y-13694829D02*
X19301842Y-13675781D01*
X19301842Y-13675781D02*
X19311366Y-13666258D01*
X19311366Y-13666258D02*
X19330414Y-13656734D01*
X19482795Y-13856734D02*
X19482795Y-13723400D01*
X19482795Y-13742448D02*
X19492319Y-13732924D01*
X19492319Y-13732924D02*
X19511366Y-13723400D01*
X19511366Y-13723400D02*
X19539938Y-13723400D01*
X19539938Y-13723400D02*
X19558985Y-13732924D01*
X19558985Y-13732924D02*
X19568509Y-13751972D01*
X19568509Y-13751972D02*
X19568509Y-13856734D01*
X19568509Y-13751972D02*
X19578033Y-13732924D01*
X19578033Y-13732924D02*
X19597080Y-13723400D01*
X19597080Y-13723400D02*
X19625652Y-13723400D01*
X19625652Y-13723400D02*
X19644700Y-13732924D01*
X19644700Y-13732924D02*
X19654223Y-13751972D01*
X19654223Y-13751972D02*
X19654223Y-13856734D01*
X19749461Y-13856734D02*
X19749461Y-13723400D01*
X19749461Y-13742448D02*
X19758985Y-13732924D01*
X19758985Y-13732924D02*
X19778033Y-13723400D01*
X19778033Y-13723400D02*
X19806604Y-13723400D01*
X19806604Y-13723400D02*
X19825652Y-13732924D01*
X19825652Y-13732924D02*
X19835176Y-13751972D01*
X19835176Y-13751972D02*
X19835176Y-13856734D01*
X19835176Y-13751972D02*
X19844700Y-13732924D01*
X19844700Y-13732924D02*
X19863747Y-13723400D01*
X19863747Y-13723400D02*
X19892319Y-13723400D01*
X19892319Y-13723400D02*
X19911366Y-13732924D01*
X19911366Y-13732924D02*
X19920890Y-13751972D01*
X19920890Y-13751972D02*
X19920890Y-13856734D01*
X20311366Y-13647210D02*
X20139938Y-13904353D01*
X20568509Y-13656734D02*
X20587557Y-13656734D01*
X20587557Y-13656734D02*
X20606604Y-13666258D01*
X20606604Y-13666258D02*
X20616128Y-13675781D01*
X20616128Y-13675781D02*
X20625652Y-13694829D01*
X20625652Y-13694829D02*
X20635176Y-13732924D01*
X20635176Y-13732924D02*
X20635176Y-13780543D01*
X20635176Y-13780543D02*
X20625652Y-13818638D01*
X20625652Y-13818638D02*
X20616128Y-13837686D01*
X20616128Y-13837686D02*
X20606604Y-13847210D01*
X20606604Y-13847210D02*
X20587557Y-13856734D01*
X20587557Y-13856734D02*
X20568509Y-13856734D01*
X20568509Y-13856734D02*
X20549462Y-13847210D01*
X20549462Y-13847210D02*
X20539938Y-13837686D01*
X20539938Y-13837686D02*
X20530414Y-13818638D01*
X20530414Y-13818638D02*
X20520890Y-13780543D01*
X20520890Y-13780543D02*
X20520890Y-13732924D01*
X20520890Y-13732924D02*
X20530414Y-13694829D01*
X20530414Y-13694829D02*
X20539938Y-13675781D01*
X20539938Y-13675781D02*
X20549462Y-13666258D01*
X20549462Y-13666258D02*
X20568509Y-13656734D01*
X20720890Y-13837686D02*
X20730414Y-13847210D01*
X20730414Y-13847210D02*
X20720890Y-13856734D01*
X20720890Y-13856734D02*
X20711366Y-13847210D01*
X20711366Y-13847210D02*
X20720890Y-13837686D01*
X20720890Y-13837686D02*
X20720890Y-13856734D01*
X20854223Y-13656734D02*
X20873271Y-13656734D01*
X20873271Y-13656734D02*
X20892319Y-13666258D01*
X20892319Y-13666258D02*
X20901843Y-13675781D01*
X20901843Y-13675781D02*
X20911366Y-13694829D01*
X20911366Y-13694829D02*
X20920890Y-13732924D01*
X20920890Y-13732924D02*
X20920890Y-13780543D01*
X20920890Y-13780543D02*
X20911366Y-13818638D01*
X20911366Y-13818638D02*
X20901843Y-13837686D01*
X20901843Y-13837686D02*
X20892319Y-13847210D01*
X20892319Y-13847210D02*
X20873271Y-13856734D01*
X20873271Y-13856734D02*
X20854223Y-13856734D01*
X20854223Y-13856734D02*
X20835176Y-13847210D01*
X20835176Y-13847210D02*
X20825652Y-13837686D01*
X20825652Y-13837686D02*
X20816128Y-13818638D01*
X20816128Y-13818638D02*
X20806604Y-13780543D01*
X20806604Y-13780543D02*
X20806604Y-13732924D01*
X20806604Y-13732924D02*
X20816128Y-13694829D01*
X20816128Y-13694829D02*
X20825652Y-13675781D01*
X20825652Y-13675781D02*
X20835176Y-13666258D01*
X20835176Y-13666258D02*
X20854223Y-13656734D01*
X20987557Y-13656734D02*
X21111366Y-13656734D01*
X21111366Y-13656734D02*
X21044700Y-13732924D01*
X21044700Y-13732924D02*
X21073271Y-13732924D01*
X21073271Y-13732924D02*
X21092319Y-13742448D01*
X21092319Y-13742448D02*
X21101843Y-13751972D01*
X21101843Y-13751972D02*
X21111366Y-13771019D01*
X21111366Y-13771019D02*
X21111366Y-13818638D01*
X21111366Y-13818638D02*
X21101843Y-13837686D01*
X21101843Y-13837686D02*
X21092319Y-13847210D01*
X21092319Y-13847210D02*
X21073271Y-13856734D01*
X21073271Y-13856734D02*
X21016128Y-13856734D01*
X21016128Y-13856734D02*
X20997081Y-13847210D01*
X20997081Y-13847210D02*
X20987557Y-13837686D01*
X21206604Y-13856734D02*
X21244700Y-13856734D01*
X21244700Y-13856734D02*
X21263747Y-13847210D01*
X21263747Y-13847210D02*
X21273271Y-13837686D01*
X21273271Y-13837686D02*
X21292319Y-13809115D01*
X21292319Y-13809115D02*
X21301843Y-13771019D01*
X21301843Y-13771019D02*
X21301843Y-13694829D01*
X21301843Y-13694829D02*
X21292319Y-13675781D01*
X21292319Y-13675781D02*
X21282795Y-13666258D01*
X21282795Y-13666258D02*
X21263747Y-13656734D01*
X21263747Y-13656734D02*
X21225652Y-13656734D01*
X21225652Y-13656734D02*
X21206604Y-13666258D01*
X21206604Y-13666258D02*
X21197081Y-13675781D01*
X21197081Y-13675781D02*
X21187557Y-13694829D01*
X21187557Y-13694829D02*
X21187557Y-13742448D01*
X21187557Y-13742448D02*
X21197081Y-13761496D01*
X21197081Y-13761496D02*
X21206604Y-13771019D01*
X21206604Y-13771019D02*
X21225652Y-13780543D01*
X21225652Y-13780543D02*
X21263747Y-13780543D01*
X21263747Y-13780543D02*
X21282795Y-13771019D01*
X21282795Y-13771019D02*
X21292319Y-13761496D01*
X21292319Y-13761496D02*
X21301843Y-13742448D01*
X21473271Y-13723400D02*
X21473271Y-13856734D01*
X21425652Y-13647210D02*
X21378033Y-13790067D01*
X21378033Y-13790067D02*
X21501843Y-13790067D01*
X21568509Y-13656734D02*
X21568509Y-13694829D01*
X21644700Y-13656734D02*
X21644700Y-13694829D01*
X21939938Y-13932924D02*
X21930414Y-13923400D01*
X21930414Y-13923400D02*
X21911366Y-13894829D01*
X21911366Y-13894829D02*
X21901843Y-13875781D01*
X21901843Y-13875781D02*
X21892319Y-13847210D01*
X21892319Y-13847210D02*
X21882795Y-13799591D01*
X21882795Y-13799591D02*
X21882795Y-13761496D01*
X21882795Y-13761496D02*
X21892319Y-13713877D01*
X21892319Y-13713877D02*
X21901843Y-13685305D01*
X21901843Y-13685305D02*
X21911366Y-13666258D01*
X21911366Y-13666258D02*
X21930414Y-13637686D01*
X21930414Y-13637686D02*
X21939938Y-13628162D01*
X21997081Y-13656734D02*
X22120890Y-13656734D01*
X22120890Y-13656734D02*
X22054224Y-13732924D01*
X22054224Y-13732924D02*
X22082795Y-13732924D01*
X22082795Y-13732924D02*
X22101843Y-13742448D01*
X22101843Y-13742448D02*
X22111366Y-13751972D01*
X22111366Y-13751972D02*
X22120890Y-13771019D01*
X22120890Y-13771019D02*
X22120890Y-13818638D01*
X22120890Y-13818638D02*
X22111366Y-13837686D01*
X22111366Y-13837686D02*
X22101843Y-13847210D01*
X22101843Y-13847210D02*
X22082795Y-13856734D01*
X22082795Y-13856734D02*
X22025652Y-13856734D01*
X22025652Y-13856734D02*
X22006605Y-13847210D01*
X22006605Y-13847210D02*
X21997081Y-13837686D01*
X22358986Y-13856734D02*
X22358986Y-13656734D01*
X22444700Y-13856734D02*
X22444700Y-13751972D01*
X22444700Y-13751972D02*
X22435176Y-13732924D01*
X22435176Y-13732924D02*
X22416128Y-13723400D01*
X22416128Y-13723400D02*
X22387557Y-13723400D01*
X22387557Y-13723400D02*
X22368509Y-13732924D01*
X22368509Y-13732924D02*
X22358986Y-13742448D01*
X22568509Y-13856734D02*
X22549462Y-13847210D01*
X22549462Y-13847210D02*
X22539938Y-13837686D01*
X22539938Y-13837686D02*
X22530414Y-13818638D01*
X22530414Y-13818638D02*
X22530414Y-13761496D01*
X22530414Y-13761496D02*
X22539938Y-13742448D01*
X22539938Y-13742448D02*
X22549462Y-13732924D01*
X22549462Y-13732924D02*
X22568509Y-13723400D01*
X22568509Y-13723400D02*
X22597081Y-13723400D01*
X22597081Y-13723400D02*
X22616128Y-13732924D01*
X22616128Y-13732924D02*
X22625652Y-13742448D01*
X22625652Y-13742448D02*
X22635176Y-13761496D01*
X22635176Y-13761496D02*
X22635176Y-13818638D01*
X22635176Y-13818638D02*
X22625652Y-13837686D01*
X22625652Y-13837686D02*
X22616128Y-13847210D01*
X22616128Y-13847210D02*
X22597081Y-13856734D01*
X22597081Y-13856734D02*
X22568509Y-13856734D01*
X22749462Y-13856734D02*
X22730414Y-13847210D01*
X22730414Y-13847210D02*
X22720890Y-13828162D01*
X22720890Y-13828162D02*
X22720890Y-13656734D01*
X22901843Y-13847210D02*
X22882795Y-13856734D01*
X22882795Y-13856734D02*
X22844700Y-13856734D01*
X22844700Y-13856734D02*
X22825652Y-13847210D01*
X22825652Y-13847210D02*
X22816128Y-13828162D01*
X22816128Y-13828162D02*
X22816128Y-13751972D01*
X22816128Y-13751972D02*
X22825652Y-13732924D01*
X22825652Y-13732924D02*
X22844700Y-13723400D01*
X22844700Y-13723400D02*
X22882795Y-13723400D01*
X22882795Y-13723400D02*
X22901843Y-13732924D01*
X22901843Y-13732924D02*
X22911366Y-13751972D01*
X22911366Y-13751972D02*
X22911366Y-13771019D01*
X22911366Y-13771019D02*
X22816128Y-13790067D01*
X22987557Y-13847210D02*
X23006605Y-13856734D01*
X23006605Y-13856734D02*
X23044700Y-13856734D01*
X23044700Y-13856734D02*
X23063747Y-13847210D01*
X23063747Y-13847210D02*
X23073271Y-13828162D01*
X23073271Y-13828162D02*
X23073271Y-13818638D01*
X23073271Y-13818638D02*
X23063747Y-13799591D01*
X23063747Y-13799591D02*
X23044700Y-13790067D01*
X23044700Y-13790067D02*
X23016128Y-13790067D01*
X23016128Y-13790067D02*
X22997081Y-13780543D01*
X22997081Y-13780543D02*
X22987557Y-13761496D01*
X22987557Y-13761496D02*
X22987557Y-13751972D01*
X22987557Y-13751972D02*
X22997081Y-13732924D01*
X22997081Y-13732924D02*
X23016128Y-13723400D01*
X23016128Y-13723400D02*
X23044700Y-13723400D01*
X23044700Y-13723400D02*
X23063747Y-13732924D01*
X23139938Y-13932924D02*
X23149462Y-13923400D01*
X23149462Y-13923400D02*
X23168509Y-13894829D01*
X23168509Y-13894829D02*
X23178033Y-13875781D01*
X23178033Y-13875781D02*
X23187557Y-13847210D01*
X23187557Y-13847210D02*
X23197081Y-13799591D01*
X23197081Y-13799591D02*
X23197081Y-13761496D01*
X23197081Y-13761496D02*
X23187557Y-13713877D01*
X23187557Y-13713877D02*
X23178033Y-13685305D01*
X23178033Y-13685305D02*
X23168509Y-13666258D01*
X23168509Y-13666258D02*
X23149462Y-13637686D01*
X23149462Y-13637686D02*
X23139938Y-13628162D01*
D13*
X18310265Y-13974640D02*
X18310265Y-14083860D01*
X18255655Y-14029250D02*
X18364875Y-14029250D01*
D11*
X18730414Y-14120734D02*
X18616128Y-14120734D01*
X18673271Y-14120734D02*
X18673271Y-13920734D01*
X18673271Y-13920734D02*
X18654223Y-13949305D01*
X18654223Y-13949305D02*
X18635176Y-13968353D01*
X18635176Y-13968353D02*
X18616128Y-13977877D01*
X18816128Y-14101686D02*
X18825652Y-14111210D01*
X18825652Y-14111210D02*
X18816128Y-14120734D01*
X18816128Y-14120734D02*
X18806604Y-14111210D01*
X18806604Y-14111210D02*
X18816128Y-14101686D01*
X18816128Y-14101686D02*
X18816128Y-14120734D01*
X18949461Y-13920734D02*
X18968509Y-13920734D01*
X18968509Y-13920734D02*
X18987557Y-13930258D01*
X18987557Y-13930258D02*
X18997080Y-13939781D01*
X18997080Y-13939781D02*
X19006604Y-13958829D01*
X19006604Y-13958829D02*
X19016128Y-13996924D01*
X19016128Y-13996924D02*
X19016128Y-14044543D01*
X19016128Y-14044543D02*
X19006604Y-14082638D01*
X19006604Y-14082638D02*
X18997080Y-14101686D01*
X18997080Y-14101686D02*
X18987557Y-14111210D01*
X18987557Y-14111210D02*
X18968509Y-14120734D01*
X18968509Y-14120734D02*
X18949461Y-14120734D01*
X18949461Y-14120734D02*
X18930414Y-14111210D01*
X18930414Y-14111210D02*
X18920890Y-14101686D01*
X18920890Y-14101686D02*
X18911366Y-14082638D01*
X18911366Y-14082638D02*
X18901842Y-14044543D01*
X18901842Y-14044543D02*
X18901842Y-13996924D01*
X18901842Y-13996924D02*
X18911366Y-13958829D01*
X18911366Y-13958829D02*
X18920890Y-13939781D01*
X18920890Y-13939781D02*
X18930414Y-13930258D01*
X18930414Y-13930258D02*
X18949461Y-13920734D01*
X19111366Y-14120734D02*
X19149461Y-14120734D01*
X19149461Y-14120734D02*
X19168509Y-14111210D01*
X19168509Y-14111210D02*
X19178033Y-14101686D01*
X19178033Y-14101686D02*
X19197080Y-14073115D01*
X19197080Y-14073115D02*
X19206604Y-14035019D01*
X19206604Y-14035019D02*
X19206604Y-13958829D01*
X19206604Y-13958829D02*
X19197080Y-13939781D01*
X19197080Y-13939781D02*
X19187557Y-13930258D01*
X19187557Y-13930258D02*
X19168509Y-13920734D01*
X19168509Y-13920734D02*
X19130414Y-13920734D01*
X19130414Y-13920734D02*
X19111366Y-13930258D01*
X19111366Y-13930258D02*
X19101842Y-13939781D01*
X19101842Y-13939781D02*
X19092319Y-13958829D01*
X19092319Y-13958829D02*
X19092319Y-14006448D01*
X19092319Y-14006448D02*
X19101842Y-14025496D01*
X19101842Y-14025496D02*
X19111366Y-14035019D01*
X19111366Y-14035019D02*
X19130414Y-14044543D01*
X19130414Y-14044543D02*
X19168509Y-14044543D01*
X19168509Y-14044543D02*
X19187557Y-14035019D01*
X19187557Y-14035019D02*
X19197080Y-14025496D01*
X19197080Y-14025496D02*
X19206604Y-14006448D01*
X19282795Y-13939781D02*
X19292319Y-13930258D01*
X19292319Y-13930258D02*
X19311366Y-13920734D01*
X19311366Y-13920734D02*
X19358985Y-13920734D01*
X19358985Y-13920734D02*
X19378033Y-13930258D01*
X19378033Y-13930258D02*
X19387557Y-13939781D01*
X19387557Y-13939781D02*
X19397080Y-13958829D01*
X19397080Y-13958829D02*
X19397080Y-13977877D01*
X19397080Y-13977877D02*
X19387557Y-14006448D01*
X19387557Y-14006448D02*
X19273271Y-14120734D01*
X19273271Y-14120734D02*
X19397080Y-14120734D01*
X19482795Y-14120734D02*
X19482795Y-13987400D01*
X19482795Y-14006448D02*
X19492319Y-13996924D01*
X19492319Y-13996924D02*
X19511366Y-13987400D01*
X19511366Y-13987400D02*
X19539938Y-13987400D01*
X19539938Y-13987400D02*
X19558985Y-13996924D01*
X19558985Y-13996924D02*
X19568509Y-14015972D01*
X19568509Y-14015972D02*
X19568509Y-14120734D01*
X19568509Y-14015972D02*
X19578033Y-13996924D01*
X19578033Y-13996924D02*
X19597080Y-13987400D01*
X19597080Y-13987400D02*
X19625652Y-13987400D01*
X19625652Y-13987400D02*
X19644700Y-13996924D01*
X19644700Y-13996924D02*
X19654223Y-14015972D01*
X19654223Y-14015972D02*
X19654223Y-14120734D01*
X19749461Y-14120734D02*
X19749461Y-13987400D01*
X19749461Y-14006448D02*
X19758985Y-13996924D01*
X19758985Y-13996924D02*
X19778033Y-13987400D01*
X19778033Y-13987400D02*
X19806604Y-13987400D01*
X19806604Y-13987400D02*
X19825652Y-13996924D01*
X19825652Y-13996924D02*
X19835176Y-14015972D01*
X19835176Y-14015972D02*
X19835176Y-14120734D01*
X19835176Y-14015972D02*
X19844700Y-13996924D01*
X19844700Y-13996924D02*
X19863747Y-13987400D01*
X19863747Y-13987400D02*
X19892319Y-13987400D01*
X19892319Y-13987400D02*
X19911366Y-13996924D01*
X19911366Y-13996924D02*
X19920890Y-14015972D01*
X19920890Y-14015972D02*
X19920890Y-14120734D01*
X20311366Y-13911210D02*
X20139938Y-14168353D01*
X20568509Y-13920734D02*
X20587557Y-13920734D01*
X20587557Y-13920734D02*
X20606604Y-13930258D01*
X20606604Y-13930258D02*
X20616128Y-13939781D01*
X20616128Y-13939781D02*
X20625652Y-13958829D01*
X20625652Y-13958829D02*
X20635176Y-13996924D01*
X20635176Y-13996924D02*
X20635176Y-14044543D01*
X20635176Y-14044543D02*
X20625652Y-14082638D01*
X20625652Y-14082638D02*
X20616128Y-14101686D01*
X20616128Y-14101686D02*
X20606604Y-14111210D01*
X20606604Y-14111210D02*
X20587557Y-14120734D01*
X20587557Y-14120734D02*
X20568509Y-14120734D01*
X20568509Y-14120734D02*
X20549462Y-14111210D01*
X20549462Y-14111210D02*
X20539938Y-14101686D01*
X20539938Y-14101686D02*
X20530414Y-14082638D01*
X20530414Y-14082638D02*
X20520890Y-14044543D01*
X20520890Y-14044543D02*
X20520890Y-13996924D01*
X20520890Y-13996924D02*
X20530414Y-13958829D01*
X20530414Y-13958829D02*
X20539938Y-13939781D01*
X20539938Y-13939781D02*
X20549462Y-13930258D01*
X20549462Y-13930258D02*
X20568509Y-13920734D01*
X20720890Y-14101686D02*
X20730414Y-14111210D01*
X20730414Y-14111210D02*
X20720890Y-14120734D01*
X20720890Y-14120734D02*
X20711366Y-14111210D01*
X20711366Y-14111210D02*
X20720890Y-14101686D01*
X20720890Y-14101686D02*
X20720890Y-14120734D01*
X20854223Y-13920734D02*
X20873271Y-13920734D01*
X20873271Y-13920734D02*
X20892319Y-13930258D01*
X20892319Y-13930258D02*
X20901843Y-13939781D01*
X20901843Y-13939781D02*
X20911366Y-13958829D01*
X20911366Y-13958829D02*
X20920890Y-13996924D01*
X20920890Y-13996924D02*
X20920890Y-14044543D01*
X20920890Y-14044543D02*
X20911366Y-14082638D01*
X20911366Y-14082638D02*
X20901843Y-14101686D01*
X20901843Y-14101686D02*
X20892319Y-14111210D01*
X20892319Y-14111210D02*
X20873271Y-14120734D01*
X20873271Y-14120734D02*
X20854223Y-14120734D01*
X20854223Y-14120734D02*
X20835176Y-14111210D01*
X20835176Y-14111210D02*
X20825652Y-14101686D01*
X20825652Y-14101686D02*
X20816128Y-14082638D01*
X20816128Y-14082638D02*
X20806604Y-14044543D01*
X20806604Y-14044543D02*
X20806604Y-13996924D01*
X20806604Y-13996924D02*
X20816128Y-13958829D01*
X20816128Y-13958829D02*
X20825652Y-13939781D01*
X20825652Y-13939781D02*
X20835176Y-13930258D01*
X20835176Y-13930258D02*
X20854223Y-13920734D01*
X21092319Y-13987400D02*
X21092319Y-14120734D01*
X21044700Y-13911210D02*
X20997081Y-14054067D01*
X20997081Y-14054067D02*
X21120890Y-14054067D01*
X21178033Y-13920734D02*
X21301843Y-13920734D01*
X21301843Y-13920734D02*
X21235176Y-13996924D01*
X21235176Y-13996924D02*
X21263747Y-13996924D01*
X21263747Y-13996924D02*
X21282795Y-14006448D01*
X21282795Y-14006448D02*
X21292319Y-14015972D01*
X21292319Y-14015972D02*
X21301843Y-14035019D01*
X21301843Y-14035019D02*
X21301843Y-14082638D01*
X21301843Y-14082638D02*
X21292319Y-14101686D01*
X21292319Y-14101686D02*
X21282795Y-14111210D01*
X21282795Y-14111210D02*
X21263747Y-14120734D01*
X21263747Y-14120734D02*
X21206604Y-14120734D01*
X21206604Y-14120734D02*
X21187557Y-14111210D01*
X21187557Y-14111210D02*
X21178033Y-14101686D01*
X21425652Y-13920734D02*
X21444700Y-13920734D01*
X21444700Y-13920734D02*
X21463747Y-13930258D01*
X21463747Y-13930258D02*
X21473271Y-13939781D01*
X21473271Y-13939781D02*
X21482795Y-13958829D01*
X21482795Y-13958829D02*
X21492319Y-13996924D01*
X21492319Y-13996924D02*
X21492319Y-14044543D01*
X21492319Y-14044543D02*
X21482795Y-14082638D01*
X21482795Y-14082638D02*
X21473271Y-14101686D01*
X21473271Y-14101686D02*
X21463747Y-14111210D01*
X21463747Y-14111210D02*
X21444700Y-14120734D01*
X21444700Y-14120734D02*
X21425652Y-14120734D01*
X21425652Y-14120734D02*
X21406604Y-14111210D01*
X21406604Y-14111210D02*
X21397081Y-14101686D01*
X21397081Y-14101686D02*
X21387557Y-14082638D01*
X21387557Y-14082638D02*
X21378033Y-14044543D01*
X21378033Y-14044543D02*
X21378033Y-13996924D01*
X21378033Y-13996924D02*
X21387557Y-13958829D01*
X21387557Y-13958829D02*
X21397081Y-13939781D01*
X21397081Y-13939781D02*
X21406604Y-13930258D01*
X21406604Y-13930258D02*
X21425652Y-13920734D01*
X21568509Y-13920734D02*
X21568509Y-13958829D01*
X21644700Y-13920734D02*
X21644700Y-13958829D01*
X21939938Y-14196924D02*
X21930414Y-14187400D01*
X21930414Y-14187400D02*
X21911366Y-14158829D01*
X21911366Y-14158829D02*
X21901843Y-14139781D01*
X21901843Y-14139781D02*
X21892319Y-14111210D01*
X21892319Y-14111210D02*
X21882795Y-14063591D01*
X21882795Y-14063591D02*
X21882795Y-14025496D01*
X21882795Y-14025496D02*
X21892319Y-13977877D01*
X21892319Y-13977877D02*
X21901843Y-13949305D01*
X21901843Y-13949305D02*
X21911366Y-13930258D01*
X21911366Y-13930258D02*
X21930414Y-13901686D01*
X21930414Y-13901686D02*
X21939938Y-13892162D01*
X22006605Y-13939781D02*
X22016128Y-13930258D01*
X22016128Y-13930258D02*
X22035176Y-13920734D01*
X22035176Y-13920734D02*
X22082795Y-13920734D01*
X22082795Y-13920734D02*
X22101843Y-13930258D01*
X22101843Y-13930258D02*
X22111366Y-13939781D01*
X22111366Y-13939781D02*
X22120890Y-13958829D01*
X22120890Y-13958829D02*
X22120890Y-13977877D01*
X22120890Y-13977877D02*
X22111366Y-14006448D01*
X22111366Y-14006448D02*
X21997081Y-14120734D01*
X21997081Y-14120734D02*
X22120890Y-14120734D01*
X22292319Y-13987400D02*
X22292319Y-14120734D01*
X22244700Y-13911210D02*
X22197081Y-14054067D01*
X22197081Y-14054067D02*
X22320890Y-14054067D01*
X22549462Y-14120734D02*
X22549462Y-13920734D01*
X22635176Y-14120734D02*
X22635176Y-14015972D01*
X22635176Y-14015972D02*
X22625652Y-13996924D01*
X22625652Y-13996924D02*
X22606605Y-13987400D01*
X22606605Y-13987400D02*
X22578033Y-13987400D01*
X22578033Y-13987400D02*
X22558985Y-13996924D01*
X22558985Y-13996924D02*
X22549462Y-14006448D01*
X22758985Y-14120734D02*
X22739938Y-14111210D01*
X22739938Y-14111210D02*
X22730414Y-14101686D01*
X22730414Y-14101686D02*
X22720890Y-14082638D01*
X22720890Y-14082638D02*
X22720890Y-14025496D01*
X22720890Y-14025496D02*
X22730414Y-14006448D01*
X22730414Y-14006448D02*
X22739938Y-13996924D01*
X22739938Y-13996924D02*
X22758985Y-13987400D01*
X22758985Y-13987400D02*
X22787557Y-13987400D01*
X22787557Y-13987400D02*
X22806605Y-13996924D01*
X22806605Y-13996924D02*
X22816128Y-14006448D01*
X22816128Y-14006448D02*
X22825652Y-14025496D01*
X22825652Y-14025496D02*
X22825652Y-14082638D01*
X22825652Y-14082638D02*
X22816128Y-14101686D01*
X22816128Y-14101686D02*
X22806605Y-14111210D01*
X22806605Y-14111210D02*
X22787557Y-14120734D01*
X22787557Y-14120734D02*
X22758985Y-14120734D01*
X22939938Y-14120734D02*
X22920890Y-14111210D01*
X22920890Y-14111210D02*
X22911366Y-14092162D01*
X22911366Y-14092162D02*
X22911366Y-13920734D01*
X23092319Y-14111210D02*
X23073271Y-14120734D01*
X23073271Y-14120734D02*
X23035176Y-14120734D01*
X23035176Y-14120734D02*
X23016128Y-14111210D01*
X23016128Y-14111210D02*
X23006605Y-14092162D01*
X23006605Y-14092162D02*
X23006605Y-14015972D01*
X23006605Y-14015972D02*
X23016128Y-13996924D01*
X23016128Y-13996924D02*
X23035176Y-13987400D01*
X23035176Y-13987400D02*
X23073271Y-13987400D01*
X23073271Y-13987400D02*
X23092319Y-13996924D01*
X23092319Y-13996924D02*
X23101843Y-14015972D01*
X23101843Y-14015972D02*
X23101843Y-14035019D01*
X23101843Y-14035019D02*
X23006605Y-14054067D01*
X23178033Y-14111210D02*
X23197081Y-14120734D01*
X23197081Y-14120734D02*
X23235176Y-14120734D01*
X23235176Y-14120734D02*
X23254224Y-14111210D01*
X23254224Y-14111210D02*
X23263747Y-14092162D01*
X23263747Y-14092162D02*
X23263747Y-14082638D01*
X23263747Y-14082638D02*
X23254224Y-14063591D01*
X23254224Y-14063591D02*
X23235176Y-14054067D01*
X23235176Y-14054067D02*
X23206605Y-14054067D01*
X23206605Y-14054067D02*
X23187557Y-14044543D01*
X23187557Y-14044543D02*
X23178033Y-14025496D01*
X23178033Y-14025496D02*
X23178033Y-14015972D01*
X23178033Y-14015972D02*
X23187557Y-13996924D01*
X23187557Y-13996924D02*
X23206605Y-13987400D01*
X23206605Y-13987400D02*
X23235176Y-13987400D01*
X23235176Y-13987400D02*
X23254224Y-13996924D01*
X23330414Y-14196924D02*
X23339938Y-14187400D01*
X23339938Y-14187400D02*
X23358986Y-14158829D01*
X23358986Y-14158829D02*
X23368509Y-14139781D01*
X23368509Y-14139781D02*
X23378033Y-14111210D01*
X23378033Y-14111210D02*
X23387557Y-14063591D01*
X23387557Y-14063591D02*
X23387557Y-14025496D01*
X23387557Y-14025496D02*
X23378033Y-13977877D01*
X23378033Y-13977877D02*
X23368509Y-13949305D01*
X23368509Y-13949305D02*
X23358986Y-13930258D01*
X23358986Y-13930258D02*
X23339938Y-13901686D01*
X23339938Y-13901686D02*
X23330414Y-13892162D01*
D14*
X18342909Y-14346283D02*
X18342909Y-14240216D01*
X18236842Y-14240216D01*
X18236842Y-14346283D01*
X18342909Y-14346283D01*
D11*
X18730414Y-14384734D02*
X18616128Y-14384734D01*
X18673271Y-14384734D02*
X18673271Y-14184734D01*
X18673271Y-14184734D02*
X18654223Y-14213305D01*
X18654223Y-14213305D02*
X18635176Y-14232353D01*
X18635176Y-14232353D02*
X18616128Y-14241877D01*
X18816128Y-14365686D02*
X18825652Y-14375210D01*
X18825652Y-14375210D02*
X18816128Y-14384734D01*
X18816128Y-14384734D02*
X18806604Y-14375210D01*
X18806604Y-14375210D02*
X18816128Y-14365686D01*
X18816128Y-14365686D02*
X18816128Y-14384734D01*
X19006604Y-14184734D02*
X18911366Y-14184734D01*
X18911366Y-14184734D02*
X18901842Y-14279972D01*
X18901842Y-14279972D02*
X18911366Y-14270448D01*
X18911366Y-14270448D02*
X18930414Y-14260924D01*
X18930414Y-14260924D02*
X18978033Y-14260924D01*
X18978033Y-14260924D02*
X18997080Y-14270448D01*
X18997080Y-14270448D02*
X19006604Y-14279972D01*
X19006604Y-14279972D02*
X19016128Y-14299019D01*
X19016128Y-14299019D02*
X19016128Y-14346638D01*
X19016128Y-14346638D02*
X19006604Y-14365686D01*
X19006604Y-14365686D02*
X18997080Y-14375210D01*
X18997080Y-14375210D02*
X18978033Y-14384734D01*
X18978033Y-14384734D02*
X18930414Y-14384734D01*
X18930414Y-14384734D02*
X18911366Y-14375210D01*
X18911366Y-14375210D02*
X18901842Y-14365686D01*
X19139938Y-14184734D02*
X19158985Y-14184734D01*
X19158985Y-14184734D02*
X19178033Y-14194258D01*
X19178033Y-14194258D02*
X19187557Y-14203781D01*
X19187557Y-14203781D02*
X19197080Y-14222829D01*
X19197080Y-14222829D02*
X19206604Y-14260924D01*
X19206604Y-14260924D02*
X19206604Y-14308543D01*
X19206604Y-14308543D02*
X19197080Y-14346638D01*
X19197080Y-14346638D02*
X19187557Y-14365686D01*
X19187557Y-14365686D02*
X19178033Y-14375210D01*
X19178033Y-14375210D02*
X19158985Y-14384734D01*
X19158985Y-14384734D02*
X19139938Y-14384734D01*
X19139938Y-14384734D02*
X19120890Y-14375210D01*
X19120890Y-14375210D02*
X19111366Y-14365686D01*
X19111366Y-14365686D02*
X19101842Y-14346638D01*
X19101842Y-14346638D02*
X19092319Y-14308543D01*
X19092319Y-14308543D02*
X19092319Y-14260924D01*
X19092319Y-14260924D02*
X19101842Y-14222829D01*
X19101842Y-14222829D02*
X19111366Y-14203781D01*
X19111366Y-14203781D02*
X19120890Y-14194258D01*
X19120890Y-14194258D02*
X19139938Y-14184734D01*
X19330414Y-14184734D02*
X19349461Y-14184734D01*
X19349461Y-14184734D02*
X19368509Y-14194258D01*
X19368509Y-14194258D02*
X19378033Y-14203781D01*
X19378033Y-14203781D02*
X19387557Y-14222829D01*
X19387557Y-14222829D02*
X19397080Y-14260924D01*
X19397080Y-14260924D02*
X19397080Y-14308543D01*
X19397080Y-14308543D02*
X19387557Y-14346638D01*
X19387557Y-14346638D02*
X19378033Y-14365686D01*
X19378033Y-14365686D02*
X19368509Y-14375210D01*
X19368509Y-14375210D02*
X19349461Y-14384734D01*
X19349461Y-14384734D02*
X19330414Y-14384734D01*
X19330414Y-14384734D02*
X19311366Y-14375210D01*
X19311366Y-14375210D02*
X19301842Y-14365686D01*
X19301842Y-14365686D02*
X19292319Y-14346638D01*
X19292319Y-14346638D02*
X19282795Y-14308543D01*
X19282795Y-14308543D02*
X19282795Y-14260924D01*
X19282795Y-14260924D02*
X19292319Y-14222829D01*
X19292319Y-14222829D02*
X19301842Y-14203781D01*
X19301842Y-14203781D02*
X19311366Y-14194258D01*
X19311366Y-14194258D02*
X19330414Y-14184734D01*
X19482795Y-14384734D02*
X19482795Y-14251400D01*
X19482795Y-14270448D02*
X19492319Y-14260924D01*
X19492319Y-14260924D02*
X19511366Y-14251400D01*
X19511366Y-14251400D02*
X19539938Y-14251400D01*
X19539938Y-14251400D02*
X19558985Y-14260924D01*
X19558985Y-14260924D02*
X19568509Y-14279972D01*
X19568509Y-14279972D02*
X19568509Y-14384734D01*
X19568509Y-14279972D02*
X19578033Y-14260924D01*
X19578033Y-14260924D02*
X19597080Y-14251400D01*
X19597080Y-14251400D02*
X19625652Y-14251400D01*
X19625652Y-14251400D02*
X19644700Y-14260924D01*
X19644700Y-14260924D02*
X19654223Y-14279972D01*
X19654223Y-14279972D02*
X19654223Y-14384734D01*
X19749461Y-14384734D02*
X19749461Y-14251400D01*
X19749461Y-14270448D02*
X19758985Y-14260924D01*
X19758985Y-14260924D02*
X19778033Y-14251400D01*
X19778033Y-14251400D02*
X19806604Y-14251400D01*
X19806604Y-14251400D02*
X19825652Y-14260924D01*
X19825652Y-14260924D02*
X19835176Y-14279972D01*
X19835176Y-14279972D02*
X19835176Y-14384734D01*
X19835176Y-14279972D02*
X19844700Y-14260924D01*
X19844700Y-14260924D02*
X19863747Y-14251400D01*
X19863747Y-14251400D02*
X19892319Y-14251400D01*
X19892319Y-14251400D02*
X19911366Y-14260924D01*
X19911366Y-14260924D02*
X19920890Y-14279972D01*
X19920890Y-14279972D02*
X19920890Y-14384734D01*
X20311366Y-14175210D02*
X20139938Y-14432353D01*
X20568509Y-14184734D02*
X20587557Y-14184734D01*
X20587557Y-14184734D02*
X20606604Y-14194258D01*
X20606604Y-14194258D02*
X20616128Y-14203781D01*
X20616128Y-14203781D02*
X20625652Y-14222829D01*
X20625652Y-14222829D02*
X20635176Y-14260924D01*
X20635176Y-14260924D02*
X20635176Y-14308543D01*
X20635176Y-14308543D02*
X20625652Y-14346638D01*
X20625652Y-14346638D02*
X20616128Y-14365686D01*
X20616128Y-14365686D02*
X20606604Y-14375210D01*
X20606604Y-14375210D02*
X20587557Y-14384734D01*
X20587557Y-14384734D02*
X20568509Y-14384734D01*
X20568509Y-14384734D02*
X20549462Y-14375210D01*
X20549462Y-14375210D02*
X20539938Y-14365686D01*
X20539938Y-14365686D02*
X20530414Y-14346638D01*
X20530414Y-14346638D02*
X20520890Y-14308543D01*
X20520890Y-14308543D02*
X20520890Y-14260924D01*
X20520890Y-14260924D02*
X20530414Y-14222829D01*
X20530414Y-14222829D02*
X20539938Y-14203781D01*
X20539938Y-14203781D02*
X20549462Y-14194258D01*
X20549462Y-14194258D02*
X20568509Y-14184734D01*
X20720890Y-14365686D02*
X20730414Y-14375210D01*
X20730414Y-14375210D02*
X20720890Y-14384734D01*
X20720890Y-14384734D02*
X20711366Y-14375210D01*
X20711366Y-14375210D02*
X20720890Y-14365686D01*
X20720890Y-14365686D02*
X20720890Y-14384734D01*
X20854223Y-14184734D02*
X20873271Y-14184734D01*
X20873271Y-14184734D02*
X20892319Y-14194258D01*
X20892319Y-14194258D02*
X20901843Y-14203781D01*
X20901843Y-14203781D02*
X20911366Y-14222829D01*
X20911366Y-14222829D02*
X20920890Y-14260924D01*
X20920890Y-14260924D02*
X20920890Y-14308543D01*
X20920890Y-14308543D02*
X20911366Y-14346638D01*
X20911366Y-14346638D02*
X20901843Y-14365686D01*
X20901843Y-14365686D02*
X20892319Y-14375210D01*
X20892319Y-14375210D02*
X20873271Y-14384734D01*
X20873271Y-14384734D02*
X20854223Y-14384734D01*
X20854223Y-14384734D02*
X20835176Y-14375210D01*
X20835176Y-14375210D02*
X20825652Y-14365686D01*
X20825652Y-14365686D02*
X20816128Y-14346638D01*
X20816128Y-14346638D02*
X20806604Y-14308543D01*
X20806604Y-14308543D02*
X20806604Y-14260924D01*
X20806604Y-14260924D02*
X20816128Y-14222829D01*
X20816128Y-14222829D02*
X20825652Y-14203781D01*
X20825652Y-14203781D02*
X20835176Y-14194258D01*
X20835176Y-14194258D02*
X20854223Y-14184734D01*
X21101843Y-14184734D02*
X21006604Y-14184734D01*
X21006604Y-14184734D02*
X20997081Y-14279972D01*
X20997081Y-14279972D02*
X21006604Y-14270448D01*
X21006604Y-14270448D02*
X21025652Y-14260924D01*
X21025652Y-14260924D02*
X21073271Y-14260924D01*
X21073271Y-14260924D02*
X21092319Y-14270448D01*
X21092319Y-14270448D02*
X21101843Y-14279972D01*
X21101843Y-14279972D02*
X21111366Y-14299019D01*
X21111366Y-14299019D02*
X21111366Y-14346638D01*
X21111366Y-14346638D02*
X21101843Y-14365686D01*
X21101843Y-14365686D02*
X21092319Y-14375210D01*
X21092319Y-14375210D02*
X21073271Y-14384734D01*
X21073271Y-14384734D02*
X21025652Y-14384734D01*
X21025652Y-14384734D02*
X21006604Y-14375210D01*
X21006604Y-14375210D02*
X20997081Y-14365686D01*
X21206604Y-14384734D02*
X21244700Y-14384734D01*
X21244700Y-14384734D02*
X21263747Y-14375210D01*
X21263747Y-14375210D02*
X21273271Y-14365686D01*
X21273271Y-14365686D02*
X21292319Y-14337115D01*
X21292319Y-14337115D02*
X21301843Y-14299019D01*
X21301843Y-14299019D02*
X21301843Y-14222829D01*
X21301843Y-14222829D02*
X21292319Y-14203781D01*
X21292319Y-14203781D02*
X21282795Y-14194258D01*
X21282795Y-14194258D02*
X21263747Y-14184734D01*
X21263747Y-14184734D02*
X21225652Y-14184734D01*
X21225652Y-14184734D02*
X21206604Y-14194258D01*
X21206604Y-14194258D02*
X21197081Y-14203781D01*
X21197081Y-14203781D02*
X21187557Y-14222829D01*
X21187557Y-14222829D02*
X21187557Y-14270448D01*
X21187557Y-14270448D02*
X21197081Y-14289496D01*
X21197081Y-14289496D02*
X21206604Y-14299019D01*
X21206604Y-14299019D02*
X21225652Y-14308543D01*
X21225652Y-14308543D02*
X21263747Y-14308543D01*
X21263747Y-14308543D02*
X21282795Y-14299019D01*
X21282795Y-14299019D02*
X21292319Y-14289496D01*
X21292319Y-14289496D02*
X21301843Y-14270448D01*
X21492319Y-14384734D02*
X21378033Y-14384734D01*
X21435176Y-14384734D02*
X21435176Y-14184734D01*
X21435176Y-14184734D02*
X21416128Y-14213305D01*
X21416128Y-14213305D02*
X21397081Y-14232353D01*
X21397081Y-14232353D02*
X21378033Y-14241877D01*
X21568509Y-14184734D02*
X21568509Y-14222829D01*
X21644700Y-14184734D02*
X21644700Y-14222829D01*
X21939938Y-14460924D02*
X21930414Y-14451400D01*
X21930414Y-14451400D02*
X21911366Y-14422829D01*
X21911366Y-14422829D02*
X21901843Y-14403781D01*
X21901843Y-14403781D02*
X21892319Y-14375210D01*
X21892319Y-14375210D02*
X21882795Y-14327591D01*
X21882795Y-14327591D02*
X21882795Y-14289496D01*
X21882795Y-14289496D02*
X21892319Y-14241877D01*
X21892319Y-14241877D02*
X21901843Y-14213305D01*
X21901843Y-14213305D02*
X21911366Y-14194258D01*
X21911366Y-14194258D02*
X21930414Y-14165686D01*
X21930414Y-14165686D02*
X21939938Y-14156162D01*
X21997081Y-14184734D02*
X22120890Y-14184734D01*
X22120890Y-14184734D02*
X22054224Y-14260924D01*
X22054224Y-14260924D02*
X22082795Y-14260924D01*
X22082795Y-14260924D02*
X22101843Y-14270448D01*
X22101843Y-14270448D02*
X22111366Y-14279972D01*
X22111366Y-14279972D02*
X22120890Y-14299019D01*
X22120890Y-14299019D02*
X22120890Y-14346638D01*
X22120890Y-14346638D02*
X22111366Y-14365686D01*
X22111366Y-14365686D02*
X22101843Y-14375210D01*
X22101843Y-14375210D02*
X22082795Y-14384734D01*
X22082795Y-14384734D02*
X22025652Y-14384734D01*
X22025652Y-14384734D02*
X22006605Y-14375210D01*
X22006605Y-14375210D02*
X21997081Y-14365686D01*
X22292319Y-14251400D02*
X22292319Y-14384734D01*
X22244700Y-14175210D02*
X22197081Y-14318067D01*
X22197081Y-14318067D02*
X22320890Y-14318067D01*
X22549462Y-14384734D02*
X22549462Y-14184734D01*
X22635176Y-14384734D02*
X22635176Y-14279972D01*
X22635176Y-14279972D02*
X22625652Y-14260924D01*
X22625652Y-14260924D02*
X22606605Y-14251400D01*
X22606605Y-14251400D02*
X22578033Y-14251400D01*
X22578033Y-14251400D02*
X22558985Y-14260924D01*
X22558985Y-14260924D02*
X22549462Y-14270448D01*
X22758985Y-14384734D02*
X22739938Y-14375210D01*
X22739938Y-14375210D02*
X22730414Y-14365686D01*
X22730414Y-14365686D02*
X22720890Y-14346638D01*
X22720890Y-14346638D02*
X22720890Y-14289496D01*
X22720890Y-14289496D02*
X22730414Y-14270448D01*
X22730414Y-14270448D02*
X22739938Y-14260924D01*
X22739938Y-14260924D02*
X22758985Y-14251400D01*
X22758985Y-14251400D02*
X22787557Y-14251400D01*
X22787557Y-14251400D02*
X22806605Y-14260924D01*
X22806605Y-14260924D02*
X22816128Y-14270448D01*
X22816128Y-14270448D02*
X22825652Y-14289496D01*
X22825652Y-14289496D02*
X22825652Y-14346638D01*
X22825652Y-14346638D02*
X22816128Y-14365686D01*
X22816128Y-14365686D02*
X22806605Y-14375210D01*
X22806605Y-14375210D02*
X22787557Y-14384734D01*
X22787557Y-14384734D02*
X22758985Y-14384734D01*
X22939938Y-14384734D02*
X22920890Y-14375210D01*
X22920890Y-14375210D02*
X22911366Y-14356162D01*
X22911366Y-14356162D02*
X22911366Y-14184734D01*
X23092319Y-14375210D02*
X23073271Y-14384734D01*
X23073271Y-14384734D02*
X23035176Y-14384734D01*
X23035176Y-14384734D02*
X23016128Y-14375210D01*
X23016128Y-14375210D02*
X23006605Y-14356162D01*
X23006605Y-14356162D02*
X23006605Y-14279972D01*
X23006605Y-14279972D02*
X23016128Y-14260924D01*
X23016128Y-14260924D02*
X23035176Y-14251400D01*
X23035176Y-14251400D02*
X23073271Y-14251400D01*
X23073271Y-14251400D02*
X23092319Y-14260924D01*
X23092319Y-14260924D02*
X23101843Y-14279972D01*
X23101843Y-14279972D02*
X23101843Y-14299019D01*
X23101843Y-14299019D02*
X23006605Y-14318067D01*
X23178033Y-14375210D02*
X23197081Y-14384734D01*
X23197081Y-14384734D02*
X23235176Y-14384734D01*
X23235176Y-14384734D02*
X23254224Y-14375210D01*
X23254224Y-14375210D02*
X23263747Y-14356162D01*
X23263747Y-14356162D02*
X23263747Y-14346638D01*
X23263747Y-14346638D02*
X23254224Y-14327591D01*
X23254224Y-14327591D02*
X23235176Y-14318067D01*
X23235176Y-14318067D02*
X23206605Y-14318067D01*
X23206605Y-14318067D02*
X23187557Y-14308543D01*
X23187557Y-14308543D02*
X23178033Y-14289496D01*
X23178033Y-14289496D02*
X23178033Y-14279972D01*
X23178033Y-14279972D02*
X23187557Y-14260924D01*
X23187557Y-14260924D02*
X23206605Y-14251400D01*
X23206605Y-14251400D02*
X23235176Y-14251400D01*
X23235176Y-14251400D02*
X23254224Y-14260924D01*
X23330414Y-14460924D02*
X23339938Y-14451400D01*
X23339938Y-14451400D02*
X23358986Y-14422829D01*
X23358986Y-14422829D02*
X23368509Y-14403781D01*
X23368509Y-14403781D02*
X23378033Y-14375210D01*
X23378033Y-14375210D02*
X23387557Y-14327591D01*
X23387557Y-14327591D02*
X23387557Y-14289496D01*
X23387557Y-14289496D02*
X23378033Y-14241877D01*
X23378033Y-14241877D02*
X23368509Y-14213305D01*
X23368509Y-14213305D02*
X23358986Y-14194258D01*
X23358986Y-14194258D02*
X23339938Y-14165686D01*
X23339938Y-14165686D02*
X23330414Y-14156162D01*
M02*
