M48
; DRILL file {KiCad 8.0.4} date 2026-08-24T12:15:21-0500
; FORMAT={-:-/ absolute / inch / decimal}
; #@! TF.CreationDate,2026-08-24T12:15:21-05:00
; #@! TF.GenerationSoftware,Kicad,Pcbnew,8.0.4
; #@! TF.FileFunction,Plated,1,2,PTH
FMAT,2
INCH
; #@! TA.AperFunction,Plated,PTH,ComponentDrill
T1C0.0315
; #@! TA.AperFunction,Plated,PTH,ComponentDrill
T2C0.0394
; #@! TA.AperFunction,Plated,PTH,ComponentDrill
T3C0.0430
; #@! TA.AperFunction,Plated,PTH,ComponentDrill
T4C0.0591
%
G90
G05
T1
X8.075Y-1.3
X8.075Y-1.6
X8.075Y-2.0531
X8.075Y-2.3531
X8.075Y-2.8125
X8.075Y-3.1125
X8.075Y-3.5625
X8.075Y-3.8625
X8.7781Y-4.3406
X8.7781Y-4.6406
X8.825Y-1.3
X8.825Y-1.6
X8.825Y-2.0625
X8.825Y-2.3625
X8.825Y-2.8125
X8.825Y-3.1125
X8.825Y-3.5625
X8.825Y-3.8625
X9.5281Y-2.0531
X9.5281Y-2.3531
X9.5281Y-3.5531
X9.5281Y-3.8531
X9.5281Y-4.3125
X9.5281Y-4.6125
X9.575Y-1.3
X9.575Y-1.6
X9.575Y-2.6156
X9.575Y-2.9156
X10.325Y-1.3
X10.325Y-1.6
X10.325Y-2.5219
X10.325Y-2.8219
X10.325Y-4.0312
X10.325Y-4.3312
T2
X9.2469Y-0.9375
X9.7156Y-0.9375
X10.1844Y-0.9375
T3
X10.5594Y-0.9281
X10.5594Y-1.0281
X10.5594Y-1.1281
X10.5594Y-1.2281
X10.5594Y-1.3281
X10.5594Y-1.4281
X10.5594Y-1.5281
X10.5594Y-1.6281
X10.5594Y-1.7281
X10.5594Y-1.8281
X10.5594Y-1.9281
X10.5594Y-2.0281
X11.1594Y-0.9281
X11.1594Y-1.0281
X11.1594Y-1.1281
X11.1594Y-1.2281
X11.1594Y-1.3281
X11.1594Y-1.4281
X11.1594Y-1.5281
X11.1594Y-1.6281
X11.1594Y-1.7281
X11.1594Y-1.8281
X11.1594Y-1.9281
X11.1594Y-2.0281
T4
X7.55Y-1.4
X7.55Y-2.15
X7.55Y-2.9
X7.55Y-3.65
X7.8Y-1.3
X7.8Y-2.05
X7.8Y-2.8
X7.8Y-3.55
X7.925Y-4.4
X8.175Y-4.3
X8.3Y-1.4
X8.3Y-2.15
X8.3Y-2.9
X8.3Y-3.65
X8.55Y-1.3
X8.55Y-2.05
X8.55Y-2.8
X8.55Y-3.55
X9.05Y-1.4
X9.05Y-2.15
X9.05Y-2.9
X9.05Y-3.65
X9.05Y-4.4
X9.3Y-1.3
X9.3Y-2.05
X9.3Y-2.8
X9.3Y-3.55
X9.3Y-4.3
X9.75Y-2.525
X9.75Y-4.025
X9.8Y-1.4
X9.85Y-2.775
X9.85Y-4.275
X10.05Y-1.3
M30
