%TF.GenerationSoftware,KiCad,Pcbnew,8.0.4*%
%TF.CreationDate,2026-08-24T12:14:50-05:00*%
%TF.ProjectId,EE PROJECT,45452050-524f-44a4-9543-542e6b696361,rev?*%
%TF.SameCoordinates,Original*%
%TF.FileFunction,Drillmap*%
%TF.FilePolarity,Positive*%
%FSLAX45Y45*%
G04 Gerber Fmt 4.5, Leading zero omitted, Abs format (unit mm)*
G04 Created by KiCad (PCBNEW 8.0.4) date 2026-08-24 12:14:50*
%MOMM*%
%LPD*%
G01*
G04 APERTURE LIST*
%ADD10C,0.050000*%
%ADD11C,0.200000*%
%ADD12C,0.175000*%
%ADD13C,0.220000*%
%ADD14C,0.304800*%
%ADD15C,0.398780*%
%ADD16C,0.400000*%
G04 APERTURE END LIST*
D10*
X18367375Y-1785937D02*
X28606750Y-1785937D01*
X28606750Y-12858750D01*
X18367375Y-12858750D01*
X18367375Y-1785937D01*
D11*
D12*
X18962500Y-3722500D02*
X19137500Y-3897500D01*
X19137500Y-3722500D02*
X18962500Y-3897500D01*
X18962500Y-5627500D02*
X19137500Y-5802500D01*
X19137500Y-5627500D02*
X18962500Y-5802500D01*
X18962500Y-7532500D02*
X19137500Y-7707500D01*
X19137500Y-7532500D02*
X18962500Y-7707500D01*
X18962500Y-9437500D02*
X19137500Y-9612500D01*
X19137500Y-9437500D02*
X18962500Y-9612500D01*
X19915000Y-11342500D02*
X20090000Y-11517500D01*
X20090000Y-11342500D02*
X19915000Y-11517500D01*
X19978500Y-3722500D02*
X20153500Y-3897500D01*
X20153500Y-3722500D02*
X19978500Y-3897500D01*
X19978500Y-5627500D02*
X20153500Y-5802500D01*
X20153500Y-5627500D02*
X19978500Y-5802500D01*
X19978500Y-7532500D02*
X20153500Y-7707500D01*
X20153500Y-7532500D02*
X19978500Y-7707500D01*
X19978500Y-9437500D02*
X20153500Y-9612500D01*
X20153500Y-9437500D02*
X19978500Y-9612500D01*
X20867500Y-3722500D02*
X21042500Y-3897500D01*
X21042500Y-3722500D02*
X20867500Y-3897500D01*
X20867500Y-5627500D02*
X21042500Y-5802500D01*
X21042500Y-5627500D02*
X20867500Y-5802500D01*
X20867500Y-7532500D02*
X21042500Y-7707500D01*
X21042500Y-7532500D02*
X20867500Y-7707500D01*
X20867500Y-9437500D02*
X21042500Y-9612500D01*
X21042500Y-9437500D02*
X20867500Y-9612500D01*
X20931000Y-11342500D02*
X21106000Y-11517500D01*
X21106000Y-11342500D02*
X20931000Y-11517500D01*
X21883500Y-3722500D02*
X22058500Y-3897500D01*
X22058500Y-3722500D02*
X21883500Y-3897500D01*
X21883500Y-5627500D02*
X22058500Y-5802500D01*
X22058500Y-5627500D02*
X21883500Y-5802500D01*
X21883500Y-7532500D02*
X22058500Y-7707500D01*
X22058500Y-7532500D02*
X21883500Y-7707500D01*
X21883500Y-9437500D02*
X22058500Y-9612500D01*
X22058500Y-9437500D02*
X21883500Y-9612500D01*
X22772500Y-3722500D02*
X22947500Y-3897500D01*
X22947500Y-3722500D02*
X22772500Y-3897500D01*
X22772500Y-5627500D02*
X22947500Y-5802500D01*
X22947500Y-5627500D02*
X22772500Y-5802500D01*
X22772500Y-7532500D02*
X22947500Y-7707500D01*
X22947500Y-7532500D02*
X22772500Y-7707500D01*
X22772500Y-9437500D02*
X22947500Y-9612500D01*
X22947500Y-9437500D02*
X22772500Y-9612500D01*
X22772500Y-11342500D02*
X22947500Y-11517500D01*
X22947500Y-11342500D02*
X22772500Y-11517500D01*
X23788500Y-3722500D02*
X23963500Y-3897500D01*
X23963500Y-3722500D02*
X23788500Y-3897500D01*
X23788500Y-5627500D02*
X23963500Y-5802500D01*
X23963500Y-5627500D02*
X23788500Y-5802500D01*
X23788500Y-7532500D02*
X23963500Y-7707500D01*
X23963500Y-7532500D02*
X23788500Y-7707500D01*
X23788500Y-9437500D02*
X23963500Y-9612500D01*
X23963500Y-9437500D02*
X23788500Y-9612500D01*
X23788500Y-11342500D02*
X23963500Y-11517500D01*
X23963500Y-11342500D02*
X23788500Y-11517500D01*
X24677500Y-3722500D02*
X24852500Y-3897500D01*
X24852500Y-3722500D02*
X24677500Y-3897500D01*
X25185500Y-6072000D02*
X25360500Y-6247000D01*
X25360500Y-6072000D02*
X25185500Y-6247000D01*
X25185500Y-7088000D02*
X25360500Y-7263000D01*
X25360500Y-7088000D02*
X25185500Y-7263000D01*
X25185500Y-9882000D02*
X25360500Y-10057000D01*
X25360500Y-9882000D02*
X25185500Y-10057000D01*
X25185500Y-10898000D02*
X25360500Y-11073000D01*
X25360500Y-10898000D02*
X25185500Y-11073000D01*
X25693500Y-3722500D02*
X25868500Y-3897500D01*
X25868500Y-3722500D02*
X25693500Y-3897500D01*
D13*
X18715500Y-2024062D02*
G75*
G02*
X18495500Y-2024062I-110000J0D01*
G01*
X18495500Y-2024062D02*
G75*
G02*
X18715500Y-2024062I110000J0D01*
G01*
X18715500Y-12620625D02*
G75*
G02*
X18495500Y-12620625I-110000J0D01*
G01*
X18495500Y-12620625D02*
G75*
G02*
X18715500Y-12620625I110000J0D01*
G01*
X23120812Y-2024062D02*
G75*
G02*
X22900812Y-2024062I-110000J0D01*
G01*
X22900812Y-2024062D02*
G75*
G02*
X23120812Y-2024062I110000J0D01*
G01*
X28478625Y-5834062D02*
G75*
G02*
X28258625Y-5834062I-110000J0D01*
G01*
X28258625Y-5834062D02*
G75*
G02*
X28478625Y-5834062I110000J0D01*
G01*
X28478625Y-12620625D02*
G75*
G02*
X28258625Y-12620625I-110000J0D01*
G01*
X28258625Y-12620625D02*
G75*
G02*
X28478625Y-12620625I110000J0D01*
G01*
D14*
X19316700Y-10579100D02*
X19316700Y-10883900D01*
X19164300Y-10731500D02*
X19469100Y-10731500D01*
X21704300Y-10579100D02*
X21704300Y-10883900D01*
X21551900Y-10731500D02*
X21856700Y-10731500D01*
X24574500Y-5321300D02*
X24574500Y-5626100D01*
X24422100Y-5473700D02*
X24726900Y-5473700D01*
X24574500Y-7708900D02*
X24574500Y-8013700D01*
X24422100Y-7861300D02*
X24726900Y-7861300D01*
X24574500Y-9131300D02*
X24574500Y-9436100D01*
X24422100Y-9283700D02*
X24726900Y-9283700D01*
X24574500Y-11518900D02*
X24574500Y-11823700D01*
X24422100Y-11671300D02*
X24726900Y-11671300D01*
D15*
X19457691Y-12393491D02*
X19457691Y-12111509D01*
X19175709Y-12111509D01*
X19175709Y-12393491D01*
X19457691Y-12393491D01*
X21845291Y-12393491D02*
X21845291Y-12111509D01*
X21563309Y-12111509D01*
X21563309Y-12393491D01*
X21845291Y-12393491D01*
X26236491Y-5614691D02*
X26236491Y-5332709D01*
X25954509Y-5332709D01*
X25954509Y-5614691D01*
X26236491Y-5614691D01*
X26236491Y-8002291D02*
X26236491Y-7720309D01*
X25954509Y-7720309D01*
X25954509Y-8002291D01*
X26236491Y-8002291D01*
X26236491Y-9424691D02*
X26236491Y-9142709D01*
X25954509Y-9142709D01*
X25954509Y-9424691D01*
X26236491Y-9424691D01*
X26236491Y-11812291D02*
X26236491Y-11530309D01*
X25954509Y-11530309D01*
X25954509Y-11812291D01*
X26236491Y-11812291D01*
D16*
X19558000Y-4010000D02*
X19758000Y-3810000D01*
X19558000Y-3610000D01*
X19358000Y-3810000D01*
X19558000Y-4010000D01*
X19558000Y-5915000D02*
X19758000Y-5715000D01*
X19558000Y-5515000D01*
X19358000Y-5715000D01*
X19558000Y-5915000D01*
X19558000Y-7820000D02*
X19758000Y-7620000D01*
X19558000Y-7420000D01*
X19358000Y-7620000D01*
X19558000Y-7820000D01*
X19558000Y-9725000D02*
X19758000Y-9525000D01*
X19558000Y-9325000D01*
X19358000Y-9525000D01*
X19558000Y-9725000D01*
X20510500Y-11630000D02*
X20710500Y-11430000D01*
X20510500Y-11230000D01*
X20310500Y-11430000D01*
X20510500Y-11630000D01*
X21463000Y-4010000D02*
X21663000Y-3810000D01*
X21463000Y-3610000D01*
X21263000Y-3810000D01*
X21463000Y-4010000D01*
X21463000Y-5915000D02*
X21663000Y-5715000D01*
X21463000Y-5515000D01*
X21263000Y-5715000D01*
X21463000Y-5915000D01*
X21463000Y-7820000D02*
X21663000Y-7620000D01*
X21463000Y-7420000D01*
X21263000Y-7620000D01*
X21463000Y-7820000D01*
X21463000Y-9725000D02*
X21663000Y-9525000D01*
X21463000Y-9325000D01*
X21263000Y-9525000D01*
X21463000Y-9725000D01*
X23368000Y-4010000D02*
X23568000Y-3810000D01*
X23368000Y-3610000D01*
X23168000Y-3810000D01*
X23368000Y-4010000D01*
X23368000Y-5915000D02*
X23568000Y-5715000D01*
X23368000Y-5515000D01*
X23168000Y-5715000D01*
X23368000Y-5915000D01*
X23368000Y-7820000D02*
X23568000Y-7620000D01*
X23368000Y-7420000D01*
X23168000Y-7620000D01*
X23368000Y-7820000D01*
X23368000Y-9725000D02*
X23568000Y-9525000D01*
X23368000Y-9325000D01*
X23168000Y-9525000D01*
X23368000Y-9725000D01*
X23368000Y-11630000D02*
X23568000Y-11430000D01*
X23368000Y-11230000D01*
X23168000Y-11430000D01*
X23368000Y-11630000D01*
X25273000Y-4010000D02*
X25473000Y-3810000D01*
X25273000Y-3610000D01*
X25073000Y-3810000D01*
X25273000Y-4010000D01*
X25273000Y-6867500D02*
X25473000Y-6667500D01*
X25273000Y-6467500D01*
X25073000Y-6667500D01*
X25273000Y-6867500D01*
X25273000Y-10677500D02*
X25473000Y-10477500D01*
X25273000Y-10277500D01*
X25073000Y-10477500D01*
X25273000Y-10677500D01*
D11*
X18625652Y-13172734D02*
X18625652Y-12972734D01*
X18625652Y-12972734D02*
X18673271Y-12972734D01*
X18673271Y-12972734D02*
X18701842Y-12982258D01*
X18701842Y-12982258D02*
X18720890Y-13001305D01*
X18720890Y-13001305D02*
X18730414Y-13020353D01*
X18730414Y-13020353D02*
X18739938Y-13058448D01*
X18739938Y-13058448D02*
X18739938Y-13087019D01*
X18739938Y-13087019D02*
X18730414Y-13125115D01*
X18730414Y-13125115D02*
X18720890Y-13144162D01*
X18720890Y-13144162D02*
X18701842Y-13163210D01*
X18701842Y-13163210D02*
X18673271Y-13172734D01*
X18673271Y-13172734D02*
X18625652Y-13172734D01*
X18825652Y-13172734D02*
X18825652Y-13039400D01*
X18825652Y-13077496D02*
X18835176Y-13058448D01*
X18835176Y-13058448D02*
X18844699Y-13048924D01*
X18844699Y-13048924D02*
X18863747Y-13039400D01*
X18863747Y-13039400D02*
X18882795Y-13039400D01*
X18949461Y-13172734D02*
X18949461Y-13039400D01*
X18949461Y-12972734D02*
X18939938Y-12982258D01*
X18939938Y-12982258D02*
X18949461Y-12991781D01*
X18949461Y-12991781D02*
X18958985Y-12982258D01*
X18958985Y-12982258D02*
X18949461Y-12972734D01*
X18949461Y-12972734D02*
X18949461Y-12991781D01*
X19073271Y-13172734D02*
X19054223Y-13163210D01*
X19054223Y-13163210D02*
X19044699Y-13144162D01*
X19044699Y-13144162D02*
X19044699Y-12972734D01*
X19178033Y-13172734D02*
X19158985Y-13163210D01*
X19158985Y-13163210D02*
X19149461Y-13144162D01*
X19149461Y-13144162D02*
X19149461Y-12972734D01*
X19406604Y-13172734D02*
X19406604Y-12972734D01*
X19406604Y-12972734D02*
X19473271Y-13115591D01*
X19473271Y-13115591D02*
X19539938Y-12972734D01*
X19539938Y-12972734D02*
X19539938Y-13172734D01*
X19720890Y-13172734D02*
X19720890Y-13067972D01*
X19720890Y-13067972D02*
X19711366Y-13048924D01*
X19711366Y-13048924D02*
X19692319Y-13039400D01*
X19692319Y-13039400D02*
X19654223Y-13039400D01*
X19654223Y-13039400D02*
X19635176Y-13048924D01*
X19720890Y-13163210D02*
X19701842Y-13172734D01*
X19701842Y-13172734D02*
X19654223Y-13172734D01*
X19654223Y-13172734D02*
X19635176Y-13163210D01*
X19635176Y-13163210D02*
X19625652Y-13144162D01*
X19625652Y-13144162D02*
X19625652Y-13125115D01*
X19625652Y-13125115D02*
X19635176Y-13106067D01*
X19635176Y-13106067D02*
X19654223Y-13096543D01*
X19654223Y-13096543D02*
X19701842Y-13096543D01*
X19701842Y-13096543D02*
X19720890Y-13087019D01*
X19816128Y-13039400D02*
X19816128Y-13239400D01*
X19816128Y-13048924D02*
X19835176Y-13039400D01*
X19835176Y-13039400D02*
X19873271Y-13039400D01*
X19873271Y-13039400D02*
X19892319Y-13048924D01*
X19892319Y-13048924D02*
X19901842Y-13058448D01*
X19901842Y-13058448D02*
X19911366Y-13077496D01*
X19911366Y-13077496D02*
X19911366Y-13134638D01*
X19911366Y-13134638D02*
X19901842Y-13153686D01*
X19901842Y-13153686D02*
X19892319Y-13163210D01*
X19892319Y-13163210D02*
X19873271Y-13172734D01*
X19873271Y-13172734D02*
X19835176Y-13172734D01*
X19835176Y-13172734D02*
X19816128Y-13163210D01*
X19997080Y-13153686D02*
X20006604Y-13163210D01*
X20006604Y-13163210D02*
X19997080Y-13172734D01*
X19997080Y-13172734D02*
X19987557Y-13163210D01*
X19987557Y-13163210D02*
X19997080Y-13153686D01*
X19997080Y-13153686D02*
X19997080Y-13172734D01*
X19997080Y-13048924D02*
X20006604Y-13058448D01*
X20006604Y-13058448D02*
X19997080Y-13067972D01*
X19997080Y-13067972D02*
X19987557Y-13058448D01*
X19987557Y-13058448D02*
X19997080Y-13048924D01*
X19997080Y-13048924D02*
X19997080Y-13067972D01*
D12*
X18189875Y-13413750D02*
X18364875Y-13588750D01*
X18364875Y-13413750D02*
X18189875Y-13588750D01*
D11*
X18730414Y-13592734D02*
X18616128Y-13592734D01*
X18673271Y-13592734D02*
X18673271Y-13392734D01*
X18673271Y-13392734D02*
X18654223Y-13421305D01*
X18654223Y-13421305D02*
X18635176Y-13440353D01*
X18635176Y-13440353D02*
X18616128Y-13449877D01*
X18816128Y-13573686D02*
X18825652Y-13583210D01*
X18825652Y-13583210D02*
X18816128Y-13592734D01*
X18816128Y-13592734D02*
X18806604Y-13583210D01*
X18806604Y-13583210D02*
X18816128Y-13573686D01*
X18816128Y-13573686D02*
X18816128Y-13592734D01*
X18892319Y-13392734D02*
X19025652Y-13392734D01*
X19025652Y-13392734D02*
X18939938Y-13592734D01*
X19197080Y-13392734D02*
X19101842Y-13392734D01*
X19101842Y-13392734D02*
X19092319Y-13487972D01*
X19092319Y-13487972D02*
X19101842Y-13478448D01*
X19101842Y-13478448D02*
X19120890Y-13468924D01*
X19120890Y-13468924D02*
X19168509Y-13468924D01*
X19168509Y-13468924D02*
X19187557Y-13478448D01*
X19187557Y-13478448D02*
X19197080Y-13487972D01*
X19197080Y-13487972D02*
X19206604Y-13507019D01*
X19206604Y-13507019D02*
X19206604Y-13554638D01*
X19206604Y-13554638D02*
X19197080Y-13573686D01*
X19197080Y-13573686D02*
X19187557Y-13583210D01*
X19187557Y-13583210D02*
X19168509Y-13592734D01*
X19168509Y-13592734D02*
X19120890Y-13592734D01*
X19120890Y-13592734D02*
X19101842Y-13583210D01*
X19101842Y-13583210D02*
X19092319Y-13573686D01*
X19330414Y-13392734D02*
X19349461Y-13392734D01*
X19349461Y-13392734D02*
X19368509Y-13402258D01*
X19368509Y-13402258D02*
X19378033Y-13411781D01*
X19378033Y-13411781D02*
X19387557Y-13430829D01*
X19387557Y-13430829D02*
X19397080Y-13468924D01*
X19397080Y-13468924D02*
X19397080Y-13516543D01*
X19397080Y-13516543D02*
X19387557Y-13554638D01*
X19387557Y-13554638D02*
X19378033Y-13573686D01*
X19378033Y-13573686D02*
X19368509Y-13583210D01*
X19368509Y-13583210D02*
X19349461Y-13592734D01*
X19349461Y-13592734D02*
X19330414Y-13592734D01*
X19330414Y-13592734D02*
X19311366Y-13583210D01*
X19311366Y-13583210D02*
X19301842Y-13573686D01*
X19301842Y-13573686D02*
X19292319Y-13554638D01*
X19292319Y-13554638D02*
X19282795Y-13516543D01*
X19282795Y-13516543D02*
X19282795Y-13468924D01*
X19282795Y-13468924D02*
X19292319Y-13430829D01*
X19292319Y-13430829D02*
X19301842Y-13411781D01*
X19301842Y-13411781D02*
X19311366Y-13402258D01*
X19311366Y-13402258D02*
X19330414Y-13392734D01*
X19482795Y-13592734D02*
X19482795Y-13459400D01*
X19482795Y-13478448D02*
X19492319Y-13468924D01*
X19492319Y-13468924D02*
X19511366Y-13459400D01*
X19511366Y-13459400D02*
X19539938Y-13459400D01*
X19539938Y-13459400D02*
X19558985Y-13468924D01*
X19558985Y-13468924D02*
X19568509Y-13487972D01*
X19568509Y-13487972D02*
X19568509Y-13592734D01*
X19568509Y-13487972D02*
X19578033Y-13468924D01*
X19578033Y-13468924D02*
X19597080Y-13459400D01*
X19597080Y-13459400D02*
X19625652Y-13459400D01*
X19625652Y-13459400D02*
X19644700Y-13468924D01*
X19644700Y-13468924D02*
X19654223Y-13487972D01*
X19654223Y-13487972D02*
X19654223Y-13592734D01*
X19749461Y-13592734D02*
X19749461Y-13459400D01*
X19749461Y-13478448D02*
X19758985Y-13468924D01*
X19758985Y-13468924D02*
X19778033Y-13459400D01*
X19778033Y-13459400D02*
X19806604Y-13459400D01*
X19806604Y-13459400D02*
X19825652Y-13468924D01*
X19825652Y-13468924D02*
X19835176Y-13487972D01*
X19835176Y-13487972D02*
X19835176Y-13592734D01*
X19835176Y-13487972D02*
X19844700Y-13468924D01*
X19844700Y-13468924D02*
X19863747Y-13459400D01*
X19863747Y-13459400D02*
X19892319Y-13459400D01*
X19892319Y-13459400D02*
X19911366Y-13468924D01*
X19911366Y-13468924D02*
X19920890Y-13487972D01*
X19920890Y-13487972D02*
X19920890Y-13592734D01*
X20311366Y-13383210D02*
X20139938Y-13640353D01*
X20568509Y-13392734D02*
X20587557Y-13392734D01*
X20587557Y-13392734D02*
X20606604Y-13402258D01*
X20606604Y-13402258D02*
X20616128Y-13411781D01*
X20616128Y-13411781D02*
X20625652Y-13430829D01*
X20625652Y-13430829D02*
X20635176Y-13468924D01*
X20635176Y-13468924D02*
X20635176Y-13516543D01*
X20635176Y-13516543D02*
X20625652Y-13554638D01*
X20625652Y-13554638D02*
X20616128Y-13573686D01*
X20616128Y-13573686D02*
X20606604Y-13583210D01*
X20606604Y-13583210D02*
X20587557Y-13592734D01*
X20587557Y-13592734D02*
X20568509Y-13592734D01*
X20568509Y-13592734D02*
X20549462Y-13583210D01*
X20549462Y-13583210D02*
X20539938Y-13573686D01*
X20539938Y-13573686D02*
X20530414Y-13554638D01*
X20530414Y-13554638D02*
X20520890Y-13516543D01*
X20520890Y-13516543D02*
X20520890Y-13468924D01*
X20520890Y-13468924D02*
X20530414Y-13430829D01*
X20530414Y-13430829D02*
X20539938Y-13411781D01*
X20539938Y-13411781D02*
X20549462Y-13402258D01*
X20549462Y-13402258D02*
X20568509Y-13392734D01*
X20720890Y-13573686D02*
X20730414Y-13583210D01*
X20730414Y-13583210D02*
X20720890Y-13592734D01*
X20720890Y-13592734D02*
X20711366Y-13583210D01*
X20711366Y-13583210D02*
X20720890Y-13573686D01*
X20720890Y-13573686D02*
X20720890Y-13592734D01*
X20854223Y-13392734D02*
X20873271Y-13392734D01*
X20873271Y-13392734D02*
X20892319Y-13402258D01*
X20892319Y-13402258D02*
X20901843Y-13411781D01*
X20901843Y-13411781D02*
X20911366Y-13430829D01*
X20911366Y-13430829D02*
X20920890Y-13468924D01*
X20920890Y-13468924D02*
X20920890Y-13516543D01*
X20920890Y-13516543D02*
X20911366Y-13554638D01*
X20911366Y-13554638D02*
X20901843Y-13573686D01*
X20901843Y-13573686D02*
X20892319Y-13583210D01*
X20892319Y-13583210D02*
X20873271Y-13592734D01*
X20873271Y-13592734D02*
X20854223Y-13592734D01*
X20854223Y-13592734D02*
X20835176Y-13583210D01*
X20835176Y-13583210D02*
X20825652Y-13573686D01*
X20825652Y-13573686D02*
X20816128Y-13554638D01*
X20816128Y-13554638D02*
X20806604Y-13516543D01*
X20806604Y-13516543D02*
X20806604Y-13468924D01*
X20806604Y-13468924D02*
X20816128Y-13430829D01*
X20816128Y-13430829D02*
X20825652Y-13411781D01*
X20825652Y-13411781D02*
X20835176Y-13402258D01*
X20835176Y-13402258D02*
X20854223Y-13392734D01*
X21092319Y-13392734D02*
X21054223Y-13392734D01*
X21054223Y-13392734D02*
X21035176Y-13402258D01*
X21035176Y-13402258D02*
X21025652Y-13411781D01*
X21025652Y-13411781D02*
X21006604Y-13440353D01*
X21006604Y-13440353D02*
X20997081Y-13478448D01*
X20997081Y-13478448D02*
X20997081Y-13554638D01*
X20997081Y-13554638D02*
X21006604Y-13573686D01*
X21006604Y-13573686D02*
X21016128Y-13583210D01*
X21016128Y-13583210D02*
X21035176Y-13592734D01*
X21035176Y-13592734D02*
X21073271Y-13592734D01*
X21073271Y-13592734D02*
X21092319Y-13583210D01*
X21092319Y-13583210D02*
X21101843Y-13573686D01*
X21101843Y-13573686D02*
X21111366Y-13554638D01*
X21111366Y-13554638D02*
X21111366Y-13507019D01*
X21111366Y-13507019D02*
X21101843Y-13487972D01*
X21101843Y-13487972D02*
X21092319Y-13478448D01*
X21092319Y-13478448D02*
X21073271Y-13468924D01*
X21073271Y-13468924D02*
X21035176Y-13468924D01*
X21035176Y-13468924D02*
X21016128Y-13478448D01*
X21016128Y-13478448D02*
X21006604Y-13487972D01*
X21006604Y-13487972D02*
X20997081Y-13507019D01*
X21225652Y-13478448D02*
X21206604Y-13468924D01*
X21206604Y-13468924D02*
X21197081Y-13459400D01*
X21197081Y-13459400D02*
X21187557Y-13440353D01*
X21187557Y-13440353D02*
X21187557Y-13430829D01*
X21187557Y-13430829D02*
X21197081Y-13411781D01*
X21197081Y-13411781D02*
X21206604Y-13402258D01*
X21206604Y-13402258D02*
X21225652Y-13392734D01*
X21225652Y-13392734D02*
X21263747Y-13392734D01*
X21263747Y-13392734D02*
X21282795Y-13402258D01*
X21282795Y-13402258D02*
X21292319Y-13411781D01*
X21292319Y-13411781D02*
X21301843Y-13430829D01*
X21301843Y-13430829D02*
X21301843Y-13440353D01*
X21301843Y-13440353D02*
X21292319Y-13459400D01*
X21292319Y-13459400D02*
X21282795Y-13468924D01*
X21282795Y-13468924D02*
X21263747Y-13478448D01*
X21263747Y-13478448D02*
X21225652Y-13478448D01*
X21225652Y-13478448D02*
X21206604Y-13487972D01*
X21206604Y-13487972D02*
X21197081Y-13497496D01*
X21197081Y-13497496D02*
X21187557Y-13516543D01*
X21187557Y-13516543D02*
X21187557Y-13554638D01*
X21187557Y-13554638D02*
X21197081Y-13573686D01*
X21197081Y-13573686D02*
X21206604Y-13583210D01*
X21206604Y-13583210D02*
X21225652Y-13592734D01*
X21225652Y-13592734D02*
X21263747Y-13592734D01*
X21263747Y-13592734D02*
X21282795Y-13583210D01*
X21282795Y-13583210D02*
X21292319Y-13573686D01*
X21292319Y-13573686D02*
X21301843Y-13554638D01*
X21301843Y-13554638D02*
X21301843Y-13516543D01*
X21301843Y-13516543D02*
X21292319Y-13497496D01*
X21292319Y-13497496D02*
X21282795Y-13487972D01*
X21282795Y-13487972D02*
X21263747Y-13478448D01*
X21397081Y-13592734D02*
X21435176Y-13592734D01*
X21435176Y-13592734D02*
X21454224Y-13583210D01*
X21454224Y-13583210D02*
X21463747Y-13573686D01*
X21463747Y-13573686D02*
X21482795Y-13545115D01*
X21482795Y-13545115D02*
X21492319Y-13507019D01*
X21492319Y-13507019D02*
X21492319Y-13430829D01*
X21492319Y-13430829D02*
X21482795Y-13411781D01*
X21482795Y-13411781D02*
X21473271Y-13402258D01*
X21473271Y-13402258D02*
X21454224Y-13392734D01*
X21454224Y-13392734D02*
X21416128Y-13392734D01*
X21416128Y-13392734D02*
X21397081Y-13402258D01*
X21397081Y-13402258D02*
X21387557Y-13411781D01*
X21387557Y-13411781D02*
X21378033Y-13430829D01*
X21378033Y-13430829D02*
X21378033Y-13478448D01*
X21378033Y-13478448D02*
X21387557Y-13497496D01*
X21387557Y-13497496D02*
X21397081Y-13507019D01*
X21397081Y-13507019D02*
X21416128Y-13516543D01*
X21416128Y-13516543D02*
X21454224Y-13516543D01*
X21454224Y-13516543D02*
X21473271Y-13507019D01*
X21473271Y-13507019D02*
X21482795Y-13497496D01*
X21482795Y-13497496D02*
X21492319Y-13478448D01*
X21568509Y-13392734D02*
X21568509Y-13430829D01*
X21644700Y-13392734D02*
X21644700Y-13430829D01*
X21939938Y-13668924D02*
X21930414Y-13659400D01*
X21930414Y-13659400D02*
X21911366Y-13630829D01*
X21911366Y-13630829D02*
X21901843Y-13611781D01*
X21901843Y-13611781D02*
X21892319Y-13583210D01*
X21892319Y-13583210D02*
X21882795Y-13535591D01*
X21882795Y-13535591D02*
X21882795Y-13497496D01*
X21882795Y-13497496D02*
X21892319Y-13449877D01*
X21892319Y-13449877D02*
X21901843Y-13421305D01*
X21901843Y-13421305D02*
X21911366Y-13402258D01*
X21911366Y-13402258D02*
X21930414Y-13373686D01*
X21930414Y-13373686D02*
X21939938Y-13364162D01*
X21997081Y-13392734D02*
X22120890Y-13392734D01*
X22120890Y-13392734D02*
X22054224Y-13468924D01*
X22054224Y-13468924D02*
X22082795Y-13468924D01*
X22082795Y-13468924D02*
X22101843Y-13478448D01*
X22101843Y-13478448D02*
X22111366Y-13487972D01*
X22111366Y-13487972D02*
X22120890Y-13507019D01*
X22120890Y-13507019D02*
X22120890Y-13554638D01*
X22120890Y-13554638D02*
X22111366Y-13573686D01*
X22111366Y-13573686D02*
X22101843Y-13583210D01*
X22101843Y-13583210D02*
X22082795Y-13592734D01*
X22082795Y-13592734D02*
X22025652Y-13592734D01*
X22025652Y-13592734D02*
X22006605Y-13583210D01*
X22006605Y-13583210D02*
X21997081Y-13573686D01*
X22292319Y-13459400D02*
X22292319Y-13592734D01*
X22244700Y-13383210D02*
X22197081Y-13526067D01*
X22197081Y-13526067D02*
X22320890Y-13526067D01*
X22549462Y-13592734D02*
X22549462Y-13392734D01*
X22635176Y-13592734D02*
X22635176Y-13487972D01*
X22635176Y-13487972D02*
X22625652Y-13468924D01*
X22625652Y-13468924D02*
X22606605Y-13459400D01*
X22606605Y-13459400D02*
X22578033Y-13459400D01*
X22578033Y-13459400D02*
X22558985Y-13468924D01*
X22558985Y-13468924D02*
X22549462Y-13478448D01*
X22758985Y-13592734D02*
X22739938Y-13583210D01*
X22739938Y-13583210D02*
X22730414Y-13573686D01*
X22730414Y-13573686D02*
X22720890Y-13554638D01*
X22720890Y-13554638D02*
X22720890Y-13497496D01*
X22720890Y-13497496D02*
X22730414Y-13478448D01*
X22730414Y-13478448D02*
X22739938Y-13468924D01*
X22739938Y-13468924D02*
X22758985Y-13459400D01*
X22758985Y-13459400D02*
X22787557Y-13459400D01*
X22787557Y-13459400D02*
X22806605Y-13468924D01*
X22806605Y-13468924D02*
X22816128Y-13478448D01*
X22816128Y-13478448D02*
X22825652Y-13497496D01*
X22825652Y-13497496D02*
X22825652Y-13554638D01*
X22825652Y-13554638D02*
X22816128Y-13573686D01*
X22816128Y-13573686D02*
X22806605Y-13583210D01*
X22806605Y-13583210D02*
X22787557Y-13592734D01*
X22787557Y-13592734D02*
X22758985Y-13592734D01*
X22939938Y-13592734D02*
X22920890Y-13583210D01*
X22920890Y-13583210D02*
X22911366Y-13564162D01*
X22911366Y-13564162D02*
X22911366Y-13392734D01*
X23092319Y-13583210D02*
X23073271Y-13592734D01*
X23073271Y-13592734D02*
X23035176Y-13592734D01*
X23035176Y-13592734D02*
X23016128Y-13583210D01*
X23016128Y-13583210D02*
X23006605Y-13564162D01*
X23006605Y-13564162D02*
X23006605Y-13487972D01*
X23006605Y-13487972D02*
X23016128Y-13468924D01*
X23016128Y-13468924D02*
X23035176Y-13459400D01*
X23035176Y-13459400D02*
X23073271Y-13459400D01*
X23073271Y-13459400D02*
X23092319Y-13468924D01*
X23092319Y-13468924D02*
X23101843Y-13487972D01*
X23101843Y-13487972D02*
X23101843Y-13507019D01*
X23101843Y-13507019D02*
X23006605Y-13526067D01*
X23178033Y-13583210D02*
X23197081Y-13592734D01*
X23197081Y-13592734D02*
X23235176Y-13592734D01*
X23235176Y-13592734D02*
X23254224Y-13583210D01*
X23254224Y-13583210D02*
X23263747Y-13564162D01*
X23263747Y-13564162D02*
X23263747Y-13554638D01*
X23263747Y-13554638D02*
X23254224Y-13535591D01*
X23254224Y-13535591D02*
X23235176Y-13526067D01*
X23235176Y-13526067D02*
X23206605Y-13526067D01*
X23206605Y-13526067D02*
X23187557Y-13516543D01*
X23187557Y-13516543D02*
X23178033Y-13497496D01*
X23178033Y-13497496D02*
X23178033Y-13487972D01*
X23178033Y-13487972D02*
X23187557Y-13468924D01*
X23187557Y-13468924D02*
X23206605Y-13459400D01*
X23206605Y-13459400D02*
X23235176Y-13459400D01*
X23235176Y-13459400D02*
X23254224Y-13468924D01*
X23330414Y-13668924D02*
X23339938Y-13659400D01*
X23339938Y-13659400D02*
X23358986Y-13630829D01*
X23358986Y-13630829D02*
X23368509Y-13611781D01*
X23368509Y-13611781D02*
X23378033Y-13583210D01*
X23378033Y-13583210D02*
X23387557Y-13535591D01*
X23387557Y-13535591D02*
X23387557Y-13497496D01*
X23387557Y-13497496D02*
X23378033Y-13449877D01*
X23378033Y-13449877D02*
X23368509Y-13421305D01*
X23368509Y-13421305D02*
X23358986Y-13402258D01*
X23358986Y-13402258D02*
X23339938Y-13373686D01*
X23339938Y-13373686D02*
X23330414Y-13364162D01*
X23692319Y-13668924D02*
X23682795Y-13659400D01*
X23682795Y-13659400D02*
X23663747Y-13630829D01*
X23663747Y-13630829D02*
X23654224Y-13611781D01*
X23654224Y-13611781D02*
X23644700Y-13583210D01*
X23644700Y-13583210D02*
X23635176Y-13535591D01*
X23635176Y-13535591D02*
X23635176Y-13497496D01*
X23635176Y-13497496D02*
X23644700Y-13449877D01*
X23644700Y-13449877D02*
X23654224Y-13421305D01*
X23654224Y-13421305D02*
X23663747Y-13402258D01*
X23663747Y-13402258D02*
X23682795Y-13373686D01*
X23682795Y-13373686D02*
X23692319Y-13364162D01*
X23768509Y-13459400D02*
X23768509Y-13592734D01*
X23768509Y-13478448D02*
X23778033Y-13468924D01*
X23778033Y-13468924D02*
X23797081Y-13459400D01*
X23797081Y-13459400D02*
X23825652Y-13459400D01*
X23825652Y-13459400D02*
X23844700Y-13468924D01*
X23844700Y-13468924D02*
X23854224Y-13487972D01*
X23854224Y-13487972D02*
X23854224Y-13592734D01*
X23978033Y-13592734D02*
X23958986Y-13583210D01*
X23958986Y-13583210D02*
X23949462Y-13573686D01*
X23949462Y-13573686D02*
X23939938Y-13554638D01*
X23939938Y-13554638D02*
X23939938Y-13497496D01*
X23939938Y-13497496D02*
X23949462Y-13478448D01*
X23949462Y-13478448D02*
X23958986Y-13468924D01*
X23958986Y-13468924D02*
X23978033Y-13459400D01*
X23978033Y-13459400D02*
X24006605Y-13459400D01*
X24006605Y-13459400D02*
X24025652Y-13468924D01*
X24025652Y-13468924D02*
X24035176Y-13478448D01*
X24035176Y-13478448D02*
X24044700Y-13497496D01*
X24044700Y-13497496D02*
X24044700Y-13554638D01*
X24044700Y-13554638D02*
X24035176Y-13573686D01*
X24035176Y-13573686D02*
X24025652Y-13583210D01*
X24025652Y-13583210D02*
X24006605Y-13592734D01*
X24006605Y-13592734D02*
X23978033Y-13592734D01*
X24101843Y-13459400D02*
X24178033Y-13459400D01*
X24130414Y-13392734D02*
X24130414Y-13564162D01*
X24130414Y-13564162D02*
X24139938Y-13583210D01*
X24139938Y-13583210D02*
X24158986Y-13592734D01*
X24158986Y-13592734D02*
X24178033Y-13592734D01*
X24397081Y-13459400D02*
X24397081Y-13659400D01*
X24397081Y-13468924D02*
X24416128Y-13459400D01*
X24416128Y-13459400D02*
X24454224Y-13459400D01*
X24454224Y-13459400D02*
X24473271Y-13468924D01*
X24473271Y-13468924D02*
X24482795Y-13478448D01*
X24482795Y-13478448D02*
X24492319Y-13497496D01*
X24492319Y-13497496D02*
X24492319Y-13554638D01*
X24492319Y-13554638D02*
X24482795Y-13573686D01*
X24482795Y-13573686D02*
X24473271Y-13583210D01*
X24473271Y-13583210D02*
X24454224Y-13592734D01*
X24454224Y-13592734D02*
X24416128Y-13592734D01*
X24416128Y-13592734D02*
X24397081Y-13583210D01*
X24606605Y-13592734D02*
X24587557Y-13583210D01*
X24587557Y-13583210D02*
X24578033Y-13564162D01*
X24578033Y-13564162D02*
X24578033Y-13392734D01*
X24768509Y-13592734D02*
X24768509Y-13487972D01*
X24768509Y-13487972D02*
X24758986Y-13468924D01*
X24758986Y-13468924D02*
X24739938Y-13459400D01*
X24739938Y-13459400D02*
X24701843Y-13459400D01*
X24701843Y-13459400D02*
X24682795Y-13468924D01*
X24768509Y-13583210D02*
X24749462Y-13592734D01*
X24749462Y-13592734D02*
X24701843Y-13592734D01*
X24701843Y-13592734D02*
X24682795Y-13583210D01*
X24682795Y-13583210D02*
X24673271Y-13564162D01*
X24673271Y-13564162D02*
X24673271Y-13545115D01*
X24673271Y-13545115D02*
X24682795Y-13526067D01*
X24682795Y-13526067D02*
X24701843Y-13516543D01*
X24701843Y-13516543D02*
X24749462Y-13516543D01*
X24749462Y-13516543D02*
X24768509Y-13507019D01*
X24835176Y-13459400D02*
X24911367Y-13459400D01*
X24863748Y-13392734D02*
X24863748Y-13564162D01*
X24863748Y-13564162D02*
X24873271Y-13583210D01*
X24873271Y-13583210D02*
X24892319Y-13592734D01*
X24892319Y-13592734D02*
X24911367Y-13592734D01*
X25054224Y-13583210D02*
X25035176Y-13592734D01*
X25035176Y-13592734D02*
X24997081Y-13592734D01*
X24997081Y-13592734D02*
X24978033Y-13583210D01*
X24978033Y-13583210D02*
X24968509Y-13564162D01*
X24968509Y-13564162D02*
X24968509Y-13487972D01*
X24968509Y-13487972D02*
X24978033Y-13468924D01*
X24978033Y-13468924D02*
X24997081Y-13459400D01*
X24997081Y-13459400D02*
X25035176Y-13459400D01*
X25035176Y-13459400D02*
X25054224Y-13468924D01*
X25054224Y-13468924D02*
X25063748Y-13487972D01*
X25063748Y-13487972D02*
X25063748Y-13507019D01*
X25063748Y-13507019D02*
X24968509Y-13526067D01*
X25235176Y-13592734D02*
X25235176Y-13392734D01*
X25235176Y-13583210D02*
X25216129Y-13592734D01*
X25216129Y-13592734D02*
X25178033Y-13592734D01*
X25178033Y-13592734D02*
X25158986Y-13583210D01*
X25158986Y-13583210D02*
X25149462Y-13573686D01*
X25149462Y-13573686D02*
X25139938Y-13554638D01*
X25139938Y-13554638D02*
X25139938Y-13497496D01*
X25139938Y-13497496D02*
X25149462Y-13478448D01*
X25149462Y-13478448D02*
X25158986Y-13468924D01*
X25158986Y-13468924D02*
X25178033Y-13459400D01*
X25178033Y-13459400D02*
X25216129Y-13459400D01*
X25216129Y-13459400D02*
X25235176Y-13468924D01*
X25311367Y-13668924D02*
X25320890Y-13659400D01*
X25320890Y-13659400D02*
X25339938Y-13630829D01*
X25339938Y-13630829D02*
X25349462Y-13611781D01*
X25349462Y-13611781D02*
X25358986Y-13583210D01*
X25358986Y-13583210D02*
X25368509Y-13535591D01*
X25368509Y-13535591D02*
X25368509Y-13497496D01*
X25368509Y-13497496D02*
X25358986Y-13449877D01*
X25358986Y-13449877D02*
X25349462Y-13421305D01*
X25349462Y-13421305D02*
X25339938Y-13402258D01*
X25339938Y-13402258D02*
X25320890Y-13373686D01*
X25320890Y-13373686D02*
X25311367Y-13364162D01*
X18364875Y-13796250D02*
G75*
G02*
X18164875Y-13796250I-100000J0D01*
G01*
X18164875Y-13796250D02*
G75*
G02*
X18364875Y-13796250I100000J0D01*
G01*
X18616128Y-13706781D02*
X18625652Y-13697258D01*
X18625652Y-13697258D02*
X18644699Y-13687734D01*
X18644699Y-13687734D02*
X18692319Y-13687734D01*
X18692319Y-13687734D02*
X18711366Y-13697258D01*
X18711366Y-13697258D02*
X18720890Y-13706781D01*
X18720890Y-13706781D02*
X18730414Y-13725829D01*
X18730414Y-13725829D02*
X18730414Y-13744877D01*
X18730414Y-13744877D02*
X18720890Y-13773448D01*
X18720890Y-13773448D02*
X18606604Y-13887734D01*
X18606604Y-13887734D02*
X18730414Y-13887734D01*
X18816128Y-13868686D02*
X18825652Y-13878210D01*
X18825652Y-13878210D02*
X18816128Y-13887734D01*
X18816128Y-13887734D02*
X18806604Y-13878210D01*
X18806604Y-13878210D02*
X18816128Y-13868686D01*
X18816128Y-13868686D02*
X18816128Y-13887734D01*
X18901842Y-13706781D02*
X18911366Y-13697258D01*
X18911366Y-13697258D02*
X18930414Y-13687734D01*
X18930414Y-13687734D02*
X18978033Y-13687734D01*
X18978033Y-13687734D02*
X18997080Y-13697258D01*
X18997080Y-13697258D02*
X19006604Y-13706781D01*
X19006604Y-13706781D02*
X19016128Y-13725829D01*
X19016128Y-13725829D02*
X19016128Y-13744877D01*
X19016128Y-13744877D02*
X19006604Y-13773448D01*
X19006604Y-13773448D02*
X18892319Y-13887734D01*
X18892319Y-13887734D02*
X19016128Y-13887734D01*
X19139938Y-13687734D02*
X19158985Y-13687734D01*
X19158985Y-13687734D02*
X19178033Y-13697258D01*
X19178033Y-13697258D02*
X19187557Y-13706781D01*
X19187557Y-13706781D02*
X19197080Y-13725829D01*
X19197080Y-13725829D02*
X19206604Y-13763924D01*
X19206604Y-13763924D02*
X19206604Y-13811543D01*
X19206604Y-13811543D02*
X19197080Y-13849638D01*
X19197080Y-13849638D02*
X19187557Y-13868686D01*
X19187557Y-13868686D02*
X19178033Y-13878210D01*
X19178033Y-13878210D02*
X19158985Y-13887734D01*
X19158985Y-13887734D02*
X19139938Y-13887734D01*
X19139938Y-13887734D02*
X19120890Y-13878210D01*
X19120890Y-13878210D02*
X19111366Y-13868686D01*
X19111366Y-13868686D02*
X19101842Y-13849638D01*
X19101842Y-13849638D02*
X19092319Y-13811543D01*
X19092319Y-13811543D02*
X19092319Y-13763924D01*
X19092319Y-13763924D02*
X19101842Y-13725829D01*
X19101842Y-13725829D02*
X19111366Y-13706781D01*
X19111366Y-13706781D02*
X19120890Y-13697258D01*
X19120890Y-13697258D02*
X19139938Y-13687734D01*
X19330414Y-13687734D02*
X19349461Y-13687734D01*
X19349461Y-13687734D02*
X19368509Y-13697258D01*
X19368509Y-13697258D02*
X19378033Y-13706781D01*
X19378033Y-13706781D02*
X19387557Y-13725829D01*
X19387557Y-13725829D02*
X19397080Y-13763924D01*
X19397080Y-13763924D02*
X19397080Y-13811543D01*
X19397080Y-13811543D02*
X19387557Y-13849638D01*
X19387557Y-13849638D02*
X19378033Y-13868686D01*
X19378033Y-13868686D02*
X19368509Y-13878210D01*
X19368509Y-13878210D02*
X19349461Y-13887734D01*
X19349461Y-13887734D02*
X19330414Y-13887734D01*
X19330414Y-13887734D02*
X19311366Y-13878210D01*
X19311366Y-13878210D02*
X19301842Y-13868686D01*
X19301842Y-13868686D02*
X19292319Y-13849638D01*
X19292319Y-13849638D02*
X19282795Y-13811543D01*
X19282795Y-13811543D02*
X19282795Y-13763924D01*
X19282795Y-13763924D02*
X19292319Y-13725829D01*
X19292319Y-13725829D02*
X19301842Y-13706781D01*
X19301842Y-13706781D02*
X19311366Y-13697258D01*
X19311366Y-13697258D02*
X19330414Y-13687734D01*
X19482795Y-13887734D02*
X19482795Y-13754400D01*
X19482795Y-13773448D02*
X19492319Y-13763924D01*
X19492319Y-13763924D02*
X19511366Y-13754400D01*
X19511366Y-13754400D02*
X19539938Y-13754400D01*
X19539938Y-13754400D02*
X19558985Y-13763924D01*
X19558985Y-13763924D02*
X19568509Y-13782972D01*
X19568509Y-13782972D02*
X19568509Y-13887734D01*
X19568509Y-13782972D02*
X19578033Y-13763924D01*
X19578033Y-13763924D02*
X19597080Y-13754400D01*
X19597080Y-13754400D02*
X19625652Y-13754400D01*
X19625652Y-13754400D02*
X19644700Y-13763924D01*
X19644700Y-13763924D02*
X19654223Y-13782972D01*
X19654223Y-13782972D02*
X19654223Y-13887734D01*
X19749461Y-13887734D02*
X19749461Y-13754400D01*
X19749461Y-13773448D02*
X19758985Y-13763924D01*
X19758985Y-13763924D02*
X19778033Y-13754400D01*
X19778033Y-13754400D02*
X19806604Y-13754400D01*
X19806604Y-13754400D02*
X19825652Y-13763924D01*
X19825652Y-13763924D02*
X19835176Y-13782972D01*
X19835176Y-13782972D02*
X19835176Y-13887734D01*
X19835176Y-13782972D02*
X19844700Y-13763924D01*
X19844700Y-13763924D02*
X19863747Y-13754400D01*
X19863747Y-13754400D02*
X19892319Y-13754400D01*
X19892319Y-13754400D02*
X19911366Y-13763924D01*
X19911366Y-13763924D02*
X19920890Y-13782972D01*
X19920890Y-13782972D02*
X19920890Y-13887734D01*
X20311366Y-13678210D02*
X20139938Y-13935353D01*
X20568509Y-13687734D02*
X20587557Y-13687734D01*
X20587557Y-13687734D02*
X20606604Y-13697258D01*
X20606604Y-13697258D02*
X20616128Y-13706781D01*
X20616128Y-13706781D02*
X20625652Y-13725829D01*
X20625652Y-13725829D02*
X20635176Y-13763924D01*
X20635176Y-13763924D02*
X20635176Y-13811543D01*
X20635176Y-13811543D02*
X20625652Y-13849638D01*
X20625652Y-13849638D02*
X20616128Y-13868686D01*
X20616128Y-13868686D02*
X20606604Y-13878210D01*
X20606604Y-13878210D02*
X20587557Y-13887734D01*
X20587557Y-13887734D02*
X20568509Y-13887734D01*
X20568509Y-13887734D02*
X20549462Y-13878210D01*
X20549462Y-13878210D02*
X20539938Y-13868686D01*
X20539938Y-13868686D02*
X20530414Y-13849638D01*
X20530414Y-13849638D02*
X20520890Y-13811543D01*
X20520890Y-13811543D02*
X20520890Y-13763924D01*
X20520890Y-13763924D02*
X20530414Y-13725829D01*
X20530414Y-13725829D02*
X20539938Y-13706781D01*
X20539938Y-13706781D02*
X20549462Y-13697258D01*
X20549462Y-13697258D02*
X20568509Y-13687734D01*
X20720890Y-13868686D02*
X20730414Y-13878210D01*
X20730414Y-13878210D02*
X20720890Y-13887734D01*
X20720890Y-13887734D02*
X20711366Y-13878210D01*
X20711366Y-13878210D02*
X20720890Y-13868686D01*
X20720890Y-13868686D02*
X20720890Y-13887734D01*
X20854223Y-13687734D02*
X20873271Y-13687734D01*
X20873271Y-13687734D02*
X20892319Y-13697258D01*
X20892319Y-13697258D02*
X20901843Y-13706781D01*
X20901843Y-13706781D02*
X20911366Y-13725829D01*
X20911366Y-13725829D02*
X20920890Y-13763924D01*
X20920890Y-13763924D02*
X20920890Y-13811543D01*
X20920890Y-13811543D02*
X20911366Y-13849638D01*
X20911366Y-13849638D02*
X20901843Y-13868686D01*
X20901843Y-13868686D02*
X20892319Y-13878210D01*
X20892319Y-13878210D02*
X20873271Y-13887734D01*
X20873271Y-13887734D02*
X20854223Y-13887734D01*
X20854223Y-13887734D02*
X20835176Y-13878210D01*
X20835176Y-13878210D02*
X20825652Y-13868686D01*
X20825652Y-13868686D02*
X20816128Y-13849638D01*
X20816128Y-13849638D02*
X20806604Y-13811543D01*
X20806604Y-13811543D02*
X20806604Y-13763924D01*
X20806604Y-13763924D02*
X20816128Y-13725829D01*
X20816128Y-13725829D02*
X20825652Y-13706781D01*
X20825652Y-13706781D02*
X20835176Y-13697258D01*
X20835176Y-13697258D02*
X20854223Y-13687734D01*
X21035176Y-13773448D02*
X21016128Y-13763924D01*
X21016128Y-13763924D02*
X21006604Y-13754400D01*
X21006604Y-13754400D02*
X20997081Y-13735353D01*
X20997081Y-13735353D02*
X20997081Y-13725829D01*
X20997081Y-13725829D02*
X21006604Y-13706781D01*
X21006604Y-13706781D02*
X21016128Y-13697258D01*
X21016128Y-13697258D02*
X21035176Y-13687734D01*
X21035176Y-13687734D02*
X21073271Y-13687734D01*
X21073271Y-13687734D02*
X21092319Y-13697258D01*
X21092319Y-13697258D02*
X21101843Y-13706781D01*
X21101843Y-13706781D02*
X21111366Y-13725829D01*
X21111366Y-13725829D02*
X21111366Y-13735353D01*
X21111366Y-13735353D02*
X21101843Y-13754400D01*
X21101843Y-13754400D02*
X21092319Y-13763924D01*
X21092319Y-13763924D02*
X21073271Y-13773448D01*
X21073271Y-13773448D02*
X21035176Y-13773448D01*
X21035176Y-13773448D02*
X21016128Y-13782972D01*
X21016128Y-13782972D02*
X21006604Y-13792496D01*
X21006604Y-13792496D02*
X20997081Y-13811543D01*
X20997081Y-13811543D02*
X20997081Y-13849638D01*
X20997081Y-13849638D02*
X21006604Y-13868686D01*
X21006604Y-13868686D02*
X21016128Y-13878210D01*
X21016128Y-13878210D02*
X21035176Y-13887734D01*
X21035176Y-13887734D02*
X21073271Y-13887734D01*
X21073271Y-13887734D02*
X21092319Y-13878210D01*
X21092319Y-13878210D02*
X21101843Y-13868686D01*
X21101843Y-13868686D02*
X21111366Y-13849638D01*
X21111366Y-13849638D02*
X21111366Y-13811543D01*
X21111366Y-13811543D02*
X21101843Y-13792496D01*
X21101843Y-13792496D02*
X21092319Y-13782972D01*
X21092319Y-13782972D02*
X21073271Y-13773448D01*
X21282795Y-13687734D02*
X21244700Y-13687734D01*
X21244700Y-13687734D02*
X21225652Y-13697258D01*
X21225652Y-13697258D02*
X21216128Y-13706781D01*
X21216128Y-13706781D02*
X21197081Y-13735353D01*
X21197081Y-13735353D02*
X21187557Y-13773448D01*
X21187557Y-13773448D02*
X21187557Y-13849638D01*
X21187557Y-13849638D02*
X21197081Y-13868686D01*
X21197081Y-13868686D02*
X21206604Y-13878210D01*
X21206604Y-13878210D02*
X21225652Y-13887734D01*
X21225652Y-13887734D02*
X21263747Y-13887734D01*
X21263747Y-13887734D02*
X21282795Y-13878210D01*
X21282795Y-13878210D02*
X21292319Y-13868686D01*
X21292319Y-13868686D02*
X21301843Y-13849638D01*
X21301843Y-13849638D02*
X21301843Y-13802019D01*
X21301843Y-13802019D02*
X21292319Y-13782972D01*
X21292319Y-13782972D02*
X21282795Y-13773448D01*
X21282795Y-13773448D02*
X21263747Y-13763924D01*
X21263747Y-13763924D02*
X21225652Y-13763924D01*
X21225652Y-13763924D02*
X21206604Y-13773448D01*
X21206604Y-13773448D02*
X21197081Y-13782972D01*
X21197081Y-13782972D02*
X21187557Y-13802019D01*
X21473271Y-13687734D02*
X21435176Y-13687734D01*
X21435176Y-13687734D02*
X21416128Y-13697258D01*
X21416128Y-13697258D02*
X21406604Y-13706781D01*
X21406604Y-13706781D02*
X21387557Y-13735353D01*
X21387557Y-13735353D02*
X21378033Y-13773448D01*
X21378033Y-13773448D02*
X21378033Y-13849638D01*
X21378033Y-13849638D02*
X21387557Y-13868686D01*
X21387557Y-13868686D02*
X21397081Y-13878210D01*
X21397081Y-13878210D02*
X21416128Y-13887734D01*
X21416128Y-13887734D02*
X21454224Y-13887734D01*
X21454224Y-13887734D02*
X21473271Y-13878210D01*
X21473271Y-13878210D02*
X21482795Y-13868686D01*
X21482795Y-13868686D02*
X21492319Y-13849638D01*
X21492319Y-13849638D02*
X21492319Y-13802019D01*
X21492319Y-13802019D02*
X21482795Y-13782972D01*
X21482795Y-13782972D02*
X21473271Y-13773448D01*
X21473271Y-13773448D02*
X21454224Y-13763924D01*
X21454224Y-13763924D02*
X21416128Y-13763924D01*
X21416128Y-13763924D02*
X21397081Y-13773448D01*
X21397081Y-13773448D02*
X21387557Y-13782972D01*
X21387557Y-13782972D02*
X21378033Y-13802019D01*
X21568509Y-13687734D02*
X21568509Y-13725829D01*
X21644700Y-13687734D02*
X21644700Y-13725829D01*
X21939938Y-13963924D02*
X21930414Y-13954400D01*
X21930414Y-13954400D02*
X21911366Y-13925829D01*
X21911366Y-13925829D02*
X21901843Y-13906781D01*
X21901843Y-13906781D02*
X21892319Y-13878210D01*
X21892319Y-13878210D02*
X21882795Y-13830591D01*
X21882795Y-13830591D02*
X21882795Y-13792496D01*
X21882795Y-13792496D02*
X21892319Y-13744877D01*
X21892319Y-13744877D02*
X21901843Y-13716305D01*
X21901843Y-13716305D02*
X21911366Y-13697258D01*
X21911366Y-13697258D02*
X21930414Y-13668686D01*
X21930414Y-13668686D02*
X21939938Y-13659162D01*
X22111366Y-13687734D02*
X22016128Y-13687734D01*
X22016128Y-13687734D02*
X22006605Y-13782972D01*
X22006605Y-13782972D02*
X22016128Y-13773448D01*
X22016128Y-13773448D02*
X22035176Y-13763924D01*
X22035176Y-13763924D02*
X22082795Y-13763924D01*
X22082795Y-13763924D02*
X22101843Y-13773448D01*
X22101843Y-13773448D02*
X22111366Y-13782972D01*
X22111366Y-13782972D02*
X22120890Y-13802019D01*
X22120890Y-13802019D02*
X22120890Y-13849638D01*
X22120890Y-13849638D02*
X22111366Y-13868686D01*
X22111366Y-13868686D02*
X22101843Y-13878210D01*
X22101843Y-13878210D02*
X22082795Y-13887734D01*
X22082795Y-13887734D02*
X22035176Y-13887734D01*
X22035176Y-13887734D02*
X22016128Y-13878210D01*
X22016128Y-13878210D02*
X22006605Y-13868686D01*
X22358986Y-13887734D02*
X22358986Y-13687734D01*
X22444700Y-13887734D02*
X22444700Y-13782972D01*
X22444700Y-13782972D02*
X22435176Y-13763924D01*
X22435176Y-13763924D02*
X22416128Y-13754400D01*
X22416128Y-13754400D02*
X22387557Y-13754400D01*
X22387557Y-13754400D02*
X22368509Y-13763924D01*
X22368509Y-13763924D02*
X22358986Y-13773448D01*
X22568509Y-13887734D02*
X22549462Y-13878210D01*
X22549462Y-13878210D02*
X22539938Y-13868686D01*
X22539938Y-13868686D02*
X22530414Y-13849638D01*
X22530414Y-13849638D02*
X22530414Y-13792496D01*
X22530414Y-13792496D02*
X22539938Y-13773448D01*
X22539938Y-13773448D02*
X22549462Y-13763924D01*
X22549462Y-13763924D02*
X22568509Y-13754400D01*
X22568509Y-13754400D02*
X22597081Y-13754400D01*
X22597081Y-13754400D02*
X22616128Y-13763924D01*
X22616128Y-13763924D02*
X22625652Y-13773448D01*
X22625652Y-13773448D02*
X22635176Y-13792496D01*
X22635176Y-13792496D02*
X22635176Y-13849638D01*
X22635176Y-13849638D02*
X22625652Y-13868686D01*
X22625652Y-13868686D02*
X22616128Y-13878210D01*
X22616128Y-13878210D02*
X22597081Y-13887734D01*
X22597081Y-13887734D02*
X22568509Y-13887734D01*
X22749462Y-13887734D02*
X22730414Y-13878210D01*
X22730414Y-13878210D02*
X22720890Y-13859162D01*
X22720890Y-13859162D02*
X22720890Y-13687734D01*
X22901843Y-13878210D02*
X22882795Y-13887734D01*
X22882795Y-13887734D02*
X22844700Y-13887734D01*
X22844700Y-13887734D02*
X22825652Y-13878210D01*
X22825652Y-13878210D02*
X22816128Y-13859162D01*
X22816128Y-13859162D02*
X22816128Y-13782972D01*
X22816128Y-13782972D02*
X22825652Y-13763924D01*
X22825652Y-13763924D02*
X22844700Y-13754400D01*
X22844700Y-13754400D02*
X22882795Y-13754400D01*
X22882795Y-13754400D02*
X22901843Y-13763924D01*
X22901843Y-13763924D02*
X22911366Y-13782972D01*
X22911366Y-13782972D02*
X22911366Y-13802019D01*
X22911366Y-13802019D02*
X22816128Y-13821067D01*
X22987557Y-13878210D02*
X23006605Y-13887734D01*
X23006605Y-13887734D02*
X23044700Y-13887734D01*
X23044700Y-13887734D02*
X23063747Y-13878210D01*
X23063747Y-13878210D02*
X23073271Y-13859162D01*
X23073271Y-13859162D02*
X23073271Y-13849638D01*
X23073271Y-13849638D02*
X23063747Y-13830591D01*
X23063747Y-13830591D02*
X23044700Y-13821067D01*
X23044700Y-13821067D02*
X23016128Y-13821067D01*
X23016128Y-13821067D02*
X22997081Y-13811543D01*
X22997081Y-13811543D02*
X22987557Y-13792496D01*
X22987557Y-13792496D02*
X22987557Y-13782972D01*
X22987557Y-13782972D02*
X22997081Y-13763924D01*
X22997081Y-13763924D02*
X23016128Y-13754400D01*
X23016128Y-13754400D02*
X23044700Y-13754400D01*
X23044700Y-13754400D02*
X23063747Y-13763924D01*
X23139938Y-13963924D02*
X23149462Y-13954400D01*
X23149462Y-13954400D02*
X23168509Y-13925829D01*
X23168509Y-13925829D02*
X23178033Y-13906781D01*
X23178033Y-13906781D02*
X23187557Y-13878210D01*
X23187557Y-13878210D02*
X23197081Y-13830591D01*
X23197081Y-13830591D02*
X23197081Y-13792496D01*
X23197081Y-13792496D02*
X23187557Y-13744877D01*
X23187557Y-13744877D02*
X23178033Y-13716305D01*
X23178033Y-13716305D02*
X23168509Y-13697258D01*
X23168509Y-13697258D02*
X23149462Y-13668686D01*
X23149462Y-13668686D02*
X23139938Y-13659162D01*
X23501843Y-13963924D02*
X23492319Y-13954400D01*
X23492319Y-13954400D02*
X23473271Y-13925829D01*
X23473271Y-13925829D02*
X23463747Y-13906781D01*
X23463747Y-13906781D02*
X23454224Y-13878210D01*
X23454224Y-13878210D02*
X23444700Y-13830591D01*
X23444700Y-13830591D02*
X23444700Y-13792496D01*
X23444700Y-13792496D02*
X23454224Y-13744877D01*
X23454224Y-13744877D02*
X23463747Y-13716305D01*
X23463747Y-13716305D02*
X23473271Y-13697258D01*
X23473271Y-13697258D02*
X23492319Y-13668686D01*
X23492319Y-13668686D02*
X23501843Y-13659162D01*
X23578033Y-13754400D02*
X23578033Y-13887734D01*
X23578033Y-13773448D02*
X23587557Y-13763924D01*
X23587557Y-13763924D02*
X23606605Y-13754400D01*
X23606605Y-13754400D02*
X23635176Y-13754400D01*
X23635176Y-13754400D02*
X23654224Y-13763924D01*
X23654224Y-13763924D02*
X23663747Y-13782972D01*
X23663747Y-13782972D02*
X23663747Y-13887734D01*
X23787557Y-13887734D02*
X23768509Y-13878210D01*
X23768509Y-13878210D02*
X23758986Y-13868686D01*
X23758986Y-13868686D02*
X23749462Y-13849638D01*
X23749462Y-13849638D02*
X23749462Y-13792496D01*
X23749462Y-13792496D02*
X23758986Y-13773448D01*
X23758986Y-13773448D02*
X23768509Y-13763924D01*
X23768509Y-13763924D02*
X23787557Y-13754400D01*
X23787557Y-13754400D02*
X23816128Y-13754400D01*
X23816128Y-13754400D02*
X23835176Y-13763924D01*
X23835176Y-13763924D02*
X23844700Y-13773448D01*
X23844700Y-13773448D02*
X23854224Y-13792496D01*
X23854224Y-13792496D02*
X23854224Y-13849638D01*
X23854224Y-13849638D02*
X23844700Y-13868686D01*
X23844700Y-13868686D02*
X23835176Y-13878210D01*
X23835176Y-13878210D02*
X23816128Y-13887734D01*
X23816128Y-13887734D02*
X23787557Y-13887734D01*
X23911367Y-13754400D02*
X23987557Y-13754400D01*
X23939938Y-13687734D02*
X23939938Y-13859162D01*
X23939938Y-13859162D02*
X23949462Y-13878210D01*
X23949462Y-13878210D02*
X23968509Y-13887734D01*
X23968509Y-13887734D02*
X23987557Y-13887734D01*
X24206605Y-13754400D02*
X24206605Y-13954400D01*
X24206605Y-13763924D02*
X24225652Y-13754400D01*
X24225652Y-13754400D02*
X24263748Y-13754400D01*
X24263748Y-13754400D02*
X24282795Y-13763924D01*
X24282795Y-13763924D02*
X24292319Y-13773448D01*
X24292319Y-13773448D02*
X24301843Y-13792496D01*
X24301843Y-13792496D02*
X24301843Y-13849638D01*
X24301843Y-13849638D02*
X24292319Y-13868686D01*
X24292319Y-13868686D02*
X24282795Y-13878210D01*
X24282795Y-13878210D02*
X24263748Y-13887734D01*
X24263748Y-13887734D02*
X24225652Y-13887734D01*
X24225652Y-13887734D02*
X24206605Y-13878210D01*
X24416128Y-13887734D02*
X24397081Y-13878210D01*
X24397081Y-13878210D02*
X24387557Y-13859162D01*
X24387557Y-13859162D02*
X24387557Y-13687734D01*
X24578033Y-13887734D02*
X24578033Y-13782972D01*
X24578033Y-13782972D02*
X24568509Y-13763924D01*
X24568509Y-13763924D02*
X24549462Y-13754400D01*
X24549462Y-13754400D02*
X24511367Y-13754400D01*
X24511367Y-13754400D02*
X24492319Y-13763924D01*
X24578033Y-13878210D02*
X24558986Y-13887734D01*
X24558986Y-13887734D02*
X24511367Y-13887734D01*
X24511367Y-13887734D02*
X24492319Y-13878210D01*
X24492319Y-13878210D02*
X24482795Y-13859162D01*
X24482795Y-13859162D02*
X24482795Y-13840115D01*
X24482795Y-13840115D02*
X24492319Y-13821067D01*
X24492319Y-13821067D02*
X24511367Y-13811543D01*
X24511367Y-13811543D02*
X24558986Y-13811543D01*
X24558986Y-13811543D02*
X24578033Y-13802019D01*
X24644700Y-13754400D02*
X24720890Y-13754400D01*
X24673271Y-13687734D02*
X24673271Y-13859162D01*
X24673271Y-13859162D02*
X24682795Y-13878210D01*
X24682795Y-13878210D02*
X24701843Y-13887734D01*
X24701843Y-13887734D02*
X24720890Y-13887734D01*
X24863748Y-13878210D02*
X24844700Y-13887734D01*
X24844700Y-13887734D02*
X24806605Y-13887734D01*
X24806605Y-13887734D02*
X24787557Y-13878210D01*
X24787557Y-13878210D02*
X24778033Y-13859162D01*
X24778033Y-13859162D02*
X24778033Y-13782972D01*
X24778033Y-13782972D02*
X24787557Y-13763924D01*
X24787557Y-13763924D02*
X24806605Y-13754400D01*
X24806605Y-13754400D02*
X24844700Y-13754400D01*
X24844700Y-13754400D02*
X24863748Y-13763924D01*
X24863748Y-13763924D02*
X24873271Y-13782972D01*
X24873271Y-13782972D02*
X24873271Y-13802019D01*
X24873271Y-13802019D02*
X24778033Y-13821067D01*
X25044700Y-13887734D02*
X25044700Y-13687734D01*
X25044700Y-13878210D02*
X25025652Y-13887734D01*
X25025652Y-13887734D02*
X24987557Y-13887734D01*
X24987557Y-13887734D02*
X24968509Y-13878210D01*
X24968509Y-13878210D02*
X24958986Y-13868686D01*
X24958986Y-13868686D02*
X24949462Y-13849638D01*
X24949462Y-13849638D02*
X24949462Y-13792496D01*
X24949462Y-13792496D02*
X24958986Y-13773448D01*
X24958986Y-13773448D02*
X24968509Y-13763924D01*
X24968509Y-13763924D02*
X24987557Y-13754400D01*
X24987557Y-13754400D02*
X25025652Y-13754400D01*
X25025652Y-13754400D02*
X25044700Y-13763924D01*
X25120890Y-13963924D02*
X25130414Y-13954400D01*
X25130414Y-13954400D02*
X25149462Y-13925829D01*
X25149462Y-13925829D02*
X25158986Y-13906781D01*
X25158986Y-13906781D02*
X25168509Y-13878210D01*
X25168509Y-13878210D02*
X25178033Y-13830591D01*
X25178033Y-13830591D02*
X25178033Y-13792496D01*
X25178033Y-13792496D02*
X25168509Y-13744877D01*
X25168509Y-13744877D02*
X25158986Y-13716305D01*
X25158986Y-13716305D02*
X25149462Y-13697258D01*
X25149462Y-13697258D02*
X25130414Y-13668686D01*
X25130414Y-13668686D02*
X25120890Y-13659162D01*
X18264875Y-14016250D02*
X18264875Y-14216250D01*
X18164875Y-14116250D02*
X18364875Y-14116250D01*
X18606604Y-14007734D02*
X18730414Y-14007734D01*
X18730414Y-14007734D02*
X18663747Y-14083924D01*
X18663747Y-14083924D02*
X18692319Y-14083924D01*
X18692319Y-14083924D02*
X18711366Y-14093448D01*
X18711366Y-14093448D02*
X18720890Y-14102972D01*
X18720890Y-14102972D02*
X18730414Y-14122019D01*
X18730414Y-14122019D02*
X18730414Y-14169638D01*
X18730414Y-14169638D02*
X18720890Y-14188686D01*
X18720890Y-14188686D02*
X18711366Y-14198210D01*
X18711366Y-14198210D02*
X18692319Y-14207734D01*
X18692319Y-14207734D02*
X18635176Y-14207734D01*
X18635176Y-14207734D02*
X18616128Y-14198210D01*
X18616128Y-14198210D02*
X18606604Y-14188686D01*
X18816128Y-14188686D02*
X18825652Y-14198210D01*
X18825652Y-14198210D02*
X18816128Y-14207734D01*
X18816128Y-14207734D02*
X18806604Y-14198210D01*
X18806604Y-14198210D02*
X18816128Y-14188686D01*
X18816128Y-14188686D02*
X18816128Y-14207734D01*
X18949461Y-14007734D02*
X18968509Y-14007734D01*
X18968509Y-14007734D02*
X18987557Y-14017258D01*
X18987557Y-14017258D02*
X18997080Y-14026781D01*
X18997080Y-14026781D02*
X19006604Y-14045829D01*
X19006604Y-14045829D02*
X19016128Y-14083924D01*
X19016128Y-14083924D02*
X19016128Y-14131543D01*
X19016128Y-14131543D02*
X19006604Y-14169638D01*
X19006604Y-14169638D02*
X18997080Y-14188686D01*
X18997080Y-14188686D02*
X18987557Y-14198210D01*
X18987557Y-14198210D02*
X18968509Y-14207734D01*
X18968509Y-14207734D02*
X18949461Y-14207734D01*
X18949461Y-14207734D02*
X18930414Y-14198210D01*
X18930414Y-14198210D02*
X18920890Y-14188686D01*
X18920890Y-14188686D02*
X18911366Y-14169638D01*
X18911366Y-14169638D02*
X18901842Y-14131543D01*
X18901842Y-14131543D02*
X18901842Y-14083924D01*
X18901842Y-14083924D02*
X18911366Y-14045829D01*
X18911366Y-14045829D02*
X18920890Y-14026781D01*
X18920890Y-14026781D02*
X18930414Y-14017258D01*
X18930414Y-14017258D02*
X18949461Y-14007734D01*
X19187557Y-14074400D02*
X19187557Y-14207734D01*
X19139938Y-13998210D02*
X19092319Y-14141067D01*
X19092319Y-14141067D02*
X19216128Y-14141067D01*
X19320890Y-14093448D02*
X19301842Y-14083924D01*
X19301842Y-14083924D02*
X19292319Y-14074400D01*
X19292319Y-14074400D02*
X19282795Y-14055353D01*
X19282795Y-14055353D02*
X19282795Y-14045829D01*
X19282795Y-14045829D02*
X19292319Y-14026781D01*
X19292319Y-14026781D02*
X19301842Y-14017258D01*
X19301842Y-14017258D02*
X19320890Y-14007734D01*
X19320890Y-14007734D02*
X19358985Y-14007734D01*
X19358985Y-14007734D02*
X19378033Y-14017258D01*
X19378033Y-14017258D02*
X19387557Y-14026781D01*
X19387557Y-14026781D02*
X19397080Y-14045829D01*
X19397080Y-14045829D02*
X19397080Y-14055353D01*
X19397080Y-14055353D02*
X19387557Y-14074400D01*
X19387557Y-14074400D02*
X19378033Y-14083924D01*
X19378033Y-14083924D02*
X19358985Y-14093448D01*
X19358985Y-14093448D02*
X19320890Y-14093448D01*
X19320890Y-14093448D02*
X19301842Y-14102972D01*
X19301842Y-14102972D02*
X19292319Y-14112496D01*
X19292319Y-14112496D02*
X19282795Y-14131543D01*
X19282795Y-14131543D02*
X19282795Y-14169638D01*
X19282795Y-14169638D02*
X19292319Y-14188686D01*
X19292319Y-14188686D02*
X19301842Y-14198210D01*
X19301842Y-14198210D02*
X19320890Y-14207734D01*
X19320890Y-14207734D02*
X19358985Y-14207734D01*
X19358985Y-14207734D02*
X19378033Y-14198210D01*
X19378033Y-14198210D02*
X19387557Y-14188686D01*
X19387557Y-14188686D02*
X19397080Y-14169638D01*
X19397080Y-14169638D02*
X19397080Y-14131543D01*
X19397080Y-14131543D02*
X19387557Y-14112496D01*
X19387557Y-14112496D02*
X19378033Y-14102972D01*
X19378033Y-14102972D02*
X19358985Y-14093448D01*
X19482795Y-14207734D02*
X19482795Y-14074400D01*
X19482795Y-14093448D02*
X19492319Y-14083924D01*
X19492319Y-14083924D02*
X19511366Y-14074400D01*
X19511366Y-14074400D02*
X19539938Y-14074400D01*
X19539938Y-14074400D02*
X19558985Y-14083924D01*
X19558985Y-14083924D02*
X19568509Y-14102972D01*
X19568509Y-14102972D02*
X19568509Y-14207734D01*
X19568509Y-14102972D02*
X19578033Y-14083924D01*
X19578033Y-14083924D02*
X19597080Y-14074400D01*
X19597080Y-14074400D02*
X19625652Y-14074400D01*
X19625652Y-14074400D02*
X19644700Y-14083924D01*
X19644700Y-14083924D02*
X19654223Y-14102972D01*
X19654223Y-14102972D02*
X19654223Y-14207734D01*
X19749461Y-14207734D02*
X19749461Y-14074400D01*
X19749461Y-14093448D02*
X19758985Y-14083924D01*
X19758985Y-14083924D02*
X19778033Y-14074400D01*
X19778033Y-14074400D02*
X19806604Y-14074400D01*
X19806604Y-14074400D02*
X19825652Y-14083924D01*
X19825652Y-14083924D02*
X19835176Y-14102972D01*
X19835176Y-14102972D02*
X19835176Y-14207734D01*
X19835176Y-14102972D02*
X19844700Y-14083924D01*
X19844700Y-14083924D02*
X19863747Y-14074400D01*
X19863747Y-14074400D02*
X19892319Y-14074400D01*
X19892319Y-14074400D02*
X19911366Y-14083924D01*
X19911366Y-14083924D02*
X19920890Y-14102972D01*
X19920890Y-14102972D02*
X19920890Y-14207734D01*
X20311366Y-13998210D02*
X20139938Y-14255353D01*
X20568509Y-14007734D02*
X20587557Y-14007734D01*
X20587557Y-14007734D02*
X20606604Y-14017258D01*
X20606604Y-14017258D02*
X20616128Y-14026781D01*
X20616128Y-14026781D02*
X20625652Y-14045829D01*
X20625652Y-14045829D02*
X20635176Y-14083924D01*
X20635176Y-14083924D02*
X20635176Y-14131543D01*
X20635176Y-14131543D02*
X20625652Y-14169638D01*
X20625652Y-14169638D02*
X20616128Y-14188686D01*
X20616128Y-14188686D02*
X20606604Y-14198210D01*
X20606604Y-14198210D02*
X20587557Y-14207734D01*
X20587557Y-14207734D02*
X20568509Y-14207734D01*
X20568509Y-14207734D02*
X20549462Y-14198210D01*
X20549462Y-14198210D02*
X20539938Y-14188686D01*
X20539938Y-14188686D02*
X20530414Y-14169638D01*
X20530414Y-14169638D02*
X20520890Y-14131543D01*
X20520890Y-14131543D02*
X20520890Y-14083924D01*
X20520890Y-14083924D02*
X20530414Y-14045829D01*
X20530414Y-14045829D02*
X20539938Y-14026781D01*
X20539938Y-14026781D02*
X20549462Y-14017258D01*
X20549462Y-14017258D02*
X20568509Y-14007734D01*
X20720890Y-14188686D02*
X20730414Y-14198210D01*
X20730414Y-14198210D02*
X20720890Y-14207734D01*
X20720890Y-14207734D02*
X20711366Y-14198210D01*
X20711366Y-14198210D02*
X20720890Y-14188686D01*
X20720890Y-14188686D02*
X20720890Y-14207734D01*
X20920890Y-14207734D02*
X20806604Y-14207734D01*
X20863747Y-14207734D02*
X20863747Y-14007734D01*
X20863747Y-14007734D02*
X20844700Y-14036305D01*
X20844700Y-14036305D02*
X20825652Y-14055353D01*
X20825652Y-14055353D02*
X20806604Y-14064877D01*
X20997081Y-14026781D02*
X21006604Y-14017258D01*
X21006604Y-14017258D02*
X21025652Y-14007734D01*
X21025652Y-14007734D02*
X21073271Y-14007734D01*
X21073271Y-14007734D02*
X21092319Y-14017258D01*
X21092319Y-14017258D02*
X21101843Y-14026781D01*
X21101843Y-14026781D02*
X21111366Y-14045829D01*
X21111366Y-14045829D02*
X21111366Y-14064877D01*
X21111366Y-14064877D02*
X21101843Y-14093448D01*
X21101843Y-14093448D02*
X20987557Y-14207734D01*
X20987557Y-14207734D02*
X21111366Y-14207734D01*
X21235176Y-14007734D02*
X21254224Y-14007734D01*
X21254224Y-14007734D02*
X21273271Y-14017258D01*
X21273271Y-14017258D02*
X21282795Y-14026781D01*
X21282795Y-14026781D02*
X21292319Y-14045829D01*
X21292319Y-14045829D02*
X21301843Y-14083924D01*
X21301843Y-14083924D02*
X21301843Y-14131543D01*
X21301843Y-14131543D02*
X21292319Y-14169638D01*
X21292319Y-14169638D02*
X21282795Y-14188686D01*
X21282795Y-14188686D02*
X21273271Y-14198210D01*
X21273271Y-14198210D02*
X21254224Y-14207734D01*
X21254224Y-14207734D02*
X21235176Y-14207734D01*
X21235176Y-14207734D02*
X21216128Y-14198210D01*
X21216128Y-14198210D02*
X21206604Y-14188686D01*
X21206604Y-14188686D02*
X21197081Y-14169638D01*
X21197081Y-14169638D02*
X21187557Y-14131543D01*
X21187557Y-14131543D02*
X21187557Y-14083924D01*
X21187557Y-14083924D02*
X21197081Y-14045829D01*
X21197081Y-14045829D02*
X21206604Y-14026781D01*
X21206604Y-14026781D02*
X21216128Y-14017258D01*
X21216128Y-14017258D02*
X21235176Y-14007734D01*
X21425652Y-14007734D02*
X21444700Y-14007734D01*
X21444700Y-14007734D02*
X21463747Y-14017258D01*
X21463747Y-14017258D02*
X21473271Y-14026781D01*
X21473271Y-14026781D02*
X21482795Y-14045829D01*
X21482795Y-14045829D02*
X21492319Y-14083924D01*
X21492319Y-14083924D02*
X21492319Y-14131543D01*
X21492319Y-14131543D02*
X21482795Y-14169638D01*
X21482795Y-14169638D02*
X21473271Y-14188686D01*
X21473271Y-14188686D02*
X21463747Y-14198210D01*
X21463747Y-14198210D02*
X21444700Y-14207734D01*
X21444700Y-14207734D02*
X21425652Y-14207734D01*
X21425652Y-14207734D02*
X21406604Y-14198210D01*
X21406604Y-14198210D02*
X21397081Y-14188686D01*
X21397081Y-14188686D02*
X21387557Y-14169638D01*
X21387557Y-14169638D02*
X21378033Y-14131543D01*
X21378033Y-14131543D02*
X21378033Y-14083924D01*
X21378033Y-14083924D02*
X21387557Y-14045829D01*
X21387557Y-14045829D02*
X21397081Y-14026781D01*
X21397081Y-14026781D02*
X21406604Y-14017258D01*
X21406604Y-14017258D02*
X21425652Y-14007734D01*
X21568509Y-14007734D02*
X21568509Y-14045829D01*
X21644700Y-14007734D02*
X21644700Y-14045829D01*
X21939938Y-14283924D02*
X21930414Y-14274400D01*
X21930414Y-14274400D02*
X21911366Y-14245829D01*
X21911366Y-14245829D02*
X21901843Y-14226781D01*
X21901843Y-14226781D02*
X21892319Y-14198210D01*
X21892319Y-14198210D02*
X21882795Y-14150591D01*
X21882795Y-14150591D02*
X21882795Y-14112496D01*
X21882795Y-14112496D02*
X21892319Y-14064877D01*
X21892319Y-14064877D02*
X21901843Y-14036305D01*
X21901843Y-14036305D02*
X21911366Y-14017258D01*
X21911366Y-14017258D02*
X21930414Y-13988686D01*
X21930414Y-13988686D02*
X21939938Y-13979162D01*
X22101843Y-14007734D02*
X22063747Y-14007734D01*
X22063747Y-14007734D02*
X22044700Y-14017258D01*
X22044700Y-14017258D02*
X22035176Y-14026781D01*
X22035176Y-14026781D02*
X22016128Y-14055353D01*
X22016128Y-14055353D02*
X22006605Y-14093448D01*
X22006605Y-14093448D02*
X22006605Y-14169638D01*
X22006605Y-14169638D02*
X22016128Y-14188686D01*
X22016128Y-14188686D02*
X22025652Y-14198210D01*
X22025652Y-14198210D02*
X22044700Y-14207734D01*
X22044700Y-14207734D02*
X22082795Y-14207734D01*
X22082795Y-14207734D02*
X22101843Y-14198210D01*
X22101843Y-14198210D02*
X22111366Y-14188686D01*
X22111366Y-14188686D02*
X22120890Y-14169638D01*
X22120890Y-14169638D02*
X22120890Y-14122019D01*
X22120890Y-14122019D02*
X22111366Y-14102972D01*
X22111366Y-14102972D02*
X22101843Y-14093448D01*
X22101843Y-14093448D02*
X22082795Y-14083924D01*
X22082795Y-14083924D02*
X22044700Y-14083924D01*
X22044700Y-14083924D02*
X22025652Y-14093448D01*
X22025652Y-14093448D02*
X22016128Y-14102972D01*
X22016128Y-14102972D02*
X22006605Y-14122019D01*
X22358986Y-14207734D02*
X22358986Y-14007734D01*
X22444700Y-14207734D02*
X22444700Y-14102972D01*
X22444700Y-14102972D02*
X22435176Y-14083924D01*
X22435176Y-14083924D02*
X22416128Y-14074400D01*
X22416128Y-14074400D02*
X22387557Y-14074400D01*
X22387557Y-14074400D02*
X22368509Y-14083924D01*
X22368509Y-14083924D02*
X22358986Y-14093448D01*
X22568509Y-14207734D02*
X22549462Y-14198210D01*
X22549462Y-14198210D02*
X22539938Y-14188686D01*
X22539938Y-14188686D02*
X22530414Y-14169638D01*
X22530414Y-14169638D02*
X22530414Y-14112496D01*
X22530414Y-14112496D02*
X22539938Y-14093448D01*
X22539938Y-14093448D02*
X22549462Y-14083924D01*
X22549462Y-14083924D02*
X22568509Y-14074400D01*
X22568509Y-14074400D02*
X22597081Y-14074400D01*
X22597081Y-14074400D02*
X22616128Y-14083924D01*
X22616128Y-14083924D02*
X22625652Y-14093448D01*
X22625652Y-14093448D02*
X22635176Y-14112496D01*
X22635176Y-14112496D02*
X22635176Y-14169638D01*
X22635176Y-14169638D02*
X22625652Y-14188686D01*
X22625652Y-14188686D02*
X22616128Y-14198210D01*
X22616128Y-14198210D02*
X22597081Y-14207734D01*
X22597081Y-14207734D02*
X22568509Y-14207734D01*
X22749462Y-14207734D02*
X22730414Y-14198210D01*
X22730414Y-14198210D02*
X22720890Y-14179162D01*
X22720890Y-14179162D02*
X22720890Y-14007734D01*
X22901843Y-14198210D02*
X22882795Y-14207734D01*
X22882795Y-14207734D02*
X22844700Y-14207734D01*
X22844700Y-14207734D02*
X22825652Y-14198210D01*
X22825652Y-14198210D02*
X22816128Y-14179162D01*
X22816128Y-14179162D02*
X22816128Y-14102972D01*
X22816128Y-14102972D02*
X22825652Y-14083924D01*
X22825652Y-14083924D02*
X22844700Y-14074400D01*
X22844700Y-14074400D02*
X22882795Y-14074400D01*
X22882795Y-14074400D02*
X22901843Y-14083924D01*
X22901843Y-14083924D02*
X22911366Y-14102972D01*
X22911366Y-14102972D02*
X22911366Y-14122019D01*
X22911366Y-14122019D02*
X22816128Y-14141067D01*
X22987557Y-14198210D02*
X23006605Y-14207734D01*
X23006605Y-14207734D02*
X23044700Y-14207734D01*
X23044700Y-14207734D02*
X23063747Y-14198210D01*
X23063747Y-14198210D02*
X23073271Y-14179162D01*
X23073271Y-14179162D02*
X23073271Y-14169638D01*
X23073271Y-14169638D02*
X23063747Y-14150591D01*
X23063747Y-14150591D02*
X23044700Y-14141067D01*
X23044700Y-14141067D02*
X23016128Y-14141067D01*
X23016128Y-14141067D02*
X22997081Y-14131543D01*
X22997081Y-14131543D02*
X22987557Y-14112496D01*
X22987557Y-14112496D02*
X22987557Y-14102972D01*
X22987557Y-14102972D02*
X22997081Y-14083924D01*
X22997081Y-14083924D02*
X23016128Y-14074400D01*
X23016128Y-14074400D02*
X23044700Y-14074400D01*
X23044700Y-14074400D02*
X23063747Y-14083924D01*
X23139938Y-14283924D02*
X23149462Y-14274400D01*
X23149462Y-14274400D02*
X23168509Y-14245829D01*
X23168509Y-14245829D02*
X23178033Y-14226781D01*
X23178033Y-14226781D02*
X23187557Y-14198210D01*
X23187557Y-14198210D02*
X23197081Y-14150591D01*
X23197081Y-14150591D02*
X23197081Y-14112496D01*
X23197081Y-14112496D02*
X23187557Y-14064877D01*
X23187557Y-14064877D02*
X23178033Y-14036305D01*
X23178033Y-14036305D02*
X23168509Y-14017258D01*
X23168509Y-14017258D02*
X23149462Y-13988686D01*
X23149462Y-13988686D02*
X23139938Y-13979162D01*
X23501843Y-14283924D02*
X23492319Y-14274400D01*
X23492319Y-14274400D02*
X23473271Y-14245829D01*
X23473271Y-14245829D02*
X23463747Y-14226781D01*
X23463747Y-14226781D02*
X23454224Y-14198210D01*
X23454224Y-14198210D02*
X23444700Y-14150591D01*
X23444700Y-14150591D02*
X23444700Y-14112496D01*
X23444700Y-14112496D02*
X23454224Y-14064877D01*
X23454224Y-14064877D02*
X23463747Y-14036305D01*
X23463747Y-14036305D02*
X23473271Y-14017258D01*
X23473271Y-14017258D02*
X23492319Y-13988686D01*
X23492319Y-13988686D02*
X23501843Y-13979162D01*
X23578033Y-14074400D02*
X23578033Y-14207734D01*
X23578033Y-14093448D02*
X23587557Y-14083924D01*
X23587557Y-14083924D02*
X23606605Y-14074400D01*
X23606605Y-14074400D02*
X23635176Y-14074400D01*
X23635176Y-14074400D02*
X23654224Y-14083924D01*
X23654224Y-14083924D02*
X23663747Y-14102972D01*
X23663747Y-14102972D02*
X23663747Y-14207734D01*
X23787557Y-14207734D02*
X23768509Y-14198210D01*
X23768509Y-14198210D02*
X23758986Y-14188686D01*
X23758986Y-14188686D02*
X23749462Y-14169638D01*
X23749462Y-14169638D02*
X23749462Y-14112496D01*
X23749462Y-14112496D02*
X23758986Y-14093448D01*
X23758986Y-14093448D02*
X23768509Y-14083924D01*
X23768509Y-14083924D02*
X23787557Y-14074400D01*
X23787557Y-14074400D02*
X23816128Y-14074400D01*
X23816128Y-14074400D02*
X23835176Y-14083924D01*
X23835176Y-14083924D02*
X23844700Y-14093448D01*
X23844700Y-14093448D02*
X23854224Y-14112496D01*
X23854224Y-14112496D02*
X23854224Y-14169638D01*
X23854224Y-14169638D02*
X23844700Y-14188686D01*
X23844700Y-14188686D02*
X23835176Y-14198210D01*
X23835176Y-14198210D02*
X23816128Y-14207734D01*
X23816128Y-14207734D02*
X23787557Y-14207734D01*
X23911367Y-14074400D02*
X23987557Y-14074400D01*
X23939938Y-14007734D02*
X23939938Y-14179162D01*
X23939938Y-14179162D02*
X23949462Y-14198210D01*
X23949462Y-14198210D02*
X23968509Y-14207734D01*
X23968509Y-14207734D02*
X23987557Y-14207734D01*
X24206605Y-14074400D02*
X24206605Y-14274400D01*
X24206605Y-14083924D02*
X24225652Y-14074400D01*
X24225652Y-14074400D02*
X24263748Y-14074400D01*
X24263748Y-14074400D02*
X24282795Y-14083924D01*
X24282795Y-14083924D02*
X24292319Y-14093448D01*
X24292319Y-14093448D02*
X24301843Y-14112496D01*
X24301843Y-14112496D02*
X24301843Y-14169638D01*
X24301843Y-14169638D02*
X24292319Y-14188686D01*
X24292319Y-14188686D02*
X24282795Y-14198210D01*
X24282795Y-14198210D02*
X24263748Y-14207734D01*
X24263748Y-14207734D02*
X24225652Y-14207734D01*
X24225652Y-14207734D02*
X24206605Y-14198210D01*
X24416128Y-14207734D02*
X24397081Y-14198210D01*
X24397081Y-14198210D02*
X24387557Y-14179162D01*
X24387557Y-14179162D02*
X24387557Y-14007734D01*
X24578033Y-14207734D02*
X24578033Y-14102972D01*
X24578033Y-14102972D02*
X24568509Y-14083924D01*
X24568509Y-14083924D02*
X24549462Y-14074400D01*
X24549462Y-14074400D02*
X24511367Y-14074400D01*
X24511367Y-14074400D02*
X24492319Y-14083924D01*
X24578033Y-14198210D02*
X24558986Y-14207734D01*
X24558986Y-14207734D02*
X24511367Y-14207734D01*
X24511367Y-14207734D02*
X24492319Y-14198210D01*
X24492319Y-14198210D02*
X24482795Y-14179162D01*
X24482795Y-14179162D02*
X24482795Y-14160115D01*
X24482795Y-14160115D02*
X24492319Y-14141067D01*
X24492319Y-14141067D02*
X24511367Y-14131543D01*
X24511367Y-14131543D02*
X24558986Y-14131543D01*
X24558986Y-14131543D02*
X24578033Y-14122019D01*
X24644700Y-14074400D02*
X24720890Y-14074400D01*
X24673271Y-14007734D02*
X24673271Y-14179162D01*
X24673271Y-14179162D02*
X24682795Y-14198210D01*
X24682795Y-14198210D02*
X24701843Y-14207734D01*
X24701843Y-14207734D02*
X24720890Y-14207734D01*
X24863748Y-14198210D02*
X24844700Y-14207734D01*
X24844700Y-14207734D02*
X24806605Y-14207734D01*
X24806605Y-14207734D02*
X24787557Y-14198210D01*
X24787557Y-14198210D02*
X24778033Y-14179162D01*
X24778033Y-14179162D02*
X24778033Y-14102972D01*
X24778033Y-14102972D02*
X24787557Y-14083924D01*
X24787557Y-14083924D02*
X24806605Y-14074400D01*
X24806605Y-14074400D02*
X24844700Y-14074400D01*
X24844700Y-14074400D02*
X24863748Y-14083924D01*
X24863748Y-14083924D02*
X24873271Y-14102972D01*
X24873271Y-14102972D02*
X24873271Y-14122019D01*
X24873271Y-14122019D02*
X24778033Y-14141067D01*
X25044700Y-14207734D02*
X25044700Y-14007734D01*
X25044700Y-14198210D02*
X25025652Y-14207734D01*
X25025652Y-14207734D02*
X24987557Y-14207734D01*
X24987557Y-14207734D02*
X24968509Y-14198210D01*
X24968509Y-14198210D02*
X24958986Y-14188686D01*
X24958986Y-14188686D02*
X24949462Y-14169638D01*
X24949462Y-14169638D02*
X24949462Y-14112496D01*
X24949462Y-14112496D02*
X24958986Y-14093448D01*
X24958986Y-14093448D02*
X24968509Y-14083924D01*
X24968509Y-14083924D02*
X24987557Y-14074400D01*
X24987557Y-14074400D02*
X25025652Y-14074400D01*
X25025652Y-14074400D02*
X25044700Y-14083924D01*
X25120890Y-14283924D02*
X25130414Y-14274400D01*
X25130414Y-14274400D02*
X25149462Y-14245829D01*
X25149462Y-14245829D02*
X25158986Y-14226781D01*
X25158986Y-14226781D02*
X25168509Y-14198210D01*
X25168509Y-14198210D02*
X25178033Y-14150591D01*
X25178033Y-14150591D02*
X25178033Y-14112496D01*
X25178033Y-14112496D02*
X25168509Y-14064877D01*
X25168509Y-14064877D02*
X25158986Y-14036305D01*
X25158986Y-14036305D02*
X25149462Y-14017258D01*
X25149462Y-14017258D02*
X25130414Y-13988686D01*
X25130414Y-13988686D02*
X25120890Y-13979162D01*
X18335586Y-14506961D02*
X18335586Y-14365539D01*
X18194164Y-14365539D01*
X18194164Y-14506961D01*
X18335586Y-14506961D01*
X18606604Y-14327734D02*
X18730414Y-14327734D01*
X18730414Y-14327734D02*
X18663747Y-14403924D01*
X18663747Y-14403924D02*
X18692319Y-14403924D01*
X18692319Y-14403924D02*
X18711366Y-14413448D01*
X18711366Y-14413448D02*
X18720890Y-14422972D01*
X18720890Y-14422972D02*
X18730414Y-14442019D01*
X18730414Y-14442019D02*
X18730414Y-14489638D01*
X18730414Y-14489638D02*
X18720890Y-14508686D01*
X18720890Y-14508686D02*
X18711366Y-14518210D01*
X18711366Y-14518210D02*
X18692319Y-14527734D01*
X18692319Y-14527734D02*
X18635176Y-14527734D01*
X18635176Y-14527734D02*
X18616128Y-14518210D01*
X18616128Y-14518210D02*
X18606604Y-14508686D01*
X18816128Y-14508686D02*
X18825652Y-14518210D01*
X18825652Y-14518210D02*
X18816128Y-14527734D01*
X18816128Y-14527734D02*
X18806604Y-14518210D01*
X18806604Y-14518210D02*
X18816128Y-14508686D01*
X18816128Y-14508686D02*
X18816128Y-14527734D01*
X18920890Y-14527734D02*
X18958985Y-14527734D01*
X18958985Y-14527734D02*
X18978033Y-14518210D01*
X18978033Y-14518210D02*
X18987557Y-14508686D01*
X18987557Y-14508686D02*
X19006604Y-14480115D01*
X19006604Y-14480115D02*
X19016128Y-14442019D01*
X19016128Y-14442019D02*
X19016128Y-14365829D01*
X19016128Y-14365829D02*
X19006604Y-14346781D01*
X19006604Y-14346781D02*
X18997080Y-14337258D01*
X18997080Y-14337258D02*
X18978033Y-14327734D01*
X18978033Y-14327734D02*
X18939938Y-14327734D01*
X18939938Y-14327734D02*
X18920890Y-14337258D01*
X18920890Y-14337258D02*
X18911366Y-14346781D01*
X18911366Y-14346781D02*
X18901842Y-14365829D01*
X18901842Y-14365829D02*
X18901842Y-14413448D01*
X18901842Y-14413448D02*
X18911366Y-14432496D01*
X18911366Y-14432496D02*
X18920890Y-14442019D01*
X18920890Y-14442019D02*
X18939938Y-14451543D01*
X18939938Y-14451543D02*
X18978033Y-14451543D01*
X18978033Y-14451543D02*
X18997080Y-14442019D01*
X18997080Y-14442019D02*
X19006604Y-14432496D01*
X19006604Y-14432496D02*
X19016128Y-14413448D01*
X19130414Y-14413448D02*
X19111366Y-14403924D01*
X19111366Y-14403924D02*
X19101842Y-14394400D01*
X19101842Y-14394400D02*
X19092319Y-14375353D01*
X19092319Y-14375353D02*
X19092319Y-14365829D01*
X19092319Y-14365829D02*
X19101842Y-14346781D01*
X19101842Y-14346781D02*
X19111366Y-14337258D01*
X19111366Y-14337258D02*
X19130414Y-14327734D01*
X19130414Y-14327734D02*
X19168509Y-14327734D01*
X19168509Y-14327734D02*
X19187557Y-14337258D01*
X19187557Y-14337258D02*
X19197080Y-14346781D01*
X19197080Y-14346781D02*
X19206604Y-14365829D01*
X19206604Y-14365829D02*
X19206604Y-14375353D01*
X19206604Y-14375353D02*
X19197080Y-14394400D01*
X19197080Y-14394400D02*
X19187557Y-14403924D01*
X19187557Y-14403924D02*
X19168509Y-14413448D01*
X19168509Y-14413448D02*
X19130414Y-14413448D01*
X19130414Y-14413448D02*
X19111366Y-14422972D01*
X19111366Y-14422972D02*
X19101842Y-14432496D01*
X19101842Y-14432496D02*
X19092319Y-14451543D01*
X19092319Y-14451543D02*
X19092319Y-14489638D01*
X19092319Y-14489638D02*
X19101842Y-14508686D01*
X19101842Y-14508686D02*
X19111366Y-14518210D01*
X19111366Y-14518210D02*
X19130414Y-14527734D01*
X19130414Y-14527734D02*
X19168509Y-14527734D01*
X19168509Y-14527734D02*
X19187557Y-14518210D01*
X19187557Y-14518210D02*
X19197080Y-14508686D01*
X19197080Y-14508686D02*
X19206604Y-14489638D01*
X19206604Y-14489638D02*
X19206604Y-14451543D01*
X19206604Y-14451543D02*
X19197080Y-14432496D01*
X19197080Y-14432496D02*
X19187557Y-14422972D01*
X19187557Y-14422972D02*
X19168509Y-14413448D01*
X19320890Y-14413448D02*
X19301842Y-14403924D01*
X19301842Y-14403924D02*
X19292319Y-14394400D01*
X19292319Y-14394400D02*
X19282795Y-14375353D01*
X19282795Y-14375353D02*
X19282795Y-14365829D01*
X19282795Y-14365829D02*
X19292319Y-14346781D01*
X19292319Y-14346781D02*
X19301842Y-14337258D01*
X19301842Y-14337258D02*
X19320890Y-14327734D01*
X19320890Y-14327734D02*
X19358985Y-14327734D01*
X19358985Y-14327734D02*
X19378033Y-14337258D01*
X19378033Y-14337258D02*
X19387557Y-14346781D01*
X19387557Y-14346781D02*
X19397080Y-14365829D01*
X19397080Y-14365829D02*
X19397080Y-14375353D01*
X19397080Y-14375353D02*
X19387557Y-14394400D01*
X19387557Y-14394400D02*
X19378033Y-14403924D01*
X19378033Y-14403924D02*
X19358985Y-14413448D01*
X19358985Y-14413448D02*
X19320890Y-14413448D01*
X19320890Y-14413448D02*
X19301842Y-14422972D01*
X19301842Y-14422972D02*
X19292319Y-14432496D01*
X19292319Y-14432496D02*
X19282795Y-14451543D01*
X19282795Y-14451543D02*
X19282795Y-14489638D01*
X19282795Y-14489638D02*
X19292319Y-14508686D01*
X19292319Y-14508686D02*
X19301842Y-14518210D01*
X19301842Y-14518210D02*
X19320890Y-14527734D01*
X19320890Y-14527734D02*
X19358985Y-14527734D01*
X19358985Y-14527734D02*
X19378033Y-14518210D01*
X19378033Y-14518210D02*
X19387557Y-14508686D01*
X19387557Y-14508686D02*
X19397080Y-14489638D01*
X19397080Y-14489638D02*
X19397080Y-14451543D01*
X19397080Y-14451543D02*
X19387557Y-14432496D01*
X19387557Y-14432496D02*
X19378033Y-14422972D01*
X19378033Y-14422972D02*
X19358985Y-14413448D01*
X19482795Y-14527734D02*
X19482795Y-14394400D01*
X19482795Y-14413448D02*
X19492319Y-14403924D01*
X19492319Y-14403924D02*
X19511366Y-14394400D01*
X19511366Y-14394400D02*
X19539938Y-14394400D01*
X19539938Y-14394400D02*
X19558985Y-14403924D01*
X19558985Y-14403924D02*
X19568509Y-14422972D01*
X19568509Y-14422972D02*
X19568509Y-14527734D01*
X19568509Y-14422972D02*
X19578033Y-14403924D01*
X19578033Y-14403924D02*
X19597080Y-14394400D01*
X19597080Y-14394400D02*
X19625652Y-14394400D01*
X19625652Y-14394400D02*
X19644700Y-14403924D01*
X19644700Y-14403924D02*
X19654223Y-14422972D01*
X19654223Y-14422972D02*
X19654223Y-14527734D01*
X19749461Y-14527734D02*
X19749461Y-14394400D01*
X19749461Y-14413448D02*
X19758985Y-14403924D01*
X19758985Y-14403924D02*
X19778033Y-14394400D01*
X19778033Y-14394400D02*
X19806604Y-14394400D01*
X19806604Y-14394400D02*
X19825652Y-14403924D01*
X19825652Y-14403924D02*
X19835176Y-14422972D01*
X19835176Y-14422972D02*
X19835176Y-14527734D01*
X19835176Y-14422972D02*
X19844700Y-14403924D01*
X19844700Y-14403924D02*
X19863747Y-14394400D01*
X19863747Y-14394400D02*
X19892319Y-14394400D01*
X19892319Y-14394400D02*
X19911366Y-14403924D01*
X19911366Y-14403924D02*
X19920890Y-14422972D01*
X19920890Y-14422972D02*
X19920890Y-14527734D01*
X20311366Y-14318210D02*
X20139938Y-14575353D01*
X20568509Y-14327734D02*
X20587557Y-14327734D01*
X20587557Y-14327734D02*
X20606604Y-14337258D01*
X20606604Y-14337258D02*
X20616128Y-14346781D01*
X20616128Y-14346781D02*
X20625652Y-14365829D01*
X20625652Y-14365829D02*
X20635176Y-14403924D01*
X20635176Y-14403924D02*
X20635176Y-14451543D01*
X20635176Y-14451543D02*
X20625652Y-14489638D01*
X20625652Y-14489638D02*
X20616128Y-14508686D01*
X20616128Y-14508686D02*
X20606604Y-14518210D01*
X20606604Y-14518210D02*
X20587557Y-14527734D01*
X20587557Y-14527734D02*
X20568509Y-14527734D01*
X20568509Y-14527734D02*
X20549462Y-14518210D01*
X20549462Y-14518210D02*
X20539938Y-14508686D01*
X20539938Y-14508686D02*
X20530414Y-14489638D01*
X20530414Y-14489638D02*
X20520890Y-14451543D01*
X20520890Y-14451543D02*
X20520890Y-14403924D01*
X20520890Y-14403924D02*
X20530414Y-14365829D01*
X20530414Y-14365829D02*
X20539938Y-14346781D01*
X20539938Y-14346781D02*
X20549462Y-14337258D01*
X20549462Y-14337258D02*
X20568509Y-14327734D01*
X20720890Y-14508686D02*
X20730414Y-14518210D01*
X20730414Y-14518210D02*
X20720890Y-14527734D01*
X20720890Y-14527734D02*
X20711366Y-14518210D01*
X20711366Y-14518210D02*
X20720890Y-14508686D01*
X20720890Y-14508686D02*
X20720890Y-14527734D01*
X20920890Y-14527734D02*
X20806604Y-14527734D01*
X20863747Y-14527734D02*
X20863747Y-14327734D01*
X20863747Y-14327734D02*
X20844700Y-14356305D01*
X20844700Y-14356305D02*
X20825652Y-14375353D01*
X20825652Y-14375353D02*
X20806604Y-14384877D01*
X21101843Y-14327734D02*
X21006604Y-14327734D01*
X21006604Y-14327734D02*
X20997081Y-14422972D01*
X20997081Y-14422972D02*
X21006604Y-14413448D01*
X21006604Y-14413448D02*
X21025652Y-14403924D01*
X21025652Y-14403924D02*
X21073271Y-14403924D01*
X21073271Y-14403924D02*
X21092319Y-14413448D01*
X21092319Y-14413448D02*
X21101843Y-14422972D01*
X21101843Y-14422972D02*
X21111366Y-14442019D01*
X21111366Y-14442019D02*
X21111366Y-14489638D01*
X21111366Y-14489638D02*
X21101843Y-14508686D01*
X21101843Y-14508686D02*
X21092319Y-14518210D01*
X21092319Y-14518210D02*
X21073271Y-14527734D01*
X21073271Y-14527734D02*
X21025652Y-14527734D01*
X21025652Y-14527734D02*
X21006604Y-14518210D01*
X21006604Y-14518210D02*
X20997081Y-14508686D01*
X21178033Y-14327734D02*
X21311366Y-14327734D01*
X21311366Y-14327734D02*
X21225652Y-14527734D01*
X21425652Y-14327734D02*
X21444700Y-14327734D01*
X21444700Y-14327734D02*
X21463747Y-14337258D01*
X21463747Y-14337258D02*
X21473271Y-14346781D01*
X21473271Y-14346781D02*
X21482795Y-14365829D01*
X21482795Y-14365829D02*
X21492319Y-14403924D01*
X21492319Y-14403924D02*
X21492319Y-14451543D01*
X21492319Y-14451543D02*
X21482795Y-14489638D01*
X21482795Y-14489638D02*
X21473271Y-14508686D01*
X21473271Y-14508686D02*
X21463747Y-14518210D01*
X21463747Y-14518210D02*
X21444700Y-14527734D01*
X21444700Y-14527734D02*
X21425652Y-14527734D01*
X21425652Y-14527734D02*
X21406604Y-14518210D01*
X21406604Y-14518210D02*
X21397081Y-14508686D01*
X21397081Y-14508686D02*
X21387557Y-14489638D01*
X21387557Y-14489638D02*
X21378033Y-14451543D01*
X21378033Y-14451543D02*
X21378033Y-14403924D01*
X21378033Y-14403924D02*
X21387557Y-14365829D01*
X21387557Y-14365829D02*
X21397081Y-14346781D01*
X21397081Y-14346781D02*
X21406604Y-14337258D01*
X21406604Y-14337258D02*
X21425652Y-14327734D01*
X21568509Y-14327734D02*
X21568509Y-14365829D01*
X21644700Y-14327734D02*
X21644700Y-14365829D01*
X21939938Y-14603924D02*
X21930414Y-14594400D01*
X21930414Y-14594400D02*
X21911366Y-14565829D01*
X21911366Y-14565829D02*
X21901843Y-14546781D01*
X21901843Y-14546781D02*
X21892319Y-14518210D01*
X21892319Y-14518210D02*
X21882795Y-14470591D01*
X21882795Y-14470591D02*
X21882795Y-14432496D01*
X21882795Y-14432496D02*
X21892319Y-14384877D01*
X21892319Y-14384877D02*
X21901843Y-14356305D01*
X21901843Y-14356305D02*
X21911366Y-14337258D01*
X21911366Y-14337258D02*
X21930414Y-14308686D01*
X21930414Y-14308686D02*
X21939938Y-14299162D01*
X22101843Y-14327734D02*
X22063747Y-14327734D01*
X22063747Y-14327734D02*
X22044700Y-14337258D01*
X22044700Y-14337258D02*
X22035176Y-14346781D01*
X22035176Y-14346781D02*
X22016128Y-14375353D01*
X22016128Y-14375353D02*
X22006605Y-14413448D01*
X22006605Y-14413448D02*
X22006605Y-14489638D01*
X22006605Y-14489638D02*
X22016128Y-14508686D01*
X22016128Y-14508686D02*
X22025652Y-14518210D01*
X22025652Y-14518210D02*
X22044700Y-14527734D01*
X22044700Y-14527734D02*
X22082795Y-14527734D01*
X22082795Y-14527734D02*
X22101843Y-14518210D01*
X22101843Y-14518210D02*
X22111366Y-14508686D01*
X22111366Y-14508686D02*
X22120890Y-14489638D01*
X22120890Y-14489638D02*
X22120890Y-14442019D01*
X22120890Y-14442019D02*
X22111366Y-14422972D01*
X22111366Y-14422972D02*
X22101843Y-14413448D01*
X22101843Y-14413448D02*
X22082795Y-14403924D01*
X22082795Y-14403924D02*
X22044700Y-14403924D01*
X22044700Y-14403924D02*
X22025652Y-14413448D01*
X22025652Y-14413448D02*
X22016128Y-14422972D01*
X22016128Y-14422972D02*
X22006605Y-14442019D01*
X22358986Y-14527734D02*
X22358986Y-14327734D01*
X22444700Y-14527734D02*
X22444700Y-14422972D01*
X22444700Y-14422972D02*
X22435176Y-14403924D01*
X22435176Y-14403924D02*
X22416128Y-14394400D01*
X22416128Y-14394400D02*
X22387557Y-14394400D01*
X22387557Y-14394400D02*
X22368509Y-14403924D01*
X22368509Y-14403924D02*
X22358986Y-14413448D01*
X22568509Y-14527734D02*
X22549462Y-14518210D01*
X22549462Y-14518210D02*
X22539938Y-14508686D01*
X22539938Y-14508686D02*
X22530414Y-14489638D01*
X22530414Y-14489638D02*
X22530414Y-14432496D01*
X22530414Y-14432496D02*
X22539938Y-14413448D01*
X22539938Y-14413448D02*
X22549462Y-14403924D01*
X22549462Y-14403924D02*
X22568509Y-14394400D01*
X22568509Y-14394400D02*
X22597081Y-14394400D01*
X22597081Y-14394400D02*
X22616128Y-14403924D01*
X22616128Y-14403924D02*
X22625652Y-14413448D01*
X22625652Y-14413448D02*
X22635176Y-14432496D01*
X22635176Y-14432496D02*
X22635176Y-14489638D01*
X22635176Y-14489638D02*
X22625652Y-14508686D01*
X22625652Y-14508686D02*
X22616128Y-14518210D01*
X22616128Y-14518210D02*
X22597081Y-14527734D01*
X22597081Y-14527734D02*
X22568509Y-14527734D01*
X22749462Y-14527734D02*
X22730414Y-14518210D01*
X22730414Y-14518210D02*
X22720890Y-14499162D01*
X22720890Y-14499162D02*
X22720890Y-14327734D01*
X22901843Y-14518210D02*
X22882795Y-14527734D01*
X22882795Y-14527734D02*
X22844700Y-14527734D01*
X22844700Y-14527734D02*
X22825652Y-14518210D01*
X22825652Y-14518210D02*
X22816128Y-14499162D01*
X22816128Y-14499162D02*
X22816128Y-14422972D01*
X22816128Y-14422972D02*
X22825652Y-14403924D01*
X22825652Y-14403924D02*
X22844700Y-14394400D01*
X22844700Y-14394400D02*
X22882795Y-14394400D01*
X22882795Y-14394400D02*
X22901843Y-14403924D01*
X22901843Y-14403924D02*
X22911366Y-14422972D01*
X22911366Y-14422972D02*
X22911366Y-14442019D01*
X22911366Y-14442019D02*
X22816128Y-14461067D01*
X22987557Y-14518210D02*
X23006605Y-14527734D01*
X23006605Y-14527734D02*
X23044700Y-14527734D01*
X23044700Y-14527734D02*
X23063747Y-14518210D01*
X23063747Y-14518210D02*
X23073271Y-14499162D01*
X23073271Y-14499162D02*
X23073271Y-14489638D01*
X23073271Y-14489638D02*
X23063747Y-14470591D01*
X23063747Y-14470591D02*
X23044700Y-14461067D01*
X23044700Y-14461067D02*
X23016128Y-14461067D01*
X23016128Y-14461067D02*
X22997081Y-14451543D01*
X22997081Y-14451543D02*
X22987557Y-14432496D01*
X22987557Y-14432496D02*
X22987557Y-14422972D01*
X22987557Y-14422972D02*
X22997081Y-14403924D01*
X22997081Y-14403924D02*
X23016128Y-14394400D01*
X23016128Y-14394400D02*
X23044700Y-14394400D01*
X23044700Y-14394400D02*
X23063747Y-14403924D01*
X23139938Y-14603924D02*
X23149462Y-14594400D01*
X23149462Y-14594400D02*
X23168509Y-14565829D01*
X23168509Y-14565829D02*
X23178033Y-14546781D01*
X23178033Y-14546781D02*
X23187557Y-14518210D01*
X23187557Y-14518210D02*
X23197081Y-14470591D01*
X23197081Y-14470591D02*
X23197081Y-14432496D01*
X23197081Y-14432496D02*
X23187557Y-14384877D01*
X23187557Y-14384877D02*
X23178033Y-14356305D01*
X23178033Y-14356305D02*
X23168509Y-14337258D01*
X23168509Y-14337258D02*
X23149462Y-14308686D01*
X23149462Y-14308686D02*
X23139938Y-14299162D01*
X23501843Y-14603924D02*
X23492319Y-14594400D01*
X23492319Y-14594400D02*
X23473271Y-14565829D01*
X23473271Y-14565829D02*
X23463747Y-14546781D01*
X23463747Y-14546781D02*
X23454224Y-14518210D01*
X23454224Y-14518210D02*
X23444700Y-14470591D01*
X23444700Y-14470591D02*
X23444700Y-14432496D01*
X23444700Y-14432496D02*
X23454224Y-14384877D01*
X23454224Y-14384877D02*
X23463747Y-14356305D01*
X23463747Y-14356305D02*
X23473271Y-14337258D01*
X23473271Y-14337258D02*
X23492319Y-14308686D01*
X23492319Y-14308686D02*
X23501843Y-14299162D01*
X23578033Y-14394400D02*
X23578033Y-14527734D01*
X23578033Y-14413448D02*
X23587557Y-14403924D01*
X23587557Y-14403924D02*
X23606605Y-14394400D01*
X23606605Y-14394400D02*
X23635176Y-14394400D01*
X23635176Y-14394400D02*
X23654224Y-14403924D01*
X23654224Y-14403924D02*
X23663747Y-14422972D01*
X23663747Y-14422972D02*
X23663747Y-14527734D01*
X23787557Y-14527734D02*
X23768509Y-14518210D01*
X23768509Y-14518210D02*
X23758986Y-14508686D01*
X23758986Y-14508686D02*
X23749462Y-14489638D01*
X23749462Y-14489638D02*
X23749462Y-14432496D01*
X23749462Y-14432496D02*
X23758986Y-14413448D01*
X23758986Y-14413448D02*
X23768509Y-14403924D01*
X23768509Y-14403924D02*
X23787557Y-14394400D01*
X23787557Y-14394400D02*
X23816128Y-14394400D01*
X23816128Y-14394400D02*
X23835176Y-14403924D01*
X23835176Y-14403924D02*
X23844700Y-14413448D01*
X23844700Y-14413448D02*
X23854224Y-14432496D01*
X23854224Y-14432496D02*
X23854224Y-14489638D01*
X23854224Y-14489638D02*
X23844700Y-14508686D01*
X23844700Y-14508686D02*
X23835176Y-14518210D01*
X23835176Y-14518210D02*
X23816128Y-14527734D01*
X23816128Y-14527734D02*
X23787557Y-14527734D01*
X23911367Y-14394400D02*
X23987557Y-14394400D01*
X23939938Y-14327734D02*
X23939938Y-14499162D01*
X23939938Y-14499162D02*
X23949462Y-14518210D01*
X23949462Y-14518210D02*
X23968509Y-14527734D01*
X23968509Y-14527734D02*
X23987557Y-14527734D01*
X24206605Y-14394400D02*
X24206605Y-14594400D01*
X24206605Y-14403924D02*
X24225652Y-14394400D01*
X24225652Y-14394400D02*
X24263748Y-14394400D01*
X24263748Y-14394400D02*
X24282795Y-14403924D01*
X24282795Y-14403924D02*
X24292319Y-14413448D01*
X24292319Y-14413448D02*
X24301843Y-14432496D01*
X24301843Y-14432496D02*
X24301843Y-14489638D01*
X24301843Y-14489638D02*
X24292319Y-14508686D01*
X24292319Y-14508686D02*
X24282795Y-14518210D01*
X24282795Y-14518210D02*
X24263748Y-14527734D01*
X24263748Y-14527734D02*
X24225652Y-14527734D01*
X24225652Y-14527734D02*
X24206605Y-14518210D01*
X24416128Y-14527734D02*
X24397081Y-14518210D01*
X24397081Y-14518210D02*
X24387557Y-14499162D01*
X24387557Y-14499162D02*
X24387557Y-14327734D01*
X24578033Y-14527734D02*
X24578033Y-14422972D01*
X24578033Y-14422972D02*
X24568509Y-14403924D01*
X24568509Y-14403924D02*
X24549462Y-14394400D01*
X24549462Y-14394400D02*
X24511367Y-14394400D01*
X24511367Y-14394400D02*
X24492319Y-14403924D01*
X24578033Y-14518210D02*
X24558986Y-14527734D01*
X24558986Y-14527734D02*
X24511367Y-14527734D01*
X24511367Y-14527734D02*
X24492319Y-14518210D01*
X24492319Y-14518210D02*
X24482795Y-14499162D01*
X24482795Y-14499162D02*
X24482795Y-14480115D01*
X24482795Y-14480115D02*
X24492319Y-14461067D01*
X24492319Y-14461067D02*
X24511367Y-14451543D01*
X24511367Y-14451543D02*
X24558986Y-14451543D01*
X24558986Y-14451543D02*
X24578033Y-14442019D01*
X24644700Y-14394400D02*
X24720890Y-14394400D01*
X24673271Y-14327734D02*
X24673271Y-14499162D01*
X24673271Y-14499162D02*
X24682795Y-14518210D01*
X24682795Y-14518210D02*
X24701843Y-14527734D01*
X24701843Y-14527734D02*
X24720890Y-14527734D01*
X24863748Y-14518210D02*
X24844700Y-14527734D01*
X24844700Y-14527734D02*
X24806605Y-14527734D01*
X24806605Y-14527734D02*
X24787557Y-14518210D01*
X24787557Y-14518210D02*
X24778033Y-14499162D01*
X24778033Y-14499162D02*
X24778033Y-14422972D01*
X24778033Y-14422972D02*
X24787557Y-14403924D01*
X24787557Y-14403924D02*
X24806605Y-14394400D01*
X24806605Y-14394400D02*
X24844700Y-14394400D01*
X24844700Y-14394400D02*
X24863748Y-14403924D01*
X24863748Y-14403924D02*
X24873271Y-14422972D01*
X24873271Y-14422972D02*
X24873271Y-14442019D01*
X24873271Y-14442019D02*
X24778033Y-14461067D01*
X25044700Y-14527734D02*
X25044700Y-14327734D01*
X25044700Y-14518210D02*
X25025652Y-14527734D01*
X25025652Y-14527734D02*
X24987557Y-14527734D01*
X24987557Y-14527734D02*
X24968509Y-14518210D01*
X24968509Y-14518210D02*
X24958986Y-14508686D01*
X24958986Y-14508686D02*
X24949462Y-14489638D01*
X24949462Y-14489638D02*
X24949462Y-14432496D01*
X24949462Y-14432496D02*
X24958986Y-14413448D01*
X24958986Y-14413448D02*
X24968509Y-14403924D01*
X24968509Y-14403924D02*
X24987557Y-14394400D01*
X24987557Y-14394400D02*
X25025652Y-14394400D01*
X25025652Y-14394400D02*
X25044700Y-14403924D01*
X25120890Y-14603924D02*
X25130414Y-14594400D01*
X25130414Y-14594400D02*
X25149462Y-14565829D01*
X25149462Y-14565829D02*
X25158986Y-14546781D01*
X25158986Y-14546781D02*
X25168509Y-14518210D01*
X25168509Y-14518210D02*
X25178033Y-14470591D01*
X25178033Y-14470591D02*
X25178033Y-14432496D01*
X25178033Y-14432496D02*
X25168509Y-14384877D01*
X25168509Y-14384877D02*
X25158986Y-14356305D01*
X25158986Y-14356305D02*
X25149462Y-14337258D01*
X25149462Y-14337258D02*
X25130414Y-14308686D01*
X25130414Y-14308686D02*
X25120890Y-14299162D01*
X18264875Y-14856250D02*
X18364875Y-14756250D01*
X18264875Y-14656250D01*
X18164875Y-14756250D01*
X18264875Y-14856250D01*
X18711366Y-14714400D02*
X18711366Y-14847734D01*
X18663747Y-14638210D02*
X18616128Y-14781067D01*
X18616128Y-14781067D02*
X18739938Y-14781067D01*
X18816128Y-14828686D02*
X18825652Y-14838210D01*
X18825652Y-14838210D02*
X18816128Y-14847734D01*
X18816128Y-14847734D02*
X18806604Y-14838210D01*
X18806604Y-14838210D02*
X18816128Y-14828686D01*
X18816128Y-14828686D02*
X18816128Y-14847734D01*
X18949461Y-14647734D02*
X18968509Y-14647734D01*
X18968509Y-14647734D02*
X18987557Y-14657258D01*
X18987557Y-14657258D02*
X18997080Y-14666781D01*
X18997080Y-14666781D02*
X19006604Y-14685829D01*
X19006604Y-14685829D02*
X19016128Y-14723924D01*
X19016128Y-14723924D02*
X19016128Y-14771543D01*
X19016128Y-14771543D02*
X19006604Y-14809638D01*
X19006604Y-14809638D02*
X18997080Y-14828686D01*
X18997080Y-14828686D02*
X18987557Y-14838210D01*
X18987557Y-14838210D02*
X18968509Y-14847734D01*
X18968509Y-14847734D02*
X18949461Y-14847734D01*
X18949461Y-14847734D02*
X18930414Y-14838210D01*
X18930414Y-14838210D02*
X18920890Y-14828686D01*
X18920890Y-14828686D02*
X18911366Y-14809638D01*
X18911366Y-14809638D02*
X18901842Y-14771543D01*
X18901842Y-14771543D02*
X18901842Y-14723924D01*
X18901842Y-14723924D02*
X18911366Y-14685829D01*
X18911366Y-14685829D02*
X18920890Y-14666781D01*
X18920890Y-14666781D02*
X18930414Y-14657258D01*
X18930414Y-14657258D02*
X18949461Y-14647734D01*
X19139938Y-14647734D02*
X19158985Y-14647734D01*
X19158985Y-14647734D02*
X19178033Y-14657258D01*
X19178033Y-14657258D02*
X19187557Y-14666781D01*
X19187557Y-14666781D02*
X19197080Y-14685829D01*
X19197080Y-14685829D02*
X19206604Y-14723924D01*
X19206604Y-14723924D02*
X19206604Y-14771543D01*
X19206604Y-14771543D02*
X19197080Y-14809638D01*
X19197080Y-14809638D02*
X19187557Y-14828686D01*
X19187557Y-14828686D02*
X19178033Y-14838210D01*
X19178033Y-14838210D02*
X19158985Y-14847734D01*
X19158985Y-14847734D02*
X19139938Y-14847734D01*
X19139938Y-14847734D02*
X19120890Y-14838210D01*
X19120890Y-14838210D02*
X19111366Y-14828686D01*
X19111366Y-14828686D02*
X19101842Y-14809638D01*
X19101842Y-14809638D02*
X19092319Y-14771543D01*
X19092319Y-14771543D02*
X19092319Y-14723924D01*
X19092319Y-14723924D02*
X19101842Y-14685829D01*
X19101842Y-14685829D02*
X19111366Y-14666781D01*
X19111366Y-14666781D02*
X19120890Y-14657258D01*
X19120890Y-14657258D02*
X19139938Y-14647734D01*
X19330414Y-14647734D02*
X19349461Y-14647734D01*
X19349461Y-14647734D02*
X19368509Y-14657258D01*
X19368509Y-14657258D02*
X19378033Y-14666781D01*
X19378033Y-14666781D02*
X19387557Y-14685829D01*
X19387557Y-14685829D02*
X19397080Y-14723924D01*
X19397080Y-14723924D02*
X19397080Y-14771543D01*
X19397080Y-14771543D02*
X19387557Y-14809638D01*
X19387557Y-14809638D02*
X19378033Y-14828686D01*
X19378033Y-14828686D02*
X19368509Y-14838210D01*
X19368509Y-14838210D02*
X19349461Y-14847734D01*
X19349461Y-14847734D02*
X19330414Y-14847734D01*
X19330414Y-14847734D02*
X19311366Y-14838210D01*
X19311366Y-14838210D02*
X19301842Y-14828686D01*
X19301842Y-14828686D02*
X19292319Y-14809638D01*
X19292319Y-14809638D02*
X19282795Y-14771543D01*
X19282795Y-14771543D02*
X19282795Y-14723924D01*
X19282795Y-14723924D02*
X19292319Y-14685829D01*
X19292319Y-14685829D02*
X19301842Y-14666781D01*
X19301842Y-14666781D02*
X19311366Y-14657258D01*
X19311366Y-14657258D02*
X19330414Y-14647734D01*
X19482795Y-14847734D02*
X19482795Y-14714400D01*
X19482795Y-14733448D02*
X19492319Y-14723924D01*
X19492319Y-14723924D02*
X19511366Y-14714400D01*
X19511366Y-14714400D02*
X19539938Y-14714400D01*
X19539938Y-14714400D02*
X19558985Y-14723924D01*
X19558985Y-14723924D02*
X19568509Y-14742972D01*
X19568509Y-14742972D02*
X19568509Y-14847734D01*
X19568509Y-14742972D02*
X19578033Y-14723924D01*
X19578033Y-14723924D02*
X19597080Y-14714400D01*
X19597080Y-14714400D02*
X19625652Y-14714400D01*
X19625652Y-14714400D02*
X19644700Y-14723924D01*
X19644700Y-14723924D02*
X19654223Y-14742972D01*
X19654223Y-14742972D02*
X19654223Y-14847734D01*
X19749461Y-14847734D02*
X19749461Y-14714400D01*
X19749461Y-14733448D02*
X19758985Y-14723924D01*
X19758985Y-14723924D02*
X19778033Y-14714400D01*
X19778033Y-14714400D02*
X19806604Y-14714400D01*
X19806604Y-14714400D02*
X19825652Y-14723924D01*
X19825652Y-14723924D02*
X19835176Y-14742972D01*
X19835176Y-14742972D02*
X19835176Y-14847734D01*
X19835176Y-14742972D02*
X19844700Y-14723924D01*
X19844700Y-14723924D02*
X19863747Y-14714400D01*
X19863747Y-14714400D02*
X19892319Y-14714400D01*
X19892319Y-14714400D02*
X19911366Y-14723924D01*
X19911366Y-14723924D02*
X19920890Y-14742972D01*
X19920890Y-14742972D02*
X19920890Y-14847734D01*
X20311366Y-14638210D02*
X20139938Y-14895353D01*
X20568509Y-14647734D02*
X20587557Y-14647734D01*
X20587557Y-14647734D02*
X20606604Y-14657258D01*
X20606604Y-14657258D02*
X20616128Y-14666781D01*
X20616128Y-14666781D02*
X20625652Y-14685829D01*
X20625652Y-14685829D02*
X20635176Y-14723924D01*
X20635176Y-14723924D02*
X20635176Y-14771543D01*
X20635176Y-14771543D02*
X20625652Y-14809638D01*
X20625652Y-14809638D02*
X20616128Y-14828686D01*
X20616128Y-14828686D02*
X20606604Y-14838210D01*
X20606604Y-14838210D02*
X20587557Y-14847734D01*
X20587557Y-14847734D02*
X20568509Y-14847734D01*
X20568509Y-14847734D02*
X20549462Y-14838210D01*
X20549462Y-14838210D02*
X20539938Y-14828686D01*
X20539938Y-14828686D02*
X20530414Y-14809638D01*
X20530414Y-14809638D02*
X20520890Y-14771543D01*
X20520890Y-14771543D02*
X20520890Y-14723924D01*
X20520890Y-14723924D02*
X20530414Y-14685829D01*
X20530414Y-14685829D02*
X20539938Y-14666781D01*
X20539938Y-14666781D02*
X20549462Y-14657258D01*
X20549462Y-14657258D02*
X20568509Y-14647734D01*
X20720890Y-14828686D02*
X20730414Y-14838210D01*
X20730414Y-14838210D02*
X20720890Y-14847734D01*
X20720890Y-14847734D02*
X20711366Y-14838210D01*
X20711366Y-14838210D02*
X20720890Y-14828686D01*
X20720890Y-14828686D02*
X20720890Y-14847734D01*
X20920890Y-14847734D02*
X20806604Y-14847734D01*
X20863747Y-14847734D02*
X20863747Y-14647734D01*
X20863747Y-14647734D02*
X20844700Y-14676305D01*
X20844700Y-14676305D02*
X20825652Y-14695353D01*
X20825652Y-14695353D02*
X20806604Y-14704877D01*
X21101843Y-14647734D02*
X21006604Y-14647734D01*
X21006604Y-14647734D02*
X20997081Y-14742972D01*
X20997081Y-14742972D02*
X21006604Y-14733448D01*
X21006604Y-14733448D02*
X21025652Y-14723924D01*
X21025652Y-14723924D02*
X21073271Y-14723924D01*
X21073271Y-14723924D02*
X21092319Y-14733448D01*
X21092319Y-14733448D02*
X21101843Y-14742972D01*
X21101843Y-14742972D02*
X21111366Y-14762019D01*
X21111366Y-14762019D02*
X21111366Y-14809638D01*
X21111366Y-14809638D02*
X21101843Y-14828686D01*
X21101843Y-14828686D02*
X21092319Y-14838210D01*
X21092319Y-14838210D02*
X21073271Y-14847734D01*
X21073271Y-14847734D02*
X21025652Y-14847734D01*
X21025652Y-14847734D02*
X21006604Y-14838210D01*
X21006604Y-14838210D02*
X20997081Y-14828686D01*
X21178033Y-14647734D02*
X21311366Y-14647734D01*
X21311366Y-14647734D02*
X21225652Y-14847734D01*
X21482795Y-14647734D02*
X21387557Y-14647734D01*
X21387557Y-14647734D02*
X21378033Y-14742972D01*
X21378033Y-14742972D02*
X21387557Y-14733448D01*
X21387557Y-14733448D02*
X21406604Y-14723924D01*
X21406604Y-14723924D02*
X21454224Y-14723924D01*
X21454224Y-14723924D02*
X21473271Y-14733448D01*
X21473271Y-14733448D02*
X21482795Y-14742972D01*
X21482795Y-14742972D02*
X21492319Y-14762019D01*
X21492319Y-14762019D02*
X21492319Y-14809638D01*
X21492319Y-14809638D02*
X21482795Y-14828686D01*
X21482795Y-14828686D02*
X21473271Y-14838210D01*
X21473271Y-14838210D02*
X21454224Y-14847734D01*
X21454224Y-14847734D02*
X21406604Y-14847734D01*
X21406604Y-14847734D02*
X21387557Y-14838210D01*
X21387557Y-14838210D02*
X21378033Y-14828686D01*
X21568509Y-14647734D02*
X21568509Y-14685829D01*
X21644700Y-14647734D02*
X21644700Y-14685829D01*
X21939938Y-14923924D02*
X21930414Y-14914400D01*
X21930414Y-14914400D02*
X21911366Y-14885829D01*
X21911366Y-14885829D02*
X21901843Y-14866781D01*
X21901843Y-14866781D02*
X21892319Y-14838210D01*
X21892319Y-14838210D02*
X21882795Y-14790591D01*
X21882795Y-14790591D02*
X21882795Y-14752496D01*
X21882795Y-14752496D02*
X21892319Y-14704877D01*
X21892319Y-14704877D02*
X21901843Y-14676305D01*
X21901843Y-14676305D02*
X21911366Y-14657258D01*
X21911366Y-14657258D02*
X21930414Y-14628686D01*
X21930414Y-14628686D02*
X21939938Y-14619162D01*
X22120890Y-14847734D02*
X22006605Y-14847734D01*
X22063747Y-14847734D02*
X22063747Y-14647734D01*
X22063747Y-14647734D02*
X22044700Y-14676305D01*
X22044700Y-14676305D02*
X22025652Y-14695353D01*
X22025652Y-14695353D02*
X22006605Y-14704877D01*
X22187557Y-14647734D02*
X22320890Y-14647734D01*
X22320890Y-14647734D02*
X22235176Y-14847734D01*
X22549462Y-14847734D02*
X22549462Y-14647734D01*
X22635176Y-14847734D02*
X22635176Y-14742972D01*
X22635176Y-14742972D02*
X22625652Y-14723924D01*
X22625652Y-14723924D02*
X22606605Y-14714400D01*
X22606605Y-14714400D02*
X22578033Y-14714400D01*
X22578033Y-14714400D02*
X22558985Y-14723924D01*
X22558985Y-14723924D02*
X22549462Y-14733448D01*
X22758985Y-14847734D02*
X22739938Y-14838210D01*
X22739938Y-14838210D02*
X22730414Y-14828686D01*
X22730414Y-14828686D02*
X22720890Y-14809638D01*
X22720890Y-14809638D02*
X22720890Y-14752496D01*
X22720890Y-14752496D02*
X22730414Y-14733448D01*
X22730414Y-14733448D02*
X22739938Y-14723924D01*
X22739938Y-14723924D02*
X22758985Y-14714400D01*
X22758985Y-14714400D02*
X22787557Y-14714400D01*
X22787557Y-14714400D02*
X22806605Y-14723924D01*
X22806605Y-14723924D02*
X22816128Y-14733448D01*
X22816128Y-14733448D02*
X22825652Y-14752496D01*
X22825652Y-14752496D02*
X22825652Y-14809638D01*
X22825652Y-14809638D02*
X22816128Y-14828686D01*
X22816128Y-14828686D02*
X22806605Y-14838210D01*
X22806605Y-14838210D02*
X22787557Y-14847734D01*
X22787557Y-14847734D02*
X22758985Y-14847734D01*
X22939938Y-14847734D02*
X22920890Y-14838210D01*
X22920890Y-14838210D02*
X22911366Y-14819162D01*
X22911366Y-14819162D02*
X22911366Y-14647734D01*
X23092319Y-14838210D02*
X23073271Y-14847734D01*
X23073271Y-14847734D02*
X23035176Y-14847734D01*
X23035176Y-14847734D02*
X23016128Y-14838210D01*
X23016128Y-14838210D02*
X23006605Y-14819162D01*
X23006605Y-14819162D02*
X23006605Y-14742972D01*
X23006605Y-14742972D02*
X23016128Y-14723924D01*
X23016128Y-14723924D02*
X23035176Y-14714400D01*
X23035176Y-14714400D02*
X23073271Y-14714400D01*
X23073271Y-14714400D02*
X23092319Y-14723924D01*
X23092319Y-14723924D02*
X23101843Y-14742972D01*
X23101843Y-14742972D02*
X23101843Y-14762019D01*
X23101843Y-14762019D02*
X23006605Y-14781067D01*
X23178033Y-14838210D02*
X23197081Y-14847734D01*
X23197081Y-14847734D02*
X23235176Y-14847734D01*
X23235176Y-14847734D02*
X23254224Y-14838210D01*
X23254224Y-14838210D02*
X23263747Y-14819162D01*
X23263747Y-14819162D02*
X23263747Y-14809638D01*
X23263747Y-14809638D02*
X23254224Y-14790591D01*
X23254224Y-14790591D02*
X23235176Y-14781067D01*
X23235176Y-14781067D02*
X23206605Y-14781067D01*
X23206605Y-14781067D02*
X23187557Y-14771543D01*
X23187557Y-14771543D02*
X23178033Y-14752496D01*
X23178033Y-14752496D02*
X23178033Y-14742972D01*
X23178033Y-14742972D02*
X23187557Y-14723924D01*
X23187557Y-14723924D02*
X23206605Y-14714400D01*
X23206605Y-14714400D02*
X23235176Y-14714400D01*
X23235176Y-14714400D02*
X23254224Y-14723924D01*
X23330414Y-14923924D02*
X23339938Y-14914400D01*
X23339938Y-14914400D02*
X23358986Y-14885829D01*
X23358986Y-14885829D02*
X23368509Y-14866781D01*
X23368509Y-14866781D02*
X23378033Y-14838210D01*
X23378033Y-14838210D02*
X23387557Y-14790591D01*
X23387557Y-14790591D02*
X23387557Y-14752496D01*
X23387557Y-14752496D02*
X23378033Y-14704877D01*
X23378033Y-14704877D02*
X23368509Y-14676305D01*
X23368509Y-14676305D02*
X23358986Y-14657258D01*
X23358986Y-14657258D02*
X23339938Y-14628686D01*
X23339938Y-14628686D02*
X23330414Y-14619162D01*
X23692319Y-14923924D02*
X23682795Y-14914400D01*
X23682795Y-14914400D02*
X23663747Y-14885829D01*
X23663747Y-14885829D02*
X23654224Y-14866781D01*
X23654224Y-14866781D02*
X23644700Y-14838210D01*
X23644700Y-14838210D02*
X23635176Y-14790591D01*
X23635176Y-14790591D02*
X23635176Y-14752496D01*
X23635176Y-14752496D02*
X23644700Y-14704877D01*
X23644700Y-14704877D02*
X23654224Y-14676305D01*
X23654224Y-14676305D02*
X23663747Y-14657258D01*
X23663747Y-14657258D02*
X23682795Y-14628686D01*
X23682795Y-14628686D02*
X23692319Y-14619162D01*
X23768509Y-14714400D02*
X23768509Y-14847734D01*
X23768509Y-14733448D02*
X23778033Y-14723924D01*
X23778033Y-14723924D02*
X23797081Y-14714400D01*
X23797081Y-14714400D02*
X23825652Y-14714400D01*
X23825652Y-14714400D02*
X23844700Y-14723924D01*
X23844700Y-14723924D02*
X23854224Y-14742972D01*
X23854224Y-14742972D02*
X23854224Y-14847734D01*
X23978033Y-14847734D02*
X23958986Y-14838210D01*
X23958986Y-14838210D02*
X23949462Y-14828686D01*
X23949462Y-14828686D02*
X23939938Y-14809638D01*
X23939938Y-14809638D02*
X23939938Y-14752496D01*
X23939938Y-14752496D02*
X23949462Y-14733448D01*
X23949462Y-14733448D02*
X23958986Y-14723924D01*
X23958986Y-14723924D02*
X23978033Y-14714400D01*
X23978033Y-14714400D02*
X24006605Y-14714400D01*
X24006605Y-14714400D02*
X24025652Y-14723924D01*
X24025652Y-14723924D02*
X24035176Y-14733448D01*
X24035176Y-14733448D02*
X24044700Y-14752496D01*
X24044700Y-14752496D02*
X24044700Y-14809638D01*
X24044700Y-14809638D02*
X24035176Y-14828686D01*
X24035176Y-14828686D02*
X24025652Y-14838210D01*
X24025652Y-14838210D02*
X24006605Y-14847734D01*
X24006605Y-14847734D02*
X23978033Y-14847734D01*
X24101843Y-14714400D02*
X24178033Y-14714400D01*
X24130414Y-14647734D02*
X24130414Y-14819162D01*
X24130414Y-14819162D02*
X24139938Y-14838210D01*
X24139938Y-14838210D02*
X24158986Y-14847734D01*
X24158986Y-14847734D02*
X24178033Y-14847734D01*
X24397081Y-14714400D02*
X24397081Y-14914400D01*
X24397081Y-14723924D02*
X24416128Y-14714400D01*
X24416128Y-14714400D02*
X24454224Y-14714400D01*
X24454224Y-14714400D02*
X24473271Y-14723924D01*
X24473271Y-14723924D02*
X24482795Y-14733448D01*
X24482795Y-14733448D02*
X24492319Y-14752496D01*
X24492319Y-14752496D02*
X24492319Y-14809638D01*
X24492319Y-14809638D02*
X24482795Y-14828686D01*
X24482795Y-14828686D02*
X24473271Y-14838210D01*
X24473271Y-14838210D02*
X24454224Y-14847734D01*
X24454224Y-14847734D02*
X24416128Y-14847734D01*
X24416128Y-14847734D02*
X24397081Y-14838210D01*
X24606605Y-14847734D02*
X24587557Y-14838210D01*
X24587557Y-14838210D02*
X24578033Y-14819162D01*
X24578033Y-14819162D02*
X24578033Y-14647734D01*
X24768509Y-14847734D02*
X24768509Y-14742972D01*
X24768509Y-14742972D02*
X24758986Y-14723924D01*
X24758986Y-14723924D02*
X24739938Y-14714400D01*
X24739938Y-14714400D02*
X24701843Y-14714400D01*
X24701843Y-14714400D02*
X24682795Y-14723924D01*
X24768509Y-14838210D02*
X24749462Y-14847734D01*
X24749462Y-14847734D02*
X24701843Y-14847734D01*
X24701843Y-14847734D02*
X24682795Y-14838210D01*
X24682795Y-14838210D02*
X24673271Y-14819162D01*
X24673271Y-14819162D02*
X24673271Y-14800115D01*
X24673271Y-14800115D02*
X24682795Y-14781067D01*
X24682795Y-14781067D02*
X24701843Y-14771543D01*
X24701843Y-14771543D02*
X24749462Y-14771543D01*
X24749462Y-14771543D02*
X24768509Y-14762019D01*
X24835176Y-14714400D02*
X24911367Y-14714400D01*
X24863748Y-14647734D02*
X24863748Y-14819162D01*
X24863748Y-14819162D02*
X24873271Y-14838210D01*
X24873271Y-14838210D02*
X24892319Y-14847734D01*
X24892319Y-14847734D02*
X24911367Y-14847734D01*
X25054224Y-14838210D02*
X25035176Y-14847734D01*
X25035176Y-14847734D02*
X24997081Y-14847734D01*
X24997081Y-14847734D02*
X24978033Y-14838210D01*
X24978033Y-14838210D02*
X24968509Y-14819162D01*
X24968509Y-14819162D02*
X24968509Y-14742972D01*
X24968509Y-14742972D02*
X24978033Y-14723924D01*
X24978033Y-14723924D02*
X24997081Y-14714400D01*
X24997081Y-14714400D02*
X25035176Y-14714400D01*
X25035176Y-14714400D02*
X25054224Y-14723924D01*
X25054224Y-14723924D02*
X25063748Y-14742972D01*
X25063748Y-14742972D02*
X25063748Y-14762019D01*
X25063748Y-14762019D02*
X24968509Y-14781067D01*
X25235176Y-14847734D02*
X25235176Y-14647734D01*
X25235176Y-14838210D02*
X25216129Y-14847734D01*
X25216129Y-14847734D02*
X25178033Y-14847734D01*
X25178033Y-14847734D02*
X25158986Y-14838210D01*
X25158986Y-14838210D02*
X25149462Y-14828686D01*
X25149462Y-14828686D02*
X25139938Y-14809638D01*
X25139938Y-14809638D02*
X25139938Y-14752496D01*
X25139938Y-14752496D02*
X25149462Y-14733448D01*
X25149462Y-14733448D02*
X25158986Y-14723924D01*
X25158986Y-14723924D02*
X25178033Y-14714400D01*
X25178033Y-14714400D02*
X25216129Y-14714400D01*
X25216129Y-14714400D02*
X25235176Y-14723924D01*
X25311367Y-14923924D02*
X25320890Y-14914400D01*
X25320890Y-14914400D02*
X25339938Y-14885829D01*
X25339938Y-14885829D02*
X25349462Y-14866781D01*
X25349462Y-14866781D02*
X25358986Y-14838210D01*
X25358986Y-14838210D02*
X25368509Y-14790591D01*
X25368509Y-14790591D02*
X25368509Y-14752496D01*
X25368509Y-14752496D02*
X25358986Y-14704877D01*
X25358986Y-14704877D02*
X25349462Y-14676305D01*
X25349462Y-14676305D02*
X25339938Y-14657258D01*
X25339938Y-14657258D02*
X25320890Y-14628686D01*
X25320890Y-14628686D02*
X25311367Y-14619162D01*
M02*
