M48
; DRILL file {KiCad 8.0.4} date 2026-08-24T12:15:21-0500
; FORMAT={-:-/ absolute / inch / decimal}
; #@! TF.CreationDate,2026-08-24T12:15:21-05:00
; #@! TF.GenerationSoftware,Kicad,Pcbnew,8.0.4
; #@! TF.FileFunction,NonPlated,1,2,NPTH
FMAT,2
INCH
; #@! TA.AperFunction,NonPlated,NPTH,ComponentDrill
T1C0.0689
; #@! TA.AperFunction,NonPlated,NPTH,ComponentDrill
T2C0.0866
; #@! TA.AperFunction,NonPlated,NPTH,ComponentDrill
T3C0.1200
; #@! TA.AperFunction,NonPlated,NPTH,ComponentDrill
T4C0.1570
; #@! TA.AperFunction,NonPlated,NPTH,ComponentDrill
T5C0.1575
%
G90
G05
T1
X7.5Y-1.5
X7.5Y-2.25
X7.5Y-3.0
X7.5Y-3.75
X7.875Y-4.5
X7.9Y-1.5
X7.9Y-2.25
X7.9Y-3.0
X7.9Y-3.75
X8.25Y-1.5
X8.25Y-2.25
X8.25Y-3.0
X8.25Y-3.75
X8.275Y-4.5
X8.65Y-1.5
X8.65Y-2.25
X8.65Y-3.0
X8.65Y-3.75
X9.0Y-1.5
X9.0Y-2.25
X9.0Y-3.0
X9.0Y-3.75
X9.0Y-4.5
X9.4Y-1.5
X9.4Y-2.25
X9.4Y-3.0
X9.4Y-3.75
X9.4Y-4.5
X9.75Y-1.5
X9.95Y-2.425
X9.95Y-2.825
X9.95Y-3.925
X9.95Y-4.325
X10.15Y-1.5
T2
X7.325Y-0.7969
X7.325Y-4.9688
X9.0594Y-0.7969
X11.1687Y-2.2969
X11.1687Y-4.9688
T3
X7.605Y-4.225
X8.545Y-4.225
X9.675Y-2.155
X9.675Y-3.095
X9.675Y-3.655
X9.675Y-4.595
T4
X7.605Y-4.8238
X8.545Y-4.8238
X10.2738Y-2.155
X10.2738Y-3.095
X10.2738Y-3.655
X10.2738Y-4.595
T5
X7.7Y-1.5
X7.7Y-2.25
X7.7Y-3.0
X7.7Y-3.75
X8.075Y-4.5
X8.45Y-1.5
X8.45Y-2.25
X8.45Y-3.0
X8.45Y-3.75
X9.2Y-1.5
X9.2Y-2.25
X9.2Y-3.0
X9.2Y-3.75
X9.2Y-4.5
X9.95Y-1.5
X9.95Y-2.625
X9.95Y-4.125
M30
